<svg version="1.2" xmlns="http://www.w3.org/2000/svg" viewBox="0 0 4200 3094">
	<defs>
		<linearGradient id="g1" x2="1" gradientUnits="userSpaceOnUse" gradientTransform="matrix(-2045.437,2229.266,-1296.939,-1189.991,2520.008,-504.683)">
			<stop offset="0" stop-color="#ff9085"/>
			<stop offset="1" stop-color="#fb6fbb"/>
		</linearGradient>
		<clipPath clipPathUnits="userSpaceOnUse" id="cp1">
			<path d="m2604.51 1512.49c38.03 100.36 72.6 204.05 110.35 305.33 61.21 2 133.26 2.86 143.14-72.75 13.72-105.13 192.72-154.03 278.06-160.23 105.62-7.66 332.38-45.46 277.07-191.03-46.04-121.18-122.46-177.59 11.55-262.04 134-84.45 183.8-193.87 113.1-320.46-74.4-133.22 50.48-324.6-85.56-405.42-237.06-140.8-390.52 264.35-364.87 480.88 25.66 216.53-95.42 175.28-233.11 224.77-187.99 67.58-17.03 235.88-83.11 324.19-51.81 69.23-95.77 59.16-166.62 76.76z"/>
		</clipPath>
		<clipPath clipPathUnits="userSpaceOnUse" id="cp2">
			<path d="m2989.01 1745.89q-111.6 3.12-223.76 1.2c-0.99 1.27-52.46-152.18 7.88-248 119.91-186.15-5.07-312.35-48.48-392.51-66.63-112.08-68.95-262.14 68.12-258.05 132.99 0.9 105.92-267.82 47.76-468.28-36.46-96.13 36.18-233.31 124.99-277.35 90.23-47.36 196.64-1.58 260.72 191.55 84.61 221.78-58.59 389.66-100.4 515.65-41.19 123.71 116.88 190.17 20.18 310.37-80.5 105.84-190.43 191.08-126.47 295.03 64.95 102.46 69.92 194.69-30.54 330.39z"/>
		</clipPath>
		<linearGradient id="g2" x2="1" gradientUnits="userSpaceOnUse" gradientTransform="matrix(-14.558,1711.045,-583.335,-4.963,729.946,72.7)">
			<stop offset="0" stop-color="#ffc444"/>
			<stop offset=".996" stop-color="#f36f56"/>
		</linearGradient>
		<linearGradient id="g3" x2="1" gradientUnits="userSpaceOnUse" gradientTransform="matrix(2567.451,1712.433,-996.227,1493.643,1483.323,161.397)">
			<stop offset="0" stop-color="#ff9085"/>
			<stop offset="1" stop-color="#fb6fbb"/>
		</linearGradient>
		<clipPath clipPathUnits="userSpaceOnUse" id="cp3">
			<path d="m1889 2180.49c-13.33 108.66-22.41 219.79-35.25 329.29-60.16 16.83-131.33 35.17-159.46-37.35-39.11-100.83-228.32-105.84-314.38-91.27-106.5 18.03-340.34 35.61-320.87-122.03 16.21-131.24 78.24-205.68-75.02-256.83-153.26-51.15-229.15-147.48-189.82-290.06 41.39-150.04-128.78-309.35-13.6-422.43 200.7-197.03 451.05 167.15 478.18 387.9 27.13 220.76 137.07 150.51 285.51 166.13 202.64 21.34 74.1 229.57 161.01 301.03 68.12 56.01 109.23 35.38 183.7 35.62z"/>
		</clipPath>
		<linearGradient id="g4" x2="1" gradientUnits="userSpaceOnUse" gradientTransform="matrix(1967.524,0,0,2496.892,1117,371.014)">
			<stop offset="0" stop-color="#444b8c"/>
			<stop offset=".996" stop-color="#26264f"/>
		</linearGradient>
		<linearGradient id="g5" x2="1" gradientUnits="userSpaceOnUse" gradientTransform="matrix(1904.98,0,0,2437.043,1182.217,400.144)">
			<stop offset=".004" stop-color="#e38ddd"/>
			<stop offset="1" stop-color="#9571f6"/>
		</linearGradient>
		<linearGradient id="g6" x2="1" gradientUnits="userSpaceOnUse" gradientTransform="matrix(984.124,0,0,548.145,1684.262,140.262)">
			<stop offset="0" stop-color="#444b8c"/>
			<stop offset=".996" stop-color="#26264f"/>
		</linearGradient>
		<linearGradient id="g7" x2="1" gradientUnits="userSpaceOnUse" gradientTransform="matrix(22.673,-1686.768,1240.532,16.675,408.725,4382.485)">
			<stop offset="0" stop-color="#444b8c"/>
			<stop offset=".996" stop-color="#26264f"/>
		</linearGradient>
		<linearGradient id="g8" x2="1" gradientUnits="userSpaceOnUse" gradientTransform="matrix(22.593,-1680.821,1232.282,16.564,463.792,4372.53)">
			<stop offset="0" stop-color="#aa80f9"/>
			<stop offset=".996" stop-color="#6165d7"/>
		</linearGradient>
		<linearGradient id="g9" x2="1" gradientUnits="userSpaceOnUse" gradientTransform="matrix(913.916,0,0,365.547,898.19,1694.032)">
			<stop offset="0" stop-color="#aa80f9"/>
			<stop offset=".996" stop-color="#6165d7"/>
		</linearGradient>
		<linearGradient id="g10" x2="1" gradientUnits="userSpaceOnUse" gradientTransform="matrix(913.39,0,0,195.476,898.186,1921.284)">
			<stop offset="0" stop-color="#aa80f9"/>
			<stop offset=".996" stop-color="#6165d7"/>
		</linearGradient>
		<linearGradient id="g11" x2="1" gradientUnits="userSpaceOnUse" gradientTransform="matrix(-62.201,1418.162,-4365.436,-191.469,1407.324,1651.99)">
			<stop offset=".004" stop-color="#e38ddd"/>
			<stop offset="1" stop-color="#9571f6"/>
		</linearGradient>
		<linearGradient id="g12" x2="1" gradientUnits="userSpaceOnUse" gradientTransform="matrix(-12.298,280.393,-105.039,-4.607,1713.804,1810.716)">
			<stop offset="0" stop-color="#311944"/>
			<stop offset="1" stop-color="#a03976"/>
		</linearGradient>
		<linearGradient id="g13" x2="1" gradientUnits="userSpaceOnUse" gradientTransform="matrix(-12.309,280.638,-103.856,-4.555,1783.965,1809.565)">
			<stop offset="0" stop-color="#311944"/>
			<stop offset="1" stop-color="#a03976"/>
		</linearGradient>
		<linearGradient id="g14" x2="1" gradientUnits="userSpaceOnUse" gradientTransform="matrix(-13.163,300.111,-105.16,-4.612,1724.499,1884.78)">
			<stop offset="0" stop-color="#311944"/>
			<stop offset="1" stop-color="#a03976"/>
		</linearGradient>
		<linearGradient id="g15" x2="1" gradientUnits="userSpaceOnUse" gradientTransform="matrix(-14.041,320.12,-104.306,-4.575,1806.54,1878.932)">
			<stop offset="0" stop-color="#311944"/>
			<stop offset="1" stop-color="#a03976"/>
		</linearGradient>
		<linearGradient id="g16" x2="1" gradientUnits="userSpaceOnUse" gradientTransform="matrix(-257.563,-11.297,4.711,-107.404,1717.695,1882.407)">
			<stop offset="0" stop-color="#311944"/>
			<stop offset="1" stop-color="#a03976"/>
		</linearGradient>
		<linearGradient id="g17" x2="1" gradientUnits="userSpaceOnUse" gradientTransform="matrix(-277.146,-12.156,4.823,-109.973,1719.038,2038.18)">
			<stop offset="0" stop-color="#311944"/>
			<stop offset="1" stop-color="#a03976"/>
		</linearGradient>
		<linearGradient id="g18" x2="1" gradientUnits="userSpaceOnUse" gradientTransform="matrix(-1546.071,860.066,-651.024,-1170.293,1913.084,1799.557)">
			<stop offset="0" stop-color="#444b8c"/>
			<stop offset=".996" stop-color="#3e4177"/>
		</linearGradient>
		<linearGradient id="g19" x2="1" gradientUnits="userSpaceOnUse" gradientTransform="matrix(-1498.516,833.611,-634.485,-1140.563,1930.416,1902.136)">
			<stop offset="0" stop-color="#444b8c"/>
			<stop offset=".996" stop-color="#3e4177"/>
		</linearGradient>
		<linearGradient id="g20" x2="1" gradientUnits="userSpaceOnUse" gradientTransform="matrix(-1454.778,809.28,-619.212,-1113.108,1945.518,1998.502)">
			<stop offset="0" stop-color="#444b8c"/>
			<stop offset=".996" stop-color="#3e4177"/>
		</linearGradient>
		<linearGradient id="g21" x2="1" gradientUnits="userSpaceOnUse" gradientTransform="matrix(-1411.645,785.285,-604.093,-1085.929,1971.296,2089.015)">
			<stop offset="0" stop-color="#444b8c"/>
			<stop offset=".996" stop-color="#3e4177"/>
		</linearGradient>
		<linearGradient id="g22" x2="1" gradientUnits="userSpaceOnUse" gradientTransform="matrix(-1551.457,863.062,-642.036,-1154.137,1990.656,1912.417)">
			<stop offset="0" stop-color="#444b8c"/>
			<stop offset=".996" stop-color="#3e4177"/>
		</linearGradient>
		<linearGradient id="g23" x2="1" gradientUnits="userSpaceOnUse" gradientTransform="matrix(-1503.732,836.513,-625.808,-1124.964,2004.869,2013.944)">
			<stop offset="0" stop-color="#444b8c"/>
			<stop offset=".996" stop-color="#3e4177"/>
		</linearGradient>
		<linearGradient id="g24" x2="1" gradientUnits="userSpaceOnUse" gradientTransform="matrix(-1459.839,812.096,-610.819,-1098.021,2017.094,2109.31)">
			<stop offset="0" stop-color="#444b8c"/>
			<stop offset=".996" stop-color="#3e4177"/>
		</linearGradient>
		<linearGradient id="g25" x2="1" gradientUnits="userSpaceOnUse" gradientTransform="matrix(-1416.551,788.015,-595.995,-1071.372,2040.066,2198.785)">
			<stop offset="0" stop-color="#444b8c"/>
			<stop offset=".996" stop-color="#3e4177"/>
		</linearGradient>
		<linearGradient id="g26" x2="1" gradientUnits="userSpaceOnUse" gradientTransform="matrix(-1556.758,866.011,-633.326,-1138.48,2068.685,2021.263)">
			<stop offset="0" stop-color="#444b8c"/>
			<stop offset=".996" stop-color="#3e4177"/>
		</linearGradient>
		<linearGradient id="g27" x2="1" gradientUnits="userSpaceOnUse" gradientTransform="matrix(-1508.867,839.37,-617.415,-1109.877,2079.781,2121.807)">
			<stop offset="0" stop-color="#444b8c"/>
			<stop offset=".996" stop-color="#3e4177"/>
		</linearGradient>
		<linearGradient id="g28" x2="1" gradientUnits="userSpaceOnUse" gradientTransform="matrix(-1464.821,814.867,-602.716,-1083.455,2089.124,2216.242)">
			<stop offset="0" stop-color="#444b8c"/>
			<stop offset=".996" stop-color="#3e4177"/>
		</linearGradient>
		<linearGradient id="g29" x2="1" gradientUnits="userSpaceOnUse" gradientTransform="matrix(-1421.381,790.701,-588.177,-1057.318,2109.285,2304.746)">
			<stop offset="0" stop-color="#444b8c"/>
			<stop offset=".996" stop-color="#3e4177"/>
		</linearGradient>
		<linearGradient id="g30" x2="1" gradientUnits="userSpaceOnUse" gradientTransform="matrix(-1561.937,868.892,-624.893,-1123.319,2147.13,2126.117)">
			<stop offset="0" stop-color="#444b8c"/>
			<stop offset=".996" stop-color="#3e4177"/>
		</linearGradient>
		<linearGradient id="g31" x2="1" gradientUnits="userSpaceOnUse" gradientTransform="matrix(-1513.887,842.162,-609.298,-1095.286,2155.112,2225.746)">
			<stop offset="0" stop-color="#444b8c"/>
			<stop offset=".996" stop-color="#3e4177"/>
		</linearGradient>
		<linearGradient id="g32" x2="1" gradientUnits="userSpaceOnUse" gradientTransform="matrix(-1469.693,817.577,-594.879,-1069.365,2161.583,2319.311)">
			<stop offset="0" stop-color="#444b8c"/>
			<stop offset=".996" stop-color="#3e4177"/>
		</linearGradient>
		<linearGradient id="g33" x2="1" gradientUnits="userSpaceOnUse" gradientTransform="matrix(-1567.482,871.976,-615.922,-1107.194,2226.375,2241.242)">
			<stop offset="0" stop-color="#444b8c"/>
			<stop offset=".996" stop-color="#3e4177"/>
		</linearGradient>
		<linearGradient id="g34" x2="1" gradientUnits="userSpaceOnUse" gradientTransform="matrix(-1519.262,845.152,-600.644,-1079.73,2231.169,2339.81)">
			<stop offset="0" stop-color="#444b8c"/>
			<stop offset=".996" stop-color="#3e4177"/>
		</linearGradient>
		<linearGradient id="g35" x2="1" gradientUnits="userSpaceOnUse" gradientTransform="matrix(-1474.912,820.48,-586.51,-1054.322,2234.695,2432.367)">
			<stop offset="0" stop-color="#444b8c"/>
			<stop offset=".996" stop-color="#3e4177"/>
		</linearGradient>
		<linearGradient id="g36" x2="1" gradientUnits="userSpaceOnUse" gradientTransform="matrix(-1401.904,779.867,-816.562,-1467.868,2273.834,2593.166)">
			<stop offset="0" stop-color="#444b8c"/>
			<stop offset=".996" stop-color="#3e4177"/>
		</linearGradient>
		<linearGradient id="g37" x2="1" gradientUnits="userSpaceOnUse" gradientTransform="matrix(-24.211,552.009,-992.224,-43.519,1086.746,2123.715)">
			<stop offset="0" stop-color="#444b8c"/>
			<stop offset=".996" stop-color="#26264f"/>
		</linearGradient>
		<linearGradient id="g38" x2="1" gradientUnits="userSpaceOnUse" gradientTransform="matrix(-23.749,541.47,-958.894,-42.057,1300.559,2115.75)">
			<stop offset="0" stop-color="#444b8c"/>
			<stop offset=".996" stop-color="#26264f"/>
		</linearGradient>
		<linearGradient id="g39" x2="1" gradientUnits="userSpaceOnUse" gradientTransform="matrix(-23.289,530.97,-926.13,-40.62,1514.424,2107.776)">
			<stop offset="0" stop-color="#444b8c"/>
			<stop offset=".996" stop-color="#26264f"/>
		</linearGradient>
		<linearGradient id="g40" x2="1" gradientUnits="userSpaceOnUse" gradientTransform="matrix(-22.845,520.865,-895.018,-39.256,1721.089,2100.063)">
			<stop offset="0" stop-color="#444b8c"/>
			<stop offset=".996" stop-color="#26264f"/>
		</linearGradient>
		<linearGradient id="g41" x2="1" gradientUnits="userSpaceOnUse" gradientTransform="matrix(-24.591,560.665,-990.702,-43.452,1087.598,2276.93)">
			<stop offset="0" stop-color="#444b8c"/>
			<stop offset=".996" stop-color="#26264f"/>
		</linearGradient>
		<linearGradient id="g42" x2="1" gradientUnits="userSpaceOnUse" gradientTransform="matrix(-24.116,549.834,-957.454,-41.994,1301.288,2266.419)">
			<stop offset="0" stop-color="#444b8c"/>
			<stop offset=".996" stop-color="#26264f"/>
		</linearGradient>
		<linearGradient id="g43" x2="1" gradientUnits="userSpaceOnUse" gradientTransform="matrix(-23.643,539.047,-924.771,-40.561,1515.034,2255.896)">
			<stop offset="0" stop-color="#444b8c"/>
			<stop offset=".996" stop-color="#26264f"/>
		</linearGradient>
		<linearGradient id="g44" x2="1" gradientUnits="userSpaceOnUse" gradientTransform="matrix(-23.188,528.67,-893.735,-39.199,1721.588,2245.719)">
			<stop offset="0" stop-color="#444b8c"/>
			<stop offset=".996" stop-color="#26264f"/>
		</linearGradient>
		<linearGradient id="g45" x2="1" gradientUnits="userSpaceOnUse" gradientTransform="matrix(-24.964,569.18,-989.235,-43.388,1088.45,2426.425)">
			<stop offset="0" stop-color="#444b8c"/>
			<stop offset=".996" stop-color="#26264f"/>
		</linearGradient>
		<linearGradient id="g46" x2="1" gradientUnits="userSpaceOnUse" gradientTransform="matrix(-24.477,558.061,-956.067,-41.933,1302.021,2413.432)">
			<stop offset="0" stop-color="#444b8c"/>
			<stop offset=".996" stop-color="#26264f"/>
		</linearGradient>
		<linearGradient id="g47" x2="1" gradientUnits="userSpaceOnUse" gradientTransform="matrix(-23.991,546.993,-923.462,-40.503,1515.65,2400.426)">
			<stop offset="0" stop-color="#444b8c"/>
			<stop offset=".996" stop-color="#26264f"/>
		</linearGradient>
		<linearGradient id="g48" x2="1" gradientUnits="userSpaceOnUse" gradientTransform="matrix(-23.524,536.347,-892.496,-39.145,1722.095,2387.848)">
			<stop offset="0" stop-color="#444b8c"/>
			<stop offset=".996" stop-color="#26264f"/>
		</linearGradient>
		<linearGradient id="g49" x2="1" gradientUnits="userSpaceOnUse" gradientTransform="matrix(-25.329,577.496,-987.854,-43.328,1089.298,2572.217)">
			<stop offset="0" stop-color="#444b8c"/>
			<stop offset=".996" stop-color="#26264f"/>
		</linearGradient>
		<linearGradient id="g50" x2="1" gradientUnits="userSpaceOnUse" gradientTransform="matrix(-24.829,566.102,-954.757,-41.876,1302.75,2556.805)">
			<stop offset="0" stop-color="#444b8c"/>
			<stop offset=".996" stop-color="#26264f"/>
		</linearGradient>
		<linearGradient id="g51" x2="1" gradientUnits="userSpaceOnUse" gradientTransform="matrix(-24.332,554.762,-922.218,-40.449,1516.266,2541.378)">
			<stop offset="0" stop-color="#444b8c"/>
			<stop offset=".996" stop-color="#26264f"/>
		</linearGradient>
		<linearGradient id="g52" x2="1" gradientUnits="userSpaceOnUse" gradientTransform="matrix(-25.72,586.403,-986.355,-43.262,1090.22,2728.526)">
			<stop offset="0" stop-color="#444b8c"/>
			<stop offset=".996" stop-color="#26264f"/>
		</linearGradient>
		<linearGradient id="g53" x2="1" gradientUnits="userSpaceOnUse" gradientTransform="matrix(-25.207,574.713,-953.351,-41.814,1303.547,2710.522)">
			<stop offset="0" stop-color="#444b8c"/>
			<stop offset=".996" stop-color="#26264f"/>
		</linearGradient>
		<linearGradient id="g54" x2="1" gradientUnits="userSpaceOnUse" gradientTransform="matrix(-24.697,563.083,-920.899,-40.391,1516.94,2692.502)">
			<stop offset="0" stop-color="#444b8c"/>
			<stop offset=".996" stop-color="#26264f"/>
		</linearGradient>
		<linearGradient id="g55" x2="1" gradientUnits="userSpaceOnUse" gradientTransform="matrix(-60.223,1373.067,-916.302,-40.189,1890.531,2462.158)">
			<stop offset="0" stop-color="#444b8c"/>
			<stop offset=".996" stop-color="#26264f"/>
		</linearGradient>
		<linearGradient id="g56" x2="1" gradientUnits="userSpaceOnUse" gradientTransform="matrix(27.929,355.464,-878.005,68.986,2627.937,2750.572)">
			<stop offset=".004" stop-color="#26264f"/>
			<stop offset="1" stop-color="#444b8c"/>
		</linearGradient>
		<linearGradient id="g57" x2="1" gradientUnits="userSpaceOnUse" gradientTransform="matrix(-3.966,-287.553,203.933,-2.813,2638.748,2953.635)">
			<stop offset="0" stop-color="#ab316d"/>
			<stop offset="1" stop-color="#792d3d"/>
		</linearGradient>
		<linearGradient id="g58" x2="1" gradientUnits="userSpaceOnUse" gradientTransform="matrix(24.146,307.308,-281.867,22.147,3081.758,2741.741)">
			<stop offset=".004" stop-color="#26264f"/>
			<stop offset="1" stop-color="#444b8c"/>
		</linearGradient>
		<linearGradient id="g59" x2="1" gradientUnits="userSpaceOnUse" gradientTransform="matrix(-3.96,-287.104,198.498,-2.738,2997.463,2948.916)">
			<stop offset="0" stop-color="#ab316d"/>
			<stop offset="1" stop-color="#792d3d"/>
		</linearGradient>
		<linearGradient id="g60" x2="1" gradientUnits="userSpaceOnUse" gradientTransform="matrix(209.616,0,0,851.696,2604.006,2067.752)">
			<stop offset="0" stop-color="#311944"/>
			<stop offset="1" stop-color="#6b3976"/>
		</linearGradient>
		<linearGradient id="g61" x2="1" gradientUnits="userSpaceOnUse" gradientTransform="matrix(195.121,0,0,851.699,2618.501,2067.749)">
			<stop offset=".004" stop-color="#26264f"/>
			<stop offset="1" stop-color="#444b8c"/>
		</linearGradient>
		<linearGradient id="g62" x2="1" gradientUnits="userSpaceOnUse" gradientTransform="matrix(421.997,0,0,835.005,2662.202,2055.423)">
			<stop offset="0" stop-color="#311944"/>
			<stop offset="1" stop-color="#6b3976"/>
		</linearGradient>
		<linearGradient id="g63" x2="1" gradientUnits="userSpaceOnUse" gradientTransform="matrix(124.748,348.714,-133.319,47.693,2146.983,1257.139)">
			<stop offset="0" stop-color="#ab316d"/>
			<stop offset="1" stop-color="#792d3d"/>
		</linearGradient>
		<linearGradient id="g64" x2="1" gradientUnits="userSpaceOnUse" gradientTransform="matrix(232.169,878.16,-736.315,194.668,2761.221,1468.584)">
			<stop offset="0" stop-color="#aa80f9"/>
			<stop offset=".996" stop-color="#6165d7"/>
		</linearGradient>
		<linearGradient id="g65" x2="1" gradientUnits="userSpaceOnUse" gradientTransform="matrix(162.956,-3.553,6.613,303.294,2850.238,1631.609)">
			<stop offset="0" stop-color="#aa80f9"/>
			<stop offset=".996" stop-color="#6165d7"/>
		</linearGradient>
		<linearGradient id="g66" x2="1" gradientUnits="userSpaceOnUse" gradientTransform="matrix(162.955,-3.553,6.613,303.294,2839.548,1631.842)">
			<stop offset="0" stop-color="#aa80f9"/>
			<stop offset=".996" stop-color="#6165d7"/>
		</linearGradient>
		<linearGradient id="g67" x2="1" gradientUnits="userSpaceOnUse" gradientTransform="matrix(234.599,887.349,-633.815,167.569,3305.031,1258.445)">
			<stop offset="0" stop-color="#aa80f9"/>
			<stop offset=".996" stop-color="#6165d7"/>
		</linearGradient>
		<linearGradient id="g68" x2="1" gradientUnits="userSpaceOnUse" gradientTransform="matrix(86.9,131.664,-165.929,109.516,2748.978,1473.619)">
			<stop offset="0" stop-color="#ff9085"/>
			<stop offset="1" stop-color="#fb6fbb"/>
		</linearGradient>
		<linearGradient id="g69" x2="1" gradientUnits="userSpaceOnUse" gradientTransform="matrix(-40.652,164.433,-113.12,-27.966,2932.758,1488.815)">
			<stop offset="0" stop-color="#ab316d"/>
			<stop offset="1" stop-color="#792d3d"/>
		</linearGradient>
		<linearGradient id="g70" x2="1" gradientUnits="userSpaceOnUse" gradientTransform="matrix(-0.628,158.39,-128.839,-0.511,2782.899,1441.814)">
			<stop offset="0" stop-color="#ab316d"/>
			<stop offset="1" stop-color="#792d3d"/>
		</linearGradient>
		<linearGradient id="g71" x2="1" gradientUnits="userSpaceOnUse" gradientTransform="matrix(226.545,856.886,-577.764,152.75,3175.17,1312.38)">
			<stop offset="0" stop-color="#aa80f9"/>
			<stop offset=".996" stop-color="#6165d7"/>
		</linearGradient>
		<linearGradient id="g72" x2="1" gradientUnits="userSpaceOnUse" gradientTransform="matrix(-394.492,126.604,-133.512,-416.014,1104.17,1653.956)">
			<stop offset="0" stop-color="#fcb148"/>
			<stop offset=".318" stop-color="#ffc444"/>
			<stop offset=".866" stop-color="#f8924f"/>
			<stop offset="1" stop-color="#f8924f"/>
		</linearGradient>
		<linearGradient id="g73" x2="1" gradientUnits="userSpaceOnUse" gradientTransform="matrix(-370.644,817.71,-849.39,-385.004,1643.818,1073.06)">
			<stop offset="0" stop-color="#ffdb44"/>
			<stop offset="1" stop-color="#feef06"/>
		</linearGradient>
		<linearGradient id="g74" x2="1" gradientUnits="userSpaceOnUse" gradientTransform="matrix(-60.639,-331.269,318.164,-58.24,937.434,1765.798)">
			<stop offset="0" stop-color="#fcb148"/>
			<stop offset=".318" stop-color="#ffc444"/>
			<stop offset=".866" stop-color="#f8924f"/>
			<stop offset="1" stop-color="#f8924f"/>
		</linearGradient>
		<linearGradient id="g75" x2="1" gradientUnits="userSpaceOnUse" gradientTransform="matrix(281.949,598.524,-562.238,264.856,1400.113,1019.779)">
			<stop offset="0" stop-color="#fcb148"/>
			<stop offset=".318" stop-color="#ffc444"/>
			<stop offset=".866" stop-color="#f8924f"/>
			<stop offset="1" stop-color="#f8924f"/>
		</linearGradient>
		<linearGradient id="g76" x2="1" gradientUnits="userSpaceOnUse" gradientTransform="matrix(126.682,474.781,-328.191,87.568,1468.642,959.656)">
			<stop offset="0" stop-color="#ffdb44"/>
			<stop offset="1" stop-color="#feef06"/>
		</linearGradient>
		<linearGradient id="g77" x2="1" gradientUnits="userSpaceOnUse" gradientTransform="matrix(250.341,531.427,-357.882,168.589,1448.213,974.5)">
			<stop offset="0" stop-color="#fcb148"/>
			<stop offset=".318" stop-color="#ffc444"/>
			<stop offset=".866" stop-color="#f8924f"/>
			<stop offset="1" stop-color="#f8924f"/>
		</linearGradient>
		<linearGradient id="g78" x2="1" gradientUnits="userSpaceOnUse" gradientTransform="matrix(-473.644,152.006,-160.3,-499.484,1450.898,1140.143)">
			<stop offset="0" stop-color="#fcb148"/>
			<stop offset=".318" stop-color="#ffc444"/>
			<stop offset=".866" stop-color="#f8924f"/>
			<stop offset="1" stop-color="#f8924f"/>
		</linearGradient>
		<linearGradient id="g79" x2="1" gradientUnits="userSpaceOnUse" gradientTransform="matrix(-445.011,981.778,-1019.813,-462.252,2098.822,442.695)">
			<stop offset="0" stop-color="#ffdb44"/>
			<stop offset="1" stop-color="#feef06"/>
		</linearGradient>
		<linearGradient id="g80" x2="1" gradientUnits="userSpaceOnUse" gradientTransform="matrix(-72.806,-397.735,382.001,-69.926,1250.707,1274.425)">
			<stop offset="0" stop-color="#fcb148"/>
			<stop offset=".318" stop-color="#ffc444"/>
			<stop offset=".866" stop-color="#f8924f"/>
			<stop offset="1" stop-color="#f8924f"/>
		</linearGradient>
		<linearGradient id="g81" x2="1" gradientUnits="userSpaceOnUse" gradientTransform="matrix(338.52,718.613,-675.047,317.997,1806.219,378.723)">
			<stop offset="0" stop-color="#fcb148"/>
			<stop offset=".318" stop-color="#ffc444"/>
			<stop offset=".866" stop-color="#f8924f"/>
			<stop offset="1" stop-color="#f8924f"/>
		</linearGradient>
		<linearGradient id="g82" x2="1" gradientUnits="userSpaceOnUse" gradientTransform="matrix(152.1,570.042,-394.04,105.138,1888.497,306.537)">
			<stop offset="0" stop-color="#ffdb44"/>
			<stop offset="1" stop-color="#feef06"/>
		</linearGradient>
		<linearGradient id="g83" x2="1" gradientUnits="userSpaceOnUse" gradientTransform="matrix(300.571,638.054,-429.688,202.415,1863.971,324.359)">
			<stop offset="0" stop-color="#fcb148"/>
			<stop offset=".318" stop-color="#ffc444"/>
			<stop offset=".866" stop-color="#f8924f"/>
			<stop offset="1" stop-color="#f8924f"/>
		</linearGradient>
	</defs>
	<style>
		.s0 { fill: #f4f7fa } 
		.s1 { fill: url(#g1) } 
		.s2 { fill: #fcfdfe } 
		.s3 { fill: url(#g2) } 
		.s4 { fill: url(#g3) } 
		.s5 { fill: url(#g4) } 
		.s6 { fill: #d8dee8 } 
		.s7 { opacity: .3;mix-blend-mode: multiply;fill: url(#g5) } 
		.s8 { fill: #ffffff } 
		.s9 { opacity: .3;mix-blend-mode: multiply;fill: #97a6b7 } 
		.s10 { fill: url(#g6) } 
		.s11 { fill: #97a6b7 } 
		.s12 { opacity: .5;mix-blend-mode: soft-light;fill: #ffffff } 
		.s13 { opacity: .5;fill: #d8dee8 } 
		.s14 { fill: url(#g7) } 
		.s15 { fill: url(#g8) } 
		.s16 { fill: url(#g9) } 
		.s17 { fill: url(#g10) } 
		.s18 { fill: url(#g11) } 
		.s19 { opacity: .3;fill: url(#g12) } 
		.s20 { opacity: .3;fill: url(#g13) } 
		.s21 { fill: url(#g14) } 
		.s22 { fill: url(#g15) } 
		.s23 { fill: url(#g16) } 
		.s24 { fill: url(#g17) } 
		.s25 { opacity: .3;mix-blend-mode: soft-light;fill: #ffffff } 
		.s26 { fill: url(#g18) } 
		.s27 { fill: url(#g19) } 
		.s28 { fill: url(#g20) } 
		.s29 { fill: url(#g21) } 
		.s30 { fill: url(#g22) } 
		.s31 { fill: url(#g23) } 
		.s32 { fill: url(#g24) } 
		.s33 { fill: url(#g25) } 
		.s34 { fill: url(#g26) } 
		.s35 { fill: url(#g27) } 
		.s36 { fill: url(#g28) } 
		.s37 { fill: url(#g29) } 
		.s38 { fill: url(#g30) } 
		.s39 { fill: url(#g31) } 
		.s40 { fill: url(#g32) } 
		.s41 { fill: url(#g33) } 
		.s42 { fill: url(#g34) } 
		.s43 { fill: url(#g35) } 
		.s44 { fill: url(#g36) } 
		.s45 { fill: url(#g37) } 
		.s46 { fill: url(#g38) } 
		.s47 { fill: url(#g39) } 
		.s48 { fill: url(#g40) } 
		.s49 { fill: url(#g41) } 
		.s50 { fill: url(#g42) } 
		.s51 { fill: url(#g43) } 
		.s52 { fill: url(#g44) } 
		.s53 { fill: url(#g45) } 
		.s54 { fill: url(#g46) } 
		.s55 { fill: url(#g47) } 
		.s56 { fill: url(#g48) } 
		.s57 { fill: url(#g49) } 
		.s58 { fill: url(#g50) } 
		.s59 { fill: url(#g51) } 
		.s60 { fill: url(#g52) } 
		.s61 { fill: url(#g53) } 
		.s62 { fill: url(#g54) } 
		.s63 { fill: url(#g55) } 
		.s64 { fill: url(#g56) } 
		.s65 { fill: url(#g57) } 
		.s66 { fill: url(#g58) } 
		.s67 { fill: url(#g59) } 
		.s68 { fill: url(#g60) } 
		.s69 { opacity: .3;mix-blend-mode: multiply;fill: url(#g61) } 
		.s70 { fill: url(#g62) } 
		.s71 { fill: url(#g63) } 
		.s72 { fill: url(#g64) } 
		.s73 { fill: url(#g65) } 
		.s74 { opacity: .3;mix-blend-mode: multiply;fill: url(#g66) } 
		.s75 { fill: url(#g67) } 
		.s76 { fill: url(#g68) } 
		.s77 { fill: url(#g69) } 
		.s78 { fill: url(#g70) } 
		.s79 { fill: #26264f } 
		.s80 { fill: url(#g71) } 
		.s81 { fill: url(#g72) } 
		.s82 { fill: url(#g73) } 
		.s83 { fill: url(#g74) } 
		.s84 { fill: url(#g75) } 
		.s85 { fill: url(#g76) } 
		.s86 { opacity: .3;mix-blend-mode: multiply;fill: url(#g77) } 
		.s87 { fill: url(#g78) } 
		.s88 { fill: url(#g79) } 
		.s89 { fill: url(#g80) } 
		.s90 { fill: url(#g81) } 
		.s91 { fill: url(#g82) } 
		.s92 { opacity: .3;mix-blend-mode: multiply;fill: url(#g83) } 
	</style>
	<g id="Illustration">
		<g id="&lt;Group&gt;">
			<path id="&lt;Path&gt;" class="s0" d="m2047.75 201.83c-689.6-20.94-1286.94 493.63-1377.19 1168.81-98.67 738.22 444.41 1402.45 1112.65 1508.83 831.18 132.33 1637.38-633.19 1564.99-1463.66-54.54-625.69-599.46-1192.69-1300.45-1213.98z"/>
			<g id="&lt;Group&gt;">
				<g id="&lt;Group&gt;">
					<path id="&lt;Path&gt;" class="s1" d="m2830.49 1771.48c-15.56-1.25-48.31-17.7-55.08-25.5-45.06-51.96-135.74-143.75-134.97-216.45 0.13-12.42 54.91-26.58 62.11-38.32 32.73-17.5 45.18-21.55 68.12-53.48 67.72-94.26-104.95-256.79 83.49-325.94 138.04-50.65 258.74-8.09 233.17-224.93-25.58-216.85 127.82-621.64 364.89-480.96 136.05 80.74 11.13 272.22 85.56 405.41 70.73 126.58 20.9 235.99-113.11 320.47-134.01 84.48-57.53 140.76-11.54 262.06 55.23 145.72-171.23 182.94-277.24 191.2-85.38 6.66-298.27 81.2-305.4 186.44z"/>
					<g id="&lt;Clip Group&gt;" clip-path="url(#cp1)">
						<g id="&lt;Group&gt;">
							<path id="&lt;Path&gt;" class="s2" d="m2710.21 1644l-1.7-3.1c225.28-123.57 406.63-312.81 524.45-547.26 112.1-223.09 165.57-482.73 154.63-750.85l3.54-0.14c10.97 268.71-42.64 528.95-155.01 752.58-118.14 235.1-300 424.86-525.91 548.77z"/>
							<path id="&lt;Path&gt;" class="s2" d="m2947.98 1473.12l-1.19-3.34c138.71-49.06 361.73-58.62 497.15-21.31l-0.94 3.41c-134.83-37.14-356.9-27.62-495.02 21.24z"/>
							<path id="&lt;Path&gt;" class="s2" d="m2797.71 1594.7l-2.5-2.51c53.99-53.68 78.77-132.6 73.65-234.56-3.76-74.77-23.21-159.97-57.81-253.22l3.32-1.23c34.73 93.59 54.25 179.14 58.02 254.27 5.18 103.01-19.95 182.83-74.68 237.25z"/>
							<path id="&lt;Path&gt;" class="s2" d="m3250.82 1062.89l-2.62-2.38c96.63-106.48 243.87-140.82 350.38-150.88l0.34 3.52c-105.89 10-252.24 44.1-348.1 149.74z"/>
							<path id="&lt;Path&gt;" class="s2" d="m3357.16 751.39l-3.54-0.09c1.68-69.47-16.29-209.56-155.53-367.18l2.66-2.35c140.03 158.53 158.1 299.62 156.41 369.62z"/>
						</g>
					</g>
				</g>
			</g>
			<g id="&lt;Group&gt;">
				<g id="&lt;Clip Group&gt;" clip-path="url(#cp2)">
					<path id="&lt;Path&gt;" class="s3" d="m2989.01 1745.89q-111.6 3.12-223.76 1.2c-0.99 1.27-52.46-152.18 7.88-248 119.91-186.15-5.07-312.35-48.48-392.51-66.16-112.08-65.29-246.18 56.5-269.57 134.62-28.59 119.78-257.11 59.38-456.76-36.46-96.13 36.18-233.31 124.99-277.35 90.23-47.36 196.64-1.58 260.72 191.55 84.61 221.78-58.59 389.66-100.4 515.65-41.19 123.71 116.88 190.17 20.18 310.37-80.5 105.84-190.43 191.08-126.47 295.03 64.95 102.46 69.92 194.69-30.54 330.39z"/>
					<g id="&lt;Group&gt;">
						<path id="&lt;Path&gt;" class="s2" d="m2890.46 1772.82c-0.27-1.4 10.72-345.11 73.52-689.01 7.32-55.15 15.98-111.01 24.36-165.04 22.44-144.62 45.63-294.17 43.73-438.67-2.12-161.5-36.05-301.33-103.73-427.47l3.12-1.68c67.96 126.66 102.03 267.02 104.16 429.1 1.9 144.8-21.32 294.5-43.78 439.27-8.38 54-17.04 109.84-24.36 165.04-62.63 342.98-73.68 685.9-73.52 687.91z"/>
						<path id="&lt;Path&gt;" class="s2" d="m3029.19 639.97l-3-1.88c65.05-104.01 140.15-248.8 180.5-326.58 32.52-62.7 32.78-62.7 34.74-62.74l0.07 3.54-0.04-1.77 1.03 1.4c-1.93 1.97-15.49 28.11-32.66 61.2-40.37 77.83-115.51 222.69-180.64 326.83z"/>
						<path id="&lt;Path&gt;" class="s2" d="m3031.48 512.43c-64.81-186.15-200.28-242.01-211.6-242.01q-0.05 0-0.09 0l-0.04-1.32-1.57-1.64c0.82-0.78 2.01-0.67 3.91-0.22 29.46 7.09 151.9 69.29 212.74 244.03z"/>
						<path id="&lt;Path&gt;" class="s2" d="m2929.93 1307.14c-5.43-97.73-45.84-196.77-120.1-294.39-38.73-50.92-85.22-99.3-138.17-143.8-3.85-3.24-5.21-4.39-5.68-4.95l2.7-2.28c0.35 0.4 2.63 2.31 5.26 4.52 53.15 44.66 99.82 93.24 138.71 144.36 74.7 98.19 115.35 197.9 120.81 296.34z"/>
						<path id="&lt;Compound Path&gt;" fill-rule="evenodd" class="s2" d="m2948.4 1200.48l-3.29-1.31c62.23-155.68 243.55-197.69 245.77-197.69q0.01 0 0.01 0l1.59 1.41-0.9 1.92-0.83-1.54 0.16 1.73c-1.74 0.25-180.41 40.12-242.51 195.48zm241.49-198.78l0.84 1.55z"/>
						<path id="&lt;Path&gt;" class="s2" d="m2893.05 1716.52c-5.79-41.91-33.17-110.3-130.71-198.06-5.39-4.85-5.39-4.85-5.42-5.82l1.77-0.05 1.46-0.96c0.32 0.39 2.29 2.15 4.56 4.2 98.34 88.47 125.97 157.71 131.84 200.21z"/>
						<path id="&lt;Path&gt;" class="s2" d="m2901.16 1634.32l-3.52-0.38c3.62-33.38 28.9-101.97 157.48-186.3 1.77-1.16 2.91-1.91 3.31-2.21l2.14 2.82c-0.43 0.32-1.63 1.12-3.51 2.35-127.36 83.54-152.34 150.97-155.9 183.72z"/>
					</g>
				</g>
			</g>
			<g id="&lt;Group&gt;">
				<g id="&lt;Group&gt;">
					<path id="&lt;Path&gt;" class="s4" d="m1727.95 2491.93c15.12-5.02 43.58-29.26 48.39-38.64 32.03-62.41 99.6-175.36 81.19-247.2-3.14-12.27-60.84-13.01-70.83-22.89-36.68-9.4-49.98-10.39-80.46-36.46-89.98-76.96 41.67-279.89-161.82-302.67-149.05-16.69-258.31 54.77-285.59-166.28-27.28-221.05-277.49-584.89-478.23-387.98-115.21 113.01 55.02 272.41 13.6 422.44-39.36 142.57 36.56 238.88 189.83 290.06 153.27 51.18 91.15 125.5 75.03 256.84-19.37 157.78 214.03 139.7 321.07 122.17 86.2-14.13 315.23 8.07 347.82 110.61z"/>
					<g id="&lt;Clip Group&gt;" clip-path="url(#cp3)">
						<g id="&lt;Group&gt;">
							<path id="&lt;Path&gt;" class="s2" d="m1816.19 2336.4c-253.88-67.94-480.1-211.82-654.19-416.08-165.6-194.29-281.85-439.11-336.19-708.01l3.47-0.7c54.22 268.31 170.21 512.58 335.41 706.41 173.63 203.71 399.23 347.2 652.42 414.96z"/>
							<path id="&lt;Path&gt;" class="s2" d="m1043.52 2323.87l-1.72-3.09c125.12-69.82 348.38-114.46 497.71-99.51l-0.36 3.52c-148.72-14.89-371.05 29.56-495.63 99.08z"/>
							<path id="&lt;Path&gt;" class="s2" d="m1717.56 2308.79c-67.43-40.63-111.69-113.61-131.55-216.91-14.5-75.35-15.91-164.85-4.22-266l3.52 0.41c-11.65 100.79-10.25 189.93 4.17 264.92 19.67 102.28 63.38 174.46 129.9 214.55z"/>
							<path id="&lt;Path&gt;" class="s2" d="m1139.58 1891.84c-120.63-81.41-273.91-79.68-381.24-63.89l-0.52-3.51c107.96-15.87 262.17-17.58 383.74 64.47z"/>
							<path id="&lt;Path&gt;" class="s2" d="m958.65 1609.04c-18.66-68.94-35-213.11 65.27-404.14l3.14 1.65c-99.71 189.96-83.52 333.13-65 401.56z"/>
						</g>
					</g>
				</g>
			</g>
			<g id="&lt;Group&gt;">
				<path id="&lt;Path&gt;" class="s5" d="m3024.74 476.81l-1827.75-105.73c-42.1-2.06-79.99 43.88-79.99 82.45v2353.56c0 53.5 54.64 64.26 96.74 59.96l1811-184.95c33.08-3.38 59.78-33.65 59.78-67.63v-2073.22c0-33.97-26.7-62.82-59.78-64.44z"/>
				<path id="&lt;Path&gt;" class="s6" d="m3054.8 458.12l-1831.36-90.09c-42.09-2.07-76.38 27.75-76.38 66.63v2371.94c0 38.88 34.29 66.86 76.38 62.53l1831.36-188.49c33.08-3.41 59.78-33.92 59.78-68.16v-2089.42c0-34.24-26.7-63.31-59.78-64.94z"/>
				<path id="&lt;Path&gt;" class="s7" d="m1223.44 2836.96c-22.71 2.3-41.22-12.88-41.22-33.82v-2366.9c0-20.95 18.51-37.12 41.22-36.05l1831.36 86.51c17.88 0.85 32.4 16.6 32.4 35.13v2093.35c0 18.53-14.52 35.07-32.4 36.87z"/>
				<path id="&lt;Path&gt;" class="s8" d="m2936.76 2595.92l-1566.36 150.91v-2183.66l1566.36 58.99z"/>
				<path id="&lt;Path&gt;" class="s9" d="m2310.26 632.85l-626 7.83 14.04-141.18c1.06-18.34 14.32-33.4 31.78-36.09l106.02-16.29c12.48-1.91 23.23-10.16 28.68-22.01l11.5-24.97 277.3 17.13z"/>
				<path id="&lt;Compound Path&gt;" fill-rule="evenodd" class="s10" d="m2668.12 668.04c1.92 10.32-6.91 20.71-17.33 20.36l-951.57-31.61c-11.8-0.39-18.47-12-13.05-22.74l66.12-131.2c8.27-16.43 25.91-26.9 43.88-26.1l109.73 4.92c48.83 2.19 94.81-32.15 107.01-79.68l28.18-109.89c5.21-20.29 24.73-34.7 45.27-33.48l33.9 2.03c17.72 1.06 35.81-8.06 46.13-24.62 3.69-5.93 5.96-12.57 6.95-19.29 6.65-45.21 48.35-79.34 93.03-76.3 44.33 3.02 74.92 41.55 68.78 86.19-3.52 25.55 13.17 47.64 38.23 49.14l32.86 1.96c19.65 1.17 33.95 17.22 33.24 37.24l-3.86 108.26c-1.67 46.72 31.61 83.6 77.02 85.64l100.03 4.48c16.12 0.72 28.92 11.93 31.89 27.91zm-388.13-456.34c1.9-13.2-7.15-24.6-20.22-25.45-13.11-0.85-25.29 9.19-27.19 22.43-1.91 13.25 7.19 24.64 20.29 25.45 13.09 0.81 25.22-9.23 27.12-22.43z"/>
				<path id="&lt;Compound Path&gt;" fill-rule="evenodd" class="s11" d="m2673.76 670.98c1.92 10.32-6.92 20.7-17.33 20.36l-951.57-31.61c-11.8-0.39-18.47-12-13.06-22.75l66.12-131.2c8.28-16.42 25.92-26.9 43.89-26.09l109.73 4.92c48.83 2.19 94.81-32.16 107-79.68l28.19-109.9c5.2-20.28 24.72-34.7 45.26-33.47l33.91 2.02c17.71 1.06 35.8-8.06 46.13-24.62 3.69-5.92 5.96-12.56 6.95-19.28 6.65-45.22 48.35-79.35 93.03-76.3 44.33 3.02 74.92 41.54 68.77 86.19-3.51 25.54 13.17 47.63 38.23 49.13l32.87 1.96c19.65 1.18 33.95 17.22 33.23 37.24l-3.86 108.26c-1.66 46.72 31.62 83.61 77.02 85.64l100.03 4.48c16.13 0.73 28.92 11.94 31.89 27.91zm-388.12-456.34c1.9-13.2-7.15-24.59-20.23-25.44-13.1-0.86-25.28 9.19-27.19 22.43-1.9 13.24 7.19 24.64 20.3 25.45 13.08 0.81 25.21-9.24 27.12-22.44z"/>
				<g id="&lt;Group&gt;">
					<path id="&lt;Path&gt;" class="s12" d="m2487.34 604.48c-84.88-52.4-150.01-15.24-202.91-74.34-56.63-63.27-18.43-146.56-77.03-185.86-37.51-25.16-70.98-2.97-114.61-9.78-15.97-2.5-33.02-8.85-50.74-21.22l-23.51 91.65c-12.19 47.52-58.17 81.86-107 79.68l-109.73-4.92c-17.97-0.81-35.61 9.67-43.89 26.09l-66.12 131.2c-5.41 10.75 1.26 22.36 13.06 22.75l864.78 28.72c-21.78-34.59-48.84-63.32-82.3-83.97z"/>
				</g>
				<g id="&lt;Group&gt;">
					<path id="&lt;Path&gt;" class="s11" d="m2494.86 906.11l-586.09-6.43v-70.32l586.09 9.02z"/>
					<g id="&lt;Group&gt;">
						<g id="&lt;Group&gt;">
							<path id="&lt;Path&gt;" class="s6" d="m1904.13 1664.79l-71.79 2.67v-632.96l71.79 0.18z"/>
							<path id="&lt;Path&gt;" class="s6" d="m2041.11 1659.7l-70.55 2.62v-431.23l70.55-0.7z"/>
							<path id="&lt;Path&gt;" class="s6" d="m2175.75 1654.71l-69.35 2.57v-540.18l69.35-0.19z"/>
							<path id="&lt;Path&gt;" class="s6" d="m2308.11 1649.79l-68.18 2.53v-426.43l68.18-0.67z"/>
							<path id="&lt;Path&gt;" class="s6" d="m2438.25 1644.96l-67.04 2.49v-307.07l67.04-1.15z"/>
							<path id="&lt;Path&gt;" class="s6" d="m2566.22 1640.21l-65.92 2.45v-606.5l65.92 0.16z"/>
							<path id="&lt;Path&gt;" class="s6" d="m2692.08 1635.53l-64.83 2.41v-180.69l64.83-1.63z"/>
							<path id="&lt;Path&gt;" class="s6" d="m2815.88 1630.94l-63.78 2.37v-478.7l63.78-0.34z"/>
						</g>
						<path id="&lt;Path&gt;" class="s6" d="m2815.88 1888.33l-1253.03 68.03v-66.1l1253.03-62.93z"/>
						<path id="&lt;Path&gt;" class="s6" d="m2815.88 1771.63l-1253.03 58.28v-66.1l1253.03-53.18z"/>
						<path id="&lt;Path&gt;" class="s6" d="m2815.88 2360.45l-1253.03 107.48v-66.11l1253.03-102.38z"/>
						<path id="&lt;Path&gt;" class="s13" d="m2043.34 2020.45v251.01l-496.08 37.67v-258.91z"/>
						<path id="&lt;Path&gt;" class="s6" d="m1547.26 2201.37v107.76l496.08-37.67v-194.5c-28.35-9.01-62.44-12.83-88.47 5.82-54.55 39.13-47.59 59.29-104.48 52.77-44.55-5.12-94.11-9.3-132.34 23.06-23.69 20.05-35.88 40.68-70.04 40.05-32.14-0.59-69.61-20.62-100.75 2.71z"/>
						<path id="&lt;Path&gt;" class="s6" d="m2815.88 2019.18l-656.1 41.35v-47.06l656.1-39.38z"/>
						<path id="&lt;Path&gt;" class="s6" d="m2815.88 2114.66l-656.1 45.53v-44.29l656.1-43.67z"/>
						<path id="&lt;Path&gt;" class="s6" d="m2815.88 2212.8l-656.1 49.82v-47.06l656.1-47.85z"/>
						<path id="&lt;Path&gt;" class="s6" d="m1715.49 1091.07l-155.83 0.14v-60.16l155.83 0.44z"/>
						<path id="&lt;Path&gt;" class="s6" d="m1715.49 1238.27l-155.83 1.57v-60.16l155.83-0.99z"/>
						<path id="&lt;Path&gt;" class="s6" d="m1715.49 1381.97l-155.83 2.96v-60.16l155.83-2.38z"/>
						<path id="&lt;Path&gt;" class="s6" d="m1715.49 1529.17l-155.83 4.39v-60.16l155.83-3.81z"/>
						<path id="&lt;Path&gt;" class="s6" d="m1715.49 1672.87l-155.83 5.78v-60.16l155.83-5.2z"/>
					</g>
				</g>
			</g>
			<g id="&lt;Group&gt;">
				<path id="&lt;Path&gt;" class="s14" d="m1760.61 1782.78l-2.94 993.53c-0.14 48.71-39.53 93.03-88.9 98.08l-726.34 74.35c-55.95 5.73-101.73-32.95-101.73-85.36v-1069.41c0-49.64 40.62-90.59 92.16-95.55 3.29-0.32 6.64-0.43 10-0.45l729.05-3.47c49.54-0.24 88.84 39.23 88.7 88.28z"/>
				<path id="&lt;Path&gt;" class="s15" d="m1812.1 1782.05l-3.04 990.46c-0.15 48.56-37.26 92.52-86.3 97.54l-721.38 73.84c-55.55 5.69-103.31-32.63-103.3-84.88l0.15-1065.84c0-49.47 41.48-90.29 92.67-95.24 3.27-0.31 7.73-0.43 11.07-0.44l724.08-3.46c49.21-0.23 86.2 39.12 86.05 88.02z"/>
				<g id="&lt;Group&gt;" style="opacity: .3;mix-blend-mode: multiply">
					<path id="&lt;Path&gt;" class="s16" d="m1812.11 1780.65l-0.77 248.92-913.15 30.01 0.04-267.92c0-48.29 39.59-87.6 89.05-94.06 4.42-0.59 10.1-0.09 14.69-0.11l724.08-3.46c49.21-0.23 86.21 37.72 86.06 86.62z"/>
					<path id="&lt;Path&gt;" class="s17" d="m1811.58 1953.07l-0.32 103.44c-88.59 28.02-251.64 50.68-438.73 57.89-82.63 3.19-162.51 3.08-234.7 0.09-96.13-3.99-177.31-13.07-239.64-25.93l0.01-111.32c23.46-5.77 45.02-11.13 70.6-16.18 55.6-10.98 122.54-20.23 195.69-27.03 65.35-6.1 136.28-10.22 209.43-11.91 94.14-2.17 181.55-0.05 256.67 5.46 5.84 0.42 11.67 0.88 17.36 1.34 17.97 1.47 35.23 3.14 51.63 5.01q8.72 0.98 17.12 2.04c12.86 1.62 23.91 3.38 35.62 5.24 22.44 3.54 42.34 7.51 59.26 11.86z"/>
				</g>
				<path id="&lt;Path&gt;" class="s8" d="m1767.4 1977.01c-0.05 14.8-12.1 27.16-26.95 27.62l-749.44 22.92c-16.8 0.51-30.46-11.87-30.45-27.66l0.06-178.99c0.01-15.81 13.68-28.8 30.5-29l749.96-9.12c14.86-0.18 26.85 11.69 26.81 26.51z"/>
				<path id="&lt;Path&gt;" class="s18" d="m1750.36 1973.74c-0.03 9.37-7.66 17.18-17.06 17.45l-745.76 21.97c-10.61 0.31-19.23-7.51-19.23-17.48l0.07-178.16c0-9.99 8.63-18.19 19.25-18.32l746.24-9.49c9.4-0.12 16.99 7.38 16.97 16.75z"/>
				<g id="&lt;Group&gt;">
					<g id="&lt;Group&gt;">
						<g id="&lt;Group&gt;">
							<path id="&lt;Path&gt;" class="s19" d="m1647.28 1874.48c-0.01 4.65-3.83 7.69-8.52 7.77h-0.4c-4.69 0.08-8.5-2.78-8.48-7.42l0.08-34.53c0.01-4.65 3.84-8.16 8.53-8.24l0.4-0.01c4.69-0.08 8.49 3.31 8.48 7.96z"/>
							<path id="&lt;Path&gt;" class="s20" d="m1716.39 1873.27c-0.02 4.61-3.79 7.78-8.43 7.85l-0.39 0.01c-4.64 0.08-8.4-2.9-8.39-7.53l0.1-34.42c0.01-4.63 3.79-8.22 8.43-8.3h0.39c4.64-0.08 8.39 3.39 8.38 8.01z"/>
						</g>
						<g id="&lt;Group&gt;" style="opacity: .3">
							<path id="&lt;Path&gt;" class="s21" d="m1647.08 1951.73c-0.01 4.64-3.82 9.32-8.51 9.39l-0.4 0.01c-4.69 0.07-8.49-4.31-8.48-8.95l0.08-35.53c0.02-4.64 3.84-9.23 8.53-9.3l0.4-0.01c4.69-0.07 8.48 4.27 8.47 8.92z"/>
							<path id="&lt;Path&gt;" class="s22" d="m1716.18 1950.34c-0.02 4.61-3.78 6.08-8.42 9.74l-0.39 0.01c-4.65 0.07-8.4-4.69-8.39-9.31l0.09-37.09c0.01-4.62 3.79-10.95 8.44-11.03h0.39c4.64-0.08 8.39 6.02 8.37 10.63z"/>
						</g>
					</g>
					<g id="&lt;Group&gt;">
						<g id="&lt;Group&gt;" style="opacity: .3">
							<path id="&lt;Path&gt;" class="s23" d="m1697.78 1819.41c0 4.62-3.02 8.46-7.67 8.53l-32.45 0.56c-4.69 0.07-5.92-3.64-5.92-8.28v-0.39c0-4.64 1.66-8.45 6.35-8.52l33.15-0.52c4.65-0.07 6.54 3.61 6.54 8.23z"/>
							<path id="&lt;Path&gt;" class="s24" d="m1697.78 1966.67c0 4.62-3.21 8.5-7.87 8.63l-34.11 0.97c-4.69 0.13-7.6-3.53-7.6-8.17v-0.39c0-4.64 3.24-8.47 7.93-8.6l34.12-0.95c4.65-0.12 7.53 3.5 7.53 8.12z"/>
						</g>
					</g>
				</g>
				<path id="&lt;Path&gt;" class="s25" d="m1428.43 2835.92c-2.97 16.57-7.85 33.33-15.18 49.19-2.61 5.63-5.56 11.51-8.79 17.52l-403.08 41.26c-55.55 5.69-103.31-32.63-103.3-84.88l0.15-1067.35c0-48.29 39.59-88.41 89.05-94.87 1.2 0.34 2.99 0.71 4.2 1.08 52.03 15.74 108.71 45.09 142.54 100 21.14 34.26 33.71 78.61 30.89 136.15-0.71 14.88-2.39 30.65-5.27 47.39q-2.5 14.58-5.06 29.78c-2.13 12.65-4.23 25.58-6.27 38.74-3.25 21.06-6.24 42.66-8.65 64.49-2.3 20.92-4.05 42.07-4.93 63.15q-0.25 6.11-0.4 12.22c-0.34 13.18-0.3 26.3 0.19 39.31q0.48 13.36 1.61 26.51c4.3 49.32 15.9 96.24 39.15 136.94 17.57 30.73 44.01 54.12 71.76 75.71 7.32 5.69 14.73 11.26 22.09 16.81 25.24 19.02 49.29 38.78 70.68 60.97q0.8 0.83 1.57 1.65c10.35 10.87 20.07 22.34 28.98 34.6 9.9 13.61 18.2 28.02 25.15 43.07q4.02 8.68 7.45 17.63c3.96 10.24 7.36 20.76 10.33 31.5q2 7.22 3.88 14.65 0.09 0.28 0.14 0.58c5.02 19.63 9.35 40.15 12.02 61.02 3.59 28.19 4.11 57.03-0.9 85.18z"/>
				<g id="&lt;Group&gt;">
					<g id="&lt;Group&gt;" style="mix-blend-mode: multiply">
						<g id="&lt;Group&gt;">
							<path id="&lt;Path&gt;" class="s26" d="m1136.31 2240.32c-0.01 10.48-8.99 19.42-20.06 19.97l-135.25 6.66c-11.33 0.56-20.53-7.6-20.53-18.23l0.02-48.54c0-10.64 9.21-19.65 20.55-20.13l135.28-5.75c11.08-0.47 20.04 7.65 20.03 18.14z"/>
							<path id="&lt;Path&gt;" class="s27" d="m1354.89 2229.87c-0.02 10.31-8.69 19.08-19.39 19.61l-130.57 6.44c-10.94 0.54-19.82-7.49-19.8-17.94l0.05-47.69c0.01-10.45 8.9-19.29 19.84-19.76l130.61-5.55c10.7-0.45 19.35 7.54 19.33 17.84z"/>
							<path id="&lt;Path&gt;" class="s28" d="m1558.99 2220.12c-0.02 10.13-8.42 18.76-18.76 19.27l-126.29 6.23c-10.58 0.52-19.15-7.38-19.14-17.65l0.09-46.9c0.01-10.28 8.62-18.97 19.2-19.42l126.32-5.37c10.35-0.44 18.71 7.43 18.69 17.56z"/>
							<path id="&lt;Path&gt;" class="s29" d="m1763.31 2210.36c-0.03 9.96-8.15 18.44-18.15 18.93l-122.07 6.02c-10.23 0.5-18.51-7.27-18.48-17.37l0.11-46.1c0.02-10.1 8.34-18.64 18.57-19.08l122.1-5.19c10.01-0.42 18.08 7.32 18.05 17.28z"/>
						</g>
						<g id="&lt;Group&gt;">
							<path id="&lt;Path&gt;" class="s30" d="m1136.17 2394.03c-0.01 10.47-8.98 19.51-20.05 20.19l-135.18 8.31c-11.33 0.7-20.52-7.35-20.52-17.96l0.02-48.5c0-10.62 9.21-19.74 20.54-20.35l135.21-7.4c11.07-0.6 20.03 7.4 20.02 17.88z"/>
							<path id="&lt;Path&gt;" class="s31" d="m1354.64 2380.93c-0.01 10.3-8.68 19.17-19.37 19.83l-130.51 8.02c-10.94 0.67-19.81-7.24-19.8-17.67l0.05-47.65c0.01-10.44 8.9-19.38 19.84-19.98l130.55-7.14c10.69-0.58 19.33 7.29 19.32 17.59z"/>
							<path id="&lt;Path&gt;" class="s32" d="m1558.65 2368.7c-0.02 10.13-8.41 18.85-18.75 19.48l-126.23 7.76c-10.57 0.65-19.15-7.14-19.13-17.4l0.08-46.85c0.02-10.27 8.62-19.06 19.2-19.63l126.26-6.91c10.35-0.56 18.7 7.19 18.68 17.32z"/>
							<path id="&lt;Path&gt;" class="s33" d="m1762.88 2356.46c-0.03 9.96-8.14 18.52-18.14 19.14l-122.02 7.5c-10.22 0.62-18.5-7.04-18.47-17.13l0.11-46.06c0.02-10.09 8.34-18.72 18.56-19.28l122.05-6.67c10-0.55 18.07 7.08 18.05 17.04z"/>
						</g>
						<g id="&lt;Group&gt;">
							<path id="&lt;Path&gt;" class="s34" d="m1136.03 2544.02c-0.01 10.47-8.97 19.6-20.04 20.41l-135.11 9.91c-11.32 0.83-20.51-7.09-20.51-17.7l0.02-48.45c0-10.61 9.2-19.83 20.53-20.58l135.14-8.99c11.07-0.74 20.02 7.15 20.01 17.62z"/>
							<path id="&lt;Path&gt;" class="s35" d="m1354.41 2528.34c-0.02 10.28-8.68 19.25-19.37 20.04l-130.45 9.56c-10.93 0.8-19.8-7-19.79-17.42l0.06-47.6c0.01-10.43 8.89-19.47 19.82-20.2l130.49-8.68c10.69-0.71 19.33 7.05 19.31 17.34z"/>
							<path id="&lt;Path&gt;" class="s36" d="m1558.33 2513.69c-0.03 10.12-8.41 18.93-18.75 19.69l-126.17 9.25c-10.57 0.77-19.14-6.9-19.12-17.15l0.08-46.81c0.02-10.26 8.61-19.14 19.19-19.85l126.2-8.39c10.34-0.69 18.69 6.96 18.67 17.07z"/>
							<path id="&lt;Path&gt;" class="s37" d="m1762.47 2499.03c-0.03 9.95-8.15 18.61-18.14 19.34l-121.97 8.94c-10.21 0.75-18.48-6.81-18.46-16.89l0.11-46.02c0.03-10.08 8.34-18.8 18.56-19.48l121.99-8.12c10-0.66 18.07 6.86 18.04 16.81z"/>
						</g>
						<path id="&lt;Path&gt;" class="s38" d="m1135.9 2690.3c-0.01 10.46-8.97 19.69-20.03 20.63l-135.05 11.46c-11.32 0.96-20.5-6.85-20.5-17.45l0.02-48.4c0-10.6 9.19-19.91 20.51-20.79l135.09-10.56c11.06-0.86 20.01 6.92 20 17.37z"/>
						<path id="&lt;Path&gt;" class="s39" d="m1354.17 2672.1c-0.01 10.27-8.67 19.34-19.35 20.24l-130.4 11.07c-10.92 0.93-19.78-6.76-19.77-17.17l0.05-47.56c0.01-10.41 8.89-19.55 19.82-20.41l130.43-10.18c10.68-0.84 19.32 6.82 19.3 17.09z"/>
						<path id="&lt;Path&gt;" class="s40" d="m1558.01 2655.1c-0.03 10.11-8.41 19.01-18.74 19.89l-126.12 10.7c-10.57 0.9-19.13-6.67-19.11-16.91l0.08-46.77c0.02-10.24 8.61-19.22 19.18-20.05l126.15-9.85c10.34-0.81 18.68 6.73 18.66 16.84z"/>
						<path id="&lt;Path&gt;" class="s41" d="m1135.76 2847.13c-0.01 10.45-8.97 19.78-20.02 20.86l-134.98 13.13c-11.32 1.1-20.5-6.59-20.49-17.17l0.01-48.35c0.01-10.59 9.2-20.01 20.51-21.04l135.02-12.22c11.06-1 20 6.66 19.99 17.1z"/>
						<path id="&lt;Path&gt;" class="s42" d="m1353.93 2826.23c-0.02 10.27-8.67 19.43-19.35 20.46l-130.33 12.69c-10.92 1.06-19.78-6.51-19.77-16.91l0.05-47.51c0.02-10.41 8.89-19.65 19.82-20.64l130.36-11.8c10.68-0.97 19.31 6.58 19.29 16.84z"/>
						<path id="&lt;Path&gt;" class="s43" d="m1557.66 2806.71c-0.02 10.1-8.4 19.1-18.73 20.1l-126.06 12.27c-10.56 1.02-19.12-6.43-19.1-16.66l0.08-46.72c0.02-10.24 8.61-19.31 19.17-20.27l126.1-11.41c10.33-0.94 18.67 6.49 18.65 16.59z"/>
						<path id="&lt;Path&gt;" class="s44" d="m1743.55 2576.17l-121.96 9.52c-10.21 0.8-17.9 12.34-17.93 22.41l-0.06 25.9-0.05 21.62-0.24 97.63-0.06 28.72-0.05 18.76c-0.02 10.06 7.61 19.09 17.82 18.09l121.87-11.85c9.99-0.97 18.71-11.47 18.74-21.39l0.05-18.52 0.09-28.35 0.28-96.36 0.06-21.35 0.07-25.56c0.03-9.94-8.64-20.05-18.63-19.27z"/>
					</g>
					<g id="&lt;Group&gt;">
						<g id="&lt;Group&gt;">
							<path id="&lt;Path&gt;" class="s45" d="m1143.84 2239.96c-0.01 10.47-8.97 19.41-20.03 19.95l-135.08 6.66c-11.32 0.56-20.51-7.6-20.51-18.22l0.02-48.51c0-10.63 9.2-19.64 20.52-20.12l135.12-5.74c11.07-0.47 20.02 7.65 20.01 18.13z"/>
							<path id="&lt;Path&gt;" class="s46" d="m1354.89 2229.87c-0.02 10.31-8.69 19.08-19.39 19.61l-130.57 6.44c-10.94 0.54-19.82-7.49-19.8-17.94l0.05-47.69c0.01-10.45 8.9-19.29 19.84-19.76l130.61-5.55c10.7-0.45 19.35 7.54 19.33 17.84z"/>
							<path id="&lt;Path&gt;" class="s47" d="m1566.03 2219.78c-0.02 10.13-8.41 18.75-18.74 19.26l-126.14 6.22c-10.57 0.52-19.13-7.38-19.12-17.64l0.09-46.87c0.01-10.27 8.61-18.96 19.18-19.41l126.17-5.36c10.34-0.44 18.69 7.42 18.67 17.55z"/>
							<path id="&lt;Path&gt;" class="s48" d="m1770.12 2210.03c-0.03 9.96-8.14 18.43-18.14 18.93l-121.93 6c-10.21 0.51-18.48-7.26-18.46-17.35l0.12-46.08c0.02-10.1 8.33-18.63 18.55-19.07l121.96-5.18c9.99-0.42 18.06 7.31 18.03 17.27z"/>
						</g>
						<g id="&lt;Group&gt;">
							<path id="&lt;Path&gt;" class="s49" d="m1143.7 2393.58c-0.01 10.47-8.97 19.5-20.03 20.18l-135.01 8.3c-11.32 0.69-20.5-7.35-20.5-17.96l0.02-48.46c0.01-10.62 9.2-19.73 20.52-20.35l135.05-7.38c11.06-0.6 20 7.4 19.99 17.87z"/>
							<path id="&lt;Path&gt;" class="s50" d="m1354.64 2380.93c-0.01 10.3-8.68 19.17-19.37 19.83l-130.51 8.02c-10.94 0.67-19.81-7.24-19.8-17.67l0.05-47.65c0.01-10.44 8.9-19.38 19.84-19.98l130.55-7.14c10.69-0.58 19.33 7.29 19.32 17.59z"/>
							<path id="&lt;Path&gt;" class="s51" d="m1565.69 2368.28c-0.02 10.12-8.4 18.84-18.73 19.47l-126.09 7.75c-10.56 0.65-19.12-7.14-19.1-17.39l0.08-46.83c0.02-10.26 8.61-19.04 19.18-19.62l126.11-6.89c10.34-0.57 18.68 7.18 18.66 17.3z"/>
							<path id="&lt;Path&gt;" class="s52" d="m1769.69 2356.05c-0.03 9.95-8.14 18.51-18.13 19.13l-121.88 7.49c-10.2 0.62-18.47-7.04-18.45-17.12l0.11-46.03c0.03-10.09 8.34-18.72 18.55-19.27l121.91-6.67c9.99-0.54 18.05 7.08 18.02 17.04z"/>
						</g>
						<g id="&lt;Group&gt;">
							<path id="&lt;Path&gt;" class="s53" d="m1143.56 2543.48c-0.01 10.46-8.96 19.59-20.02 20.4l-134.95 9.89c-11.31 0.83-20.48-7.09-20.48-17.69l0.02-48.42c0-10.6 9.19-19.81 20.5-20.56l134.99-8.98c11.05-0.74 19.99 7.15 19.98 17.61z"/>
							<path id="&lt;Path&gt;" class="s54" d="m1354.41 2528.34c-0.02 10.28-8.68 19.25-19.37 20.04l-130.45 9.56c-10.93 0.8-19.8-7-19.79-17.42l0.06-47.6c0.01-10.43 8.89-19.47 19.82-20.2l130.49-8.68c10.69-0.71 19.33 7.05 19.31 17.34z"/>
							<path id="&lt;Path&gt;" class="s55" d="m1565.36 2513.19c-0.02 10.11-8.4 18.92-18.72 19.67l-126.03 9.24c-10.56 0.78-19.12-6.9-19.1-17.14l0.08-46.79c0.02-10.24 8.61-19.12 19.17-19.82l126.06-8.39c10.33-0.69 18.67 6.95 18.65 17.07z"/>
							<path id="&lt;Path&gt;" class="s56" d="m1769.27 2498.55c-0.03 9.94-8.14 18.59-18.12 19.32l-121.83 8.93c-10.2 0.75-18.46-6.81-18.44-16.88l0.11-45.99c0.03-10.08 8.33-18.8 18.54-19.48l121.86-8.1c9.98-0.67 18.04 6.86 18.01 16.8z"/>
						</g>
						<path id="&lt;Path&gt;" class="s57" d="m1143.42 2689.68c-0.01 10.44-8.96 19.67-20 20.61l-134.89 11.45c-11.3 0.96-20.48-6.85-20.47-17.44l0.01-48.37c0.01-10.6 9.19-19.9 20.5-20.79l134.92-10.54c11.05-0.86 19.99 6.91 19.98 17.37z"/>
						<path id="&lt;Path&gt;" class="s58" d="m1354.17 2672.1c-0.01 10.27-8.67 19.34-19.35 20.24l-130.4 11.07c-10.92 0.93-19.78-6.76-19.77-17.17l0.05-47.56c0.01-10.41 8.89-19.55 19.82-20.41l130.43-10.18c10.68-0.84 19.32 6.82 19.3 17.09z"/>
						<path id="&lt;Path&gt;" class="s59" d="m1565.04 2654.52c-0.03 10.1-8.4 18.99-18.72 19.87l-125.97 10.69c-10.56 0.9-19.11-6.67-19.09-16.91l0.08-46.74c0.02-10.23 8.6-19.2 19.16-20.03l126-9.84c10.33-0.81 18.67 6.73 18.64 16.83z"/>
						<path id="&lt;Path&gt;" class="s60" d="m1143.28 2846.41c-0.01 10.44-8.96 19.77-20 20.84l-134.82 13.12c-11.3 1.1-20.47-6.58-20.46-17.16l0.01-48.33c0.01-10.58 9.19-19.99 20.49-21.02l134.86-12.2c11.04-1 19.97 6.65 19.96 17.09z"/>
						<path id="&lt;Path&gt;" class="s61" d="m1353.93 2826.23c-0.02 10.27-8.67 19.43-19.35 20.46l-130.33 12.69c-10.92 1.06-19.78-6.51-19.77-16.91l0.05-47.51c0.02-10.41 8.89-19.65 19.82-20.64l130.36-11.8c10.68-0.97 19.31 6.58 19.29 16.84z"/>
						<path id="&lt;Path&gt;" class="s62" d="m1564.69 2806.04c-0.02 10.09-8.39 19.08-18.71 20.09l-125.91 12.25c-10.55 1.02-19.1-6.43-19.08-16.66l0.08-46.69c0.02-10.23 8.6-19.29 19.15-20.25l125.95-11.4c10.31-0.94 18.65 6.49 18.63 16.58z"/>
						<path id="&lt;Path&gt;" class="s63" d="m1750.62 2575.61l-121.82 9.52c-10.2 0.8-18.13 12.35-18.16 22.41l-0.06 25.89-0.05 21.61-0.24 97.57-0.07 28.7-0.04 18.75c-0.03 10.06 7.85 19.06 18.04 18.06l121.73-11.84c9.98-0.97 18.44-11.43 18.47-21.35l0.06-18.51 0.08-28.33 0.28-96.31 0.07-21.33 0.07-25.55c0.03-9.94-8.38-20.06-18.36-19.29z"/>
					</g>
				</g>
			</g>
			<g id="&lt;Group&gt;">
				<path id="&lt;Path&gt;" class="s64" d="m2658.09 2937c0 0-86.58 39.35-87.99 45.63-1.42 6.28 55.68-2.11 78.98-1.2 23.31 0.91 42.48-5.98 40.37-15.85-2.11-9.88-10.26-34.71-10.26-34.71z"/>
				<path id="&lt;Path&gt;" class="s65" d="m2654.92 2905.06l5.27 38.99c0 0 13.71 4.87 22.91-0.89l3.93-42.76z"/>
				<path id="&lt;Path&gt;" class="s66" d="m3062.66 2906l10.07 16.17c2.82 4.52 3.66 9.96 2.31 15.11-3.53 13.45-10.56 39.65-13.63 46.48-4.17 9.3-60.2 14.83-60.2 14.83 0 0-5-7.03 6.64-15.52 11.63-8.49 19.1-9.83 23.21-22.36 4.1-12.53 6.84-47.98 6.84-47.98z"/>
				<path id="&lt;Path&gt;" class="s67" d="m3020.74 2864.91c3.68 2.94 21.67 57.56 21.67 57.56 0 0 5.83 7.44 16.9-3.55 11.06-10.99 5-4.93 5-4.93l-2.07-53.72z"/>
				<path id="&lt;Path&gt;" class="s68" d="m2607.29 2121.9c-4.57 116.28-4.76 242.61 1.93 377.58 7.54 151.98 22.67 292.44 41.75 419.78 7.09 0.22 14.55 0.26 22.33 0.04q7.89-0.22 15.27-0.74c9.9-26.4 21.61-61.12 32.09-102.6 11.01-43.61 17.66-82.72 22.39-120.13 16.68-131.7-2.86-143.19 10.67-240.8 11.98-86.45 29.03-89.82 49.03-212.55 21.71-133.17 5.55-153.15-2.31-160.37-33.45-30.72-112.03-9.8-193.15 39.79z"/>
				<path id="&lt;Path&gt;" class="s69" d="m2800.44 2082.12c-31.91-29.31-104.87-11.57-181.94 33.16 88.66 95.78 98.32 157.92 87.7 198.24-12.02 45.57-48.54 58.69-48.4 108.52 0.17 61.23 55.44 77.45 54.26 142.25-0.78 42.84-25.06 42.4-30.79 95.32-6.79 62.61 24.94 84.19 14.66 130.51-4.42 19.94-17.04 45.98-52.97 72.81 2.59 19.02 5.24 37.85 8.01 56.33 7.09 0.22 14.55 0.26 22.33 0.04q7.89-0.22 15.27-0.74c9.9-26.4 21.61-61.12 32.09-102.6 11.01-43.61 17.66-82.72 22.39-120.13 16.68-131.7-2.86-143.19 10.67-240.8 11.98-86.45 29.03-89.82 49.03-212.55 21.7-133.17 5.55-153.15-2.31-160.36z"/>
				<path id="&lt;Path&gt;" class="s70" d="m2662.2 2119.95c76.34 111.7 158.68 250.71 232.31 417.1 55.65 125.75 96.01 243.81 125.64 349.03 4.01 1.85 13.47 5.56 25.56 3.96 16.48-2.18 26.36-12.7 28.94-15.64 12.06-75.43 10.73-139.31 6.64-185.41-2.62-29.52-7.26-78.68-26.07-139.37-21.08-67.97-35.57-71.79-63.06-143.71-28.54-74.65-21.63-93.28-48.96-186.69-11.22-38.38-30.02-95.49-61.03-163.8q-109.98 32.26-219.97 64.53z"/>
				<path id="&lt;Path&gt;" class="s71" d="m2301.13 1324.84c0 0-14.81-17.72-24.25-30.93-9.44-13.21-52.97-49.95-52.97-49.95 0 0-3.13 6.05 6.28 15.41 9.4 9.37 29.1 25.34 24.81 32.37-4.3 7.03-16.69 13.42-7.37 26.32 9.33 12.9 24.85 3.61 33.11 13.94 8.26 10.33 16.74 21.61 16.74 21.61z"/>
				<path id="&lt;Path&gt;" class="s72" d="m2303.21 1306.22q-14.82 18.6-29.65 37.2c12.64 54.68 39.58 137.07 102.21 217.1 66.39 84.83 208 211.88 296.15 170.23 53.73-25.39 126.27-112.5 100.21-154.5-25.06-40.38-133.5-21.29-207.98-38.11-73-16.49-167.75-69.62-260.94-231.92z"/>
				<path id="&lt;Path&gt;" class="s73" d="m2983.87 1628.7c0 0 57.76 196.6 21.98 272.25-35.79 75.64-149.9-7.43-149.9-7.43z"/>
				<path id="&lt;Path&gt;" class="s74" d="m2973.18 1628.93c0 0 57.76 196.6 21.97 272.25-35.78 75.65-149.89-7.43-149.89-7.43z"/>
				<path id="&lt;Path&gt;" class="s75" d="m2804.24 1556c-74.2-1.35-131.34 1.07-162.93 34.05-33.37 34.83 1.94 72.56-3.52 161.89-8.37 136.76-94.63 172.01-98.16 310.65-1.19 46.72 7.54 84.69 14.18 107.52 19.61 23.36 51.59 56.24 98.31 83.29 68 39.36 106.76 31.4 203.71 55.67 158.59 39.71 173.74 90.78 251.62 75.99 78.71-14.95 146.58-82.95 137.41-119.27-5.49-21.76-37.21-14.87-74.6-47.42-48.19-41.95-30.86-83.37-67.8-128.77-53.05-65.22-124.07-23.1-169.3-79.63-45.75-57.19-30.61-172.18 5.53-235.47 23.61-41.34 33.05-89.38 52.96-132.62 1.65-3.59 3.54-9.46 2.49-16.73-3.99-27.79-50.76-41.89-86.18-52.21-54.02-15.74-97.61-16.84-103.72-16.94z"/>
				<path id="&lt;Path&gt;" class="s76" d="m2732.02 1554.5l14.52-4.82c0 0 4.25 19.72 51.32 21.16 26.09-0.56 42.65-15.55 42.65-15.55l10.14 7.06c0 0-21.32 27.86-56.19 27.92-45.01 0.09-62.44-35.77-62.44-35.77z"/>
				<g id="&lt;Group&gt;">
					<path id="&lt;Path&gt;" class="s77" d="m2743.93 1490.86c-3.98-21.57 8.11-40.09 10.77-44.08 11.13-16.7 13.78-18.87 18.6-21.5l6.67-3.32c0 0 0.39-0.11 0.78-0.22 4.19-1.07 18.04-0.23 20.78 0.63 8.76 2.72 14.95 40.01 7.54 91.24q0.53 6.03 1.06 12.07c19.95-2.76 25.72-0.86 26.75 1.81 2.21 5.79-11.68 39.6-30.68 46.25-23.84 8.35-57.03-13.41-59.03-21.29-0.8-3.18-0.66-0.45 15.57-9.84 1.49-4.71 6.13-17.47 7.62-22.18-3.44-2.21-23.5-13.69-26.43-29.57z"/>
					<path id="&lt;Path&gt;" class="s78" d="m2771.12 1473.51c4.4-5.02 10.81 0.66 10.21 7.61-0.59 6.95-7.98 13.56-14.39 11.59-6.41-1.97-1.74-12.46 4.18-19.2z"/>
					<path id="&lt;Path&gt;" class="s79" d="m3477.46 1246.07c-96.79-54.76-256.83 20.31-329.29 112.62-33.67 42.9-44.71 84.32-94.61 103.56-37.94 14.62-104.09 19.88-149.94-11.56-5.77-3.97-29.21-20.83-62.68-40.84-14.76-8.82-29.21-16.9-46.7-14.16-4.44 0.7-19.25 2.94-25.62 15.02-5.17 9.79-2.9 23.18 2.3 31.69 3.11 5.09 5.02 5.12 5.94 8.81 2.57 10.37-14.49 20.74-11.82 25.52 1.91 3.42 11.1-1.02 14.24 3.03 3.43 4.44-5.75 12.16-6.22 26.26-6.67 8.43-7.49 24.33-3.24 43.88 6.23 28.75 16.32 50.49 27.09 65.84 51.85 73.93 88.93 126.81 143.5 145.44 72.25 24.67 111.81-32.31 257.99-86.35 200.17-74 272.92-21.49 330.72-92.03 72.17-88.08 48.83-279.88-51.66-336.73z"/>
				</g>
				<g id="&lt;Group&gt;" style="opacity: .3;mix-blend-mode: multiply">
					<path id="&lt;Path&gt;" class="s80" d="m3051.72 2267.67c-74.62-49.58-142.16 7.13-194.91-36.55-43.44-35.97-7.82-82.87-54.82-146.18-51.54-69.42-123.05-51.67-140.1-103.55-17.61-53.62 53.06-90.01 54.82-164.46 0.9-37.99-16.15-87.48-84.3-146.83 3.68 21.66 7.44 48.06 5.38 81.84-8.37 136.76-94.63 172.01-98.16 310.65-1.19 46.72 7.54 84.69 14.18 107.52 19.61 23.36 51.59 56.24 98.31 83.29 68 39.36 106.76 31.4 203.72 55.67 158.58 39.71 173.73 90.78 251.61 75.99 22.69-4.31 44.45-13.04 63.75-24.13-22.68-3.53-39.59-11.25-52.48-20.17-34.07-23.59-28.09-47.24-67-73.09z"/>
				</g>
			</g>
			<g id="&lt;Group&gt;">
				<path id="&lt;Path&gt;" class="s81" d="m1379.56 1312.54c0 142.3-111.27 254.23-253.48 249.87-148-4.55-272.47-132.37-272.47-285.33 0-152.96 124.47-263.99 272.47-248.58 142.21 14.81 253.48 141.74 253.48 284.04z"/>
				<path id="&lt;Path&gt;" class="s82" d="m1417.99 1300.27c0 142.3-111.27 254.23-253.48 249.87-148-4.55-272.47-132.37-272.47-285.33 0-152.96 124.47-263.99 272.47-248.58 142.21 14.81 253.48 141.75 253.48 284.04z"/>
				<path id="&lt;Path&gt;" class="s83" d="m1406.83 1299.52c0 136.03-106.46 242.85-242.32 238.46-141.13-4.57-259.62-126.56-259.62-272.3 0-145.74 118.49-251.75 259.62-237.29 135.86 13.92 242.32 135.1 242.32 271.13z"/>
				<path id="&lt;Path&gt;" class="s84" d="m1398.83 1298.98c0 131.54-103.01 234.72-234.32 230.31-136.22-4.57-250.46-122.39-250.46-262.99 0-140.61 114.24-243.02 250.46-229.23 131.31 13.3 234.32 130.37 234.32 261.91z"/>
				<g id="&lt;Group&gt;">
					<path id="&lt;Compound Path&gt;" fill-rule="evenodd" class="s85" d="m1163.17 1081.83c6.98 0.66 12.64 6.95 12.64 14.05v24.22q20.96 2.34 41.97 7.28 15.5 3.64 30.79 8.67c6.11 2 10.27 8.17 9.65 14.53l-2.98 30.37c-0.79 8.06-8.75 12.79-16.25 9.45q-10.07-4.5-20.65-7.7-18.47-5.59-38.96-7.28l-3.57-0.29v69.36c36.45 10.2 63.22 23.92 80.52 41.17 17.22 17.17 25.79 38.58 25.79 64.27 0 27.79-9.48 50.04-28.52 66.82-19.15 16.87-45.99 26.36-80.7 28.41v26.73c0 7.1-5.66 12.63-12.65 12.35l-0.22-0.01c-7.01-0.28-12.7-6.28-12.7-13.4v-26.37l-5.63-0.25q-24.41-1.1-46.75-4.99-16.54-2.87-32.31-7.43c-6.35-1.83-10.71-7.89-10.13-14.39l3.5-39.04c0.76-8.44 9.23-13.35 17.26-10.18q14.03 5.53 28.41 9.32 22.41 5.91 45.42 7.59l0.23-77.15c-34.99-8.66-61.18-21.48-78.39-38.47-17.3-17.07-25.97-38.9-25.97-65.46 0-27.48 9.41-48.69 28.15-63.58 18.65-14.81 45.16-22.18 79.36-22.16v-24.76c0-7.12 5.68-12.35 12.69-11.68zm-12.69 92.58q-16.22 1.18-25.28 8.91-9.07 7.75-9.07 20.82 0 12.39 8.39 20.7 8.38 8.29 25.96 13.24zm22.42 139.71v70.75q17.63 0.03 27.07-8.41 9.42-8.43 9.41-23.82 0.01-14.03-8.75-23.28-8.76-9.27-27.73-15.24z"/>
				</g>
				<path id="&lt;Path&gt;" class="s86" d="m1122.11 1331.19c7.91-78.19 79.78-111.29 70.4-183.22-5.78-44.33-39.38-81.69-76.86-110.86-113.69 11.93-201.6 106.06-201.6 229.19 0 140.6 114.24 258.42 250.46 262.99 13.23 0.44 26.15-0.24 38.71-1.89-54.1-53.83-87.91-129.03-81.11-196.21z"/>
			</g>
			<g id="&lt;Group&gt;">
				<path id="&lt;Path&gt;" class="s87" d="m1781.54 730.22c0 170.85-133.59 305.25-304.33 300-177.7-5.45-327.15-158.92-327.15-342.57 0-183.65 149.45-316.96 327.15-298.46 170.74 17.78 304.33 170.19 304.33 341.03z"/>
				<path id="&lt;Path&gt;" class="s88" d="m1827.68 715.49c0 170.85-133.59 305.25-304.33 300-177.7-5.45-327.15-158.92-327.15-342.57 0-183.65 149.45-316.96 327.15-298.46 170.74 17.78 304.33 170.19 304.33 341.03z"/>
				<path id="&lt;Path&gt;" class="s89" d="m1814.28 714.59c0 163.32-127.82 291.58-290.93 286.3-169.45-5.48-311.71-151.94-311.71-326.93 0-174.98 142.26-302.26 311.71-284.9 163.11 16.71 290.93 162.21 290.93 325.53z"/>
				<path id="&lt;Path&gt;" class="s90" d="m1804.68 713.94c0 157.94-123.68 281.82-281.33 276.52-163.56-5.49-300.72-146.94-300.72-315.76 0-168.81 137.16-291.77 300.72-275.21 157.65 15.96 281.33 156.52 281.33 314.45z"/>
				<g id="&lt;Group&gt;">
					<path id="&lt;Compound Path&gt;" fill-rule="evenodd" class="s91" d="m1521.73 453.22c8.39 0.8 15.18 8.35 15.18 16.87v29.08q25.16 2.81 50.4 8.74 18.6 4.37 36.96 10.41c7.33 2.41 12.33 9.81 11.58 17.45l-3.57 36.46c-0.95 9.68-10.51 15.36-19.51 11.34q-12.09-5.39-24.8-9.23-22.17-6.71-46.77-8.74l-4.29-0.36v83.28c43.76 12.24 75.91 28.71 96.68 49.43 20.67 20.62 30.97 46.32 30.97 77.17 0 33.36-11.39 60.07-34.25 80.22-22.99 20.26-55.21 31.65-96.89 34.11v32.1c0 8.52-6.79 15.16-15.19 14.83l-0.27-0.01c-8.41-0.34-15.24-7.54-15.24-16.1v-31.66l-6.77-0.3q-29.3-1.32-56.12-5.99-19.87-3.45-38.79-8.92c-7.63-2.2-12.87-9.47-12.17-17.28l4.2-46.87c0.91-10.13 11.09-16.03 20.73-12.23q16.84 6.65 34.11 11.2 26.9 7.09 54.54 9.11l0.27-92.63c-42.01-10.4-73.46-25.79-94.13-46.19-20.76-20.49-31.17-46.71-31.17-78.59 0-32.99 11.29-58.46 33.8-76.33 22.39-17.79 54.22-26.63 95.28-26.61v-29.73c0-8.55 6.82-14.83 15.23-14.03zm-15.23 111.16q-19.48 1.42-30.35 10.7-10.89 9.31-10.9 25 0.01 14.87 10.08 24.84 10.06 9.96 31.17 15.9zm26.92 167.74v84.95q21.17 0.04 32.49-10.1 11.31-10.11 11.31-28.59 0-16.85-10.51-27.96-10.52-11.13-33.29-18.3z"/>
				</g>
				<path id="&lt;Path&gt;" class="s92" d="m1472.43 752.62c9.51-93.88 95.79-133.63 84.53-219.98-6.94-53.23-47.28-98.08-92.28-133.1-136.5 14.31-242.05 127.34-242.05 275.16 0 168.82 137.16 310.27 300.72 315.76 15.88 0.54 31.39-0.29 46.47-2.27-64.96-64.63-105.55-154.92-97.39-235.57z"/>
			</g>
		</g>
	</g>
</svg>
