<svg width="278" height="339" viewBox="0 0 278 339" fill="none" xmlns="http://www.w3.org/2000/svg">
<path d="M276.905 196.593C276.905 196.593 275.36 198.606 276.53 202.353C275.313 203.852 274.798 205.538 274.798 205.538C274.798 205.538 271.847 206.427 271.379 209.237C270.676 209.565 269.271 211.111 269.271 211.111C269.271 211.111 266.836 211.86 267.258 214.576C266.462 214.155 261.076 213.359 262.34 211.392C265.01 207.27 272.503 192.237 272.503 192.237L276.905 196.593Z" fill="#EC9171"/>
<path d="M210.17 251.573L205.252 252.744C202.349 253.353 199.492 251.48 198.883 248.576L197.057 239.912C196.448 236.962 198.321 234.105 201.225 233.496L206.142 232.326C209.046 231.717 211.949 233.59 212.558 236.494L214.338 245.157C214.993 248.108 213.12 250.965 210.17 251.573Z" stroke="#24293A" stroke-width="10" stroke-miterlimit="10" stroke-linecap="round"/>
<path d="M90.2329 109.111C93.9326 108.502 97.6792 108.08 101.473 107.987C103.955 107.893 106.343 108.034 108.778 108.268C108.841 108.174 108.919 108.08 109.013 107.987C111.541 102.788 116.599 98.3393 121.236 96.185C127.136 93.4219 134.63 92.1106 141.046 93.8434C146.103 94.6864 150.599 96.8875 154.533 100.4C155.704 101.477 156.875 102.695 157.952 104.053C160.294 107.003 162.214 110.562 163.01 114.028L170.643 105.13L169.8 108.174L194.575 115.058L185.536 91.0335C183.569 89.2539 176.216 91.6423 174.39 89.8159C170.503 86.0225 162.682 85.6478 158.514 82.8847C153.69 79.747 151.63 76.8903 144.745 77.2649C140.53 77.5459 136.643 76.2814 132.054 78.0611C118.941 82.9784 109.013 93.0473 97.5387 103.35L90.2329 109.111Z" fill="#179BDD"/>
<path d="M182.866 118.805L171.299 116.229C171.299 116.229 139.687 105.692 137.58 105.926C135.473 106.16 121.657 79.9812 140.39 75.4853C169.66 68.4605 185.349 82.2759 177.715 95.5294L182.866 118.805Z" fill="#002A7B"/>
<path fill-rule="evenodd" clip-rule="evenodd" d="M172.751 283.7L177.574 280.141C180.478 277.94 184.599 278.549 186.753 281.499C188.955 284.403 188.346 288.524 185.395 290.725L180.572 294.284C177.668 296.485 173.547 295.876 171.393 292.926C169.191 290.022 169.8 285.901 172.751 283.7ZM179.682 282.998L174.858 286.557C173.5 287.587 173.219 289.46 174.249 290.819C175.233 292.13 177.106 292.411 178.464 291.427L183.288 287.868C184.646 286.838 184.927 284.965 183.897 283.606C182.913 282.295 181.04 282.014 179.682 282.998Z" fill="#24293A"/>
<path fill-rule="evenodd" clip-rule="evenodd" d="M188.112 272.742L191.718 267.918C193.919 265.061 198.087 264.452 200.944 266.653C203.847 268.854 204.456 272.976 202.255 275.879L198.602 280.703C196.401 283.607 192.28 284.168 189.376 281.967C186.472 279.766 185.91 275.645 188.112 272.742ZM194.574 270.072L190.968 274.896C189.938 276.207 190.219 278.127 191.53 279.111C192.842 280.141 194.762 279.86 195.792 278.549L199.398 273.725C200.382 272.414 200.147 270.494 198.789 269.51C197.478 268.48 195.558 268.761 194.574 270.072Z" fill="#24293A"/>
<path fill-rule="evenodd" clip-rule="evenodd" d="M199.773 257.849L201.787 252.182C203.004 248.764 206.751 246.984 210.17 248.202C213.635 249.372 215.415 253.166 214.197 256.584L212.23 262.251C211.013 265.67 207.219 267.496 203.8 266.279C200.382 265.061 198.555 261.314 199.773 257.849ZM205.159 253.4L203.145 259.067C202.583 260.612 203.426 262.345 204.971 262.907C206.563 263.469 208.296 262.626 208.858 261.08L210.825 255.414C211.387 253.821 210.591 252.089 208.999 251.527C207.406 251.011 205.721 251.808 205.159 253.4Z" fill="#24293A"/>
<path d="M182.585 281.405C181.461 282.248 181.227 283.841 182.07 284.965C182.913 286.135 184.505 286.37 185.629 285.527L192.186 280.656C193.31 279.813 193.544 278.221 192.701 277.097C191.858 275.926 190.266 275.692 189.142 276.535L182.585 281.405Z" fill="#24293A"/>
<path d="M196.916 267.73C196.073 268.901 196.307 270.494 197.431 271.337C198.555 272.18 200.147 271.945 200.99 270.821L205.908 264.359C206.751 263.235 206.563 261.642 205.439 260.752C204.315 259.91 202.676 260.144 201.833 261.268L196.916 267.73Z" fill="#24293A"/>
<path d="M63.7261 142.642L96.9299 165.73L103.159 170.226L106.577 172.662L115.616 169.196L152.145 135.945L164.836 119.086L165.632 118.009L167.084 116.089C167.553 115.527 169.238 112.717 169.051 113.466L169.566 113.372L172.236 112.998L173.641 105.364L171.159 100.681C170.035 99.6974 172.376 92.9068 171.299 91.8765C170.503 91.1272 173.781 90.1437 172.985 89.3944C169.145 85.6947 165.492 82.1354 161.371 79.466C161.246 79.3723 161.105 79.2787 160.949 79.185C160.418 78.8416 159.872 78.5138 159.31 78.2016C158.498 77.7645 157.655 77.343 156.781 76.9371C156.625 76.8746 156.485 76.8278 156.36 76.7966C156.204 76.7029 156.047 76.6405 155.891 76.6093C155.454 76.4219 155.002 76.2502 154.533 76.0941C154.44 76.0629 154.33 76.0317 154.205 76.0004C153.331 75.7195 152.426 75.4853 151.489 75.298C151.302 75.2667 151.13 75.2355 150.974 75.2043C150.787 75.1731 150.584 75.1419 150.365 75.1106C149.928 75.0482 149.475 75.0014 149.007 74.9701C148.851 74.9389 148.695 74.9233 148.539 74.9233H148.492C148.273 74.8921 148.07 74.8765 147.883 74.8765C147.665 74.8765 147.446 74.8765 147.227 74.8765C147.009 74.8453 146.79 74.8297 146.572 74.8297C145.979 74.8297 145.385 74.8609 144.792 74.9233C144.542 74.9233 144.308 74.9389 144.09 74.9701C143.84 74.9701 143.59 74.9858 143.34 75.017C143.153 75.0482 142.966 75.0794 142.778 75.1106C142.466 75.1419 142.154 75.1731 141.842 75.2043C141.686 75.2355 141.53 75.2667 141.373 75.298C141.217 75.3292 141.061 75.3604 140.905 75.3916C140.655 75.4229 140.406 75.4697 140.156 75.5321C139.937 75.5634 139.719 75.6102 139.5 75.6726C139.282 75.7038 139.047 75.7507 138.798 75.8131C138.236 75.938 137.658 76.0785 137.065 76.2346C136.846 76.2971 136.628 76.3595 136.409 76.4219C136.159 76.4844 135.91 76.5624 135.66 76.6561C135.223 76.781 134.786 76.9215 134.349 77.0776C134.099 77.14 133.849 77.2181 133.599 77.3117C133.443 77.3742 133.287 77.4366 133.131 77.4991C132.912 77.5615 132.678 77.6396 132.429 77.7332C132.241 77.7957 132.054 77.8737 131.867 77.9674C119.175 82.7442 104.095 94.6864 88.6407 110.609L66.2082 135.196L63.7261 142.642Z" fill="#03318B"/>
<path d="M103.158 170.273L106.577 172.662L115.569 169.337L152.472 136.741L165.585 119.929L165.726 118.477C165.944 118.602 166.178 118.727 166.428 118.852C167.427 119.382 168.442 119.835 169.472 120.21C169.753 118.212 170.097 116.213 170.503 114.215C171.065 111.187 171.736 108.174 172.516 105.177C173.687 100.728 171.111 91.455 172.891 87.2869C176.731 78.0142 186.191 74.5018 194.387 67.5239C194.605 67.3365 194.824 67.1648 195.043 67.0087L189.797 57.9233L174.39 89.8159L172.282 94.1244L162.588 79.6065C162.432 79.5128 162.291 79.4192 162.166 79.3255C161.604 78.9821 161.042 78.6543 160.481 78.342C159.638 77.8737 158.763 77.4366 157.858 77.0307C157.702 76.9683 157.546 76.9059 157.39 76.8434C157.234 76.781 157.077 76.7185 156.921 76.6561C156.484 76.4688 156.031 76.2971 155.563 76.1409C155.438 76.1097 155.313 76.0785 155.189 76.0473C154.283 75.7663 153.346 75.5321 152.379 75.3448C152.191 75.3136 152.004 75.2824 151.817 75.2511C151.629 75.1887 151.442 75.1575 151.255 75.1575C150.786 75.0638 150.318 75.0014 149.85 74.9701C149.662 74.9389 149.475 74.9233 149.288 74.9233H149.241C149.054 74.8921 148.866 74.8765 148.679 74.8765C148.429 74.8765 148.195 74.8765 147.976 74.8765C147.727 74.8453 147.492 74.8296 147.274 74.8296C146.681 74.8296 146.072 74.8609 145.447 74.9233C145.198 74.9233 144.948 74.9389 144.698 74.9701C144.448 75.0014 144.199 75.017 143.949 75.017C143.762 75.0482 143.574 75.0794 143.387 75.1106C143.043 75.1419 142.7 75.1887 142.357 75.2511C142.2 75.2511 142.044 75.2667 141.888 75.298C141.732 75.3292 141.576 75.3604 141.42 75.3916C141.139 75.4541 140.874 75.5009 140.624 75.5321C140.405 75.5946 140.187 75.6414 139.968 75.6726C139.75 75.7351 139.515 75.7975 139.266 75.86C138.672 75.9848 138.064 76.1253 137.439 76.2814C137.221 76.3439 136.986 76.4063 136.737 76.4688C136.487 76.5624 136.237 76.6405 135.987 76.7029C135.519 76.8278 135.066 76.9683 134.629 77.1244C134.348 77.2181 134.083 77.3117 133.833 77.4054C133.677 77.4678 133.521 77.5147 133.365 77.5459C133.115 77.6396 132.865 77.7332 132.615 77.8269C132.428 77.8893 132.241 77.9674 132.054 78.0611C145.635 77.6864 156.547 90.1905 157.952 104.053C158.014 104.646 158.061 105.239 158.092 105.832C158.233 108.83 123.296 147.981 103.158 170.273Z" fill="#002A7B"/>
<path d="M171.299 84.758C167.552 82.7442 158.561 82.5101 159.966 88.5046C161.37 94.5927 161.37 102.414 158.092 112.108C156.172 117.775 153.643 121.146 149.522 126.532L155.142 135.899L171.158 123.488C171.158 123.488 170.55 122.692 173.828 111.171C177.106 99.6037 171.299 84.758 171.299 84.758Z" fill="#002A7B"/>
<path d="M161.932 75.5789C156.313 78.6699 157.015 83.6809 160.527 90.0032C163.618 95.5294 170.315 97.6368 174.811 93.1409C179.26 88.6919 179.26 81.4329 174.811 76.9371C170.315 72.4412 167.459 72.488 161.932 75.5789Z" fill="#D1735D"/>
<path d="M277.701 167.182C277.701 175.706 276.343 183.901 273.861 191.582C272.643 195.328 271.176 198.934 269.459 202.4C268.21 204.866 266.852 207.27 265.384 209.612C265.228 209.862 265.072 210.112 264.916 210.361C264.354 211.204 263.777 212.047 263.183 212.89C262.059 214.483 260.873 216.028 259.624 217.527C245.106 235.089 223.189 246.281 198.602 246.281C154.908 246.281 119.503 210.876 119.503 167.182C119.503 123.488 154.908 88.0831 198.602 88.0831C242.296 88.0831 277.701 123.488 277.701 167.182Z" fill="#24293A"/>
<path opacity="0.2" d="M181.368 244.361C145.963 236.494 119.503 204.929 119.503 167.182C119.503 154.444 122.5 142.455 127.839 131.824C128.12 146.061 129.759 161 129.759 169.992C129.759 204.039 151.208 233.122 181.368 244.361Z" fill="#179BDD"/>
<path d="M277.701 165.122C269.131 188.303 246.839 204.835 220.66 204.835C187.128 204.835 159.919 177.626 159.919 144.094C159.919 118.898 175.28 97.2621 197.15 88.0831C197.619 88.0831 198.103 88.0831 198.602 88.0831C241.594 88.0831 276.577 122.364 277.701 165.122Z" fill="url(#paint0_linear_113_3112)"/>
<path fill-rule="evenodd" clip-rule="evenodd" d="M202.77 188.631C199.679 189.412 196.604 190.13 193.544 190.786C193.544 190.692 193.529 190.598 193.497 190.505C190.547 179.031 187.924 167.323 185.77 156.13C188.486 155.537 191.218 154.897 193.966 154.21C207.875 150.838 213.214 159.736 215.274 167.744C216.82 173.926 217.288 184.791 202.77 188.631ZM202.63 161.094C200.007 159.455 198.742 159.736 194.059 160.907C193.997 160.907 193.95 160.907 193.919 160.907C195.652 168.025 197.431 175.331 199.258 182.59C199.32 182.59 199.367 182.574 199.398 182.543C203.753 181.466 210.31 179.827 207.781 169.571C207.125 166.761 205.674 163.014 202.63 161.094Z" fill="white"/>
<path d="M234.241 147.466C232.212 148.371 230.104 149.277 227.919 150.182C226.483 150.744 225.047 151.306 223.61 151.868C224.391 153.773 225.14 155.693 225.858 157.629C227.357 157.067 228.824 156.489 230.261 155.896C232.228 155.084 234.132 154.272 235.974 153.46C236.848 155.552 237.676 157.66 238.456 159.783C236.614 160.595 234.678 161.422 232.649 162.265C231.182 162.858 229.683 163.451 228.153 164.044C229.121 166.886 230.026 169.758 230.869 172.662C232.43 172.068 233.96 171.46 235.459 170.835C237.801 169.867 240.048 168.899 242.203 167.932C242.858 170.023 243.452 172.115 243.982 174.207C244.014 174.301 244.045 174.41 244.076 174.535C241.922 175.503 239.658 176.471 237.285 177.438C233.492 178.984 229.605 180.436 225.624 181.841C225.624 181.716 225.609 181.606 225.577 181.513C222.627 170.039 218.834 158.659 214.666 148.075C218.225 146.81 221.737 145.499 225.156 144.094C227.279 143.251 229.308 142.377 231.244 141.471C232.274 143.438 233.273 145.437 234.241 147.466Z" fill="white"/>
<path fill-rule="evenodd" clip-rule="evenodd" d="M258.313 167.135C255.815 168.665 253.067 170.18 250.07 171.678C250.039 171.584 250.008 171.475 249.977 171.35C247.026 159.923 242.39 148.871 236.629 138.943C239.002 137.725 241.219 136.523 243.28 135.337C243.795 135.009 244.591 134.587 245.293 134.259C251.241 131.496 256.814 141.565 255.034 146.483C255.066 146.545 255.097 146.592 255.128 146.623C258.734 146.108 260.795 149.761 261.919 152.899C262.715 155.193 264.822 163.061 258.313 167.135ZM250.585 142.83C249.977 141.612 248.993 140.629 248.244 140.488C247.494 140.348 247.494 140.348 245.012 141.753C244.887 141.815 244.778 141.877 244.684 141.94C245.871 144.094 246.995 146.311 248.056 148.59C248.275 148.465 248.478 148.34 248.665 148.215C250.679 147.091 252.271 146.202 250.585 142.83ZM257.61 155.287C256.72 152.571 255.596 152.29 255.128 152.149C254.379 151.962 254.191 152.056 251.428 153.648C251.147 153.804 250.851 153.976 250.538 154.163C251.662 156.91 252.677 159.705 253.583 162.546C253.676 162.483 253.77 162.437 253.864 162.405C256.954 160.626 259.015 159.455 257.61 155.287Z" fill="white"/>
<path d="M262.434 127.281C261.997 128.187 261.404 129.108 260.654 130.045C265.9 137.725 269.88 146.295 272.269 155.568C272.3 155.662 272.331 155.771 272.362 155.896C271.676 156.739 270.879 157.597 269.974 158.472C269.943 158.378 269.912 158.284 269.88 158.191C267.539 148.918 263.558 140.254 258.453 132.48C257.454 133.448 256.33 134.431 255.081 135.43C253.864 133.557 252.599 131.715 251.288 129.904C254.8 127.141 257.189 124.518 258.407 122.036C259.843 123.753 261.185 125.502 262.434 127.281Z" fill="white"/>
<path d="M0.362305 331.562C0.362305 335.262 3.35955 338.259 7.01244 338.259H232.04C235.693 338.259 238.69 335.262 238.69 331.562C238.69 327.91 235.693 324.912 232.04 324.912H7.01244C3.35955 324.912 0.362305 327.91 0.362305 331.562Z" fill="#C9D3D1"/>
<path d="M150.646 309.036H132.803V320.135H150.646V309.036Z" fill="#24293A"/>
<path d="M134.115 317.56H144.98H150.693C151.255 320.463 160.2 322.196 163.431 322.571L182.96 326.177C183.429 327.301 183.71 328.472 183.71 329.783C183.71 334.56 178.745 334.794 173.969 334.794H157.25H151.161L146.853 330.064V334.794H134.115C129.338 334.794 128.682 335.122 128.682 330.392C128.682 325.615 129.338 317.56 134.115 317.56Z" fill="#333656"/>
<path d="M146.853 330.064H127.979V334.794H146.853V330.064Z" fill="black"/>
<path d="M183.241 331.797H151.068V334.794H183.241V331.797Z" fill="black"/>
<path d="M151.067 331.797L146.853 330.064L151.067 334.794V331.797Z" fill="black"/>
<path d="M132.803 317.56C132.803 318.824 133.834 319.808 135.051 319.808H148.82C150.037 319.808 150.693 318.824 150.693 317.56C150.693 316.342 150.037 315.312 148.82 315.312H135.051C133.834 315.312 132.803 316.295 132.803 317.56Z" fill="#24293A"/>
<path d="M60.1199 296.157L51.2687 285.058C50.6599 284.262 49.4891 284.168 48.7398 284.777L42.8858 289.46C42.0896 290.069 41.9492 291.24 42.6048 291.989L51.456 303.089C52.0649 303.885 53.2357 304.025 54.0318 303.37L59.839 298.686C60.6351 298.078 60.7756 296.954 60.1199 296.157Z" fill="#24293A"/>
<path d="M30.8032 300.747L38.7646 310.722L42.5112 307.772L41.4809 314.094L45.2743 318.824L47.4285 321.587H50.0511L51.5497 325.896H61.9933C66.7233 325.896 71.7343 325.662 71.7343 320.885C71.7343 319.62 71.4065 318.403 70.9382 317.279L59.2302 315.265L58.1062 315.031C58.0126 314.875 57.9033 314.703 57.7784 314.516C55.8583 311.003 53.0015 304.868 54.6407 302.948L51.0814 298.452L44.2908 289.976C41.2935 286.276 34.5966 290.772 30.8969 293.769C27.1503 296.719 27.8528 297.047 30.8032 300.747Z" fill="#333656"/>
<path d="M42.5112 307.772L43.7288 312.127L51.7839 322.945H47.9437L41.3872 314L42.5112 307.772Z" fill="black"/>
<path d="M71.2193 322.945V325.896H50.2386L47.9438 322.945H51.5499H71.2193Z" fill="black"/>
<path d="M42.5111 307.772L30.7095 293.02L27.0098 295.97L38.7646 310.722L42.5111 307.772Z" fill="black"/>
<path d="M43.4948 288.992C42.5113 289.741 42.324 291.193 43.1201 292.13L51.6904 302.854C52.4865 303.838 53.6573 303.697 54.6408 302.948C55.6242 302.152 55.9989 301.028 55.2496 300.045L46.6325 289.32C45.8832 288.337 44.4314 288.196 43.4948 288.992Z" fill="#24293A"/>
<path d="M193.872 238.695C192.654 239.163 191.296 238.507 190.687 237.337L187.269 230.405C187.269 230.405 187.269 230.39 187.269 230.359L184.505 229.703L189.938 244.268C190.5 245.719 189.751 247.359 188.299 247.874C187.315 248.248 186.238 248.014 185.489 247.359C185.348 248.295 184.786 249.138 183.897 249.513C181.461 250.496 180.244 248.248 180.103 248.014C180.134 248.045 180.15 248.077 180.15 248.108C180.056 247.874 179.635 247.124 179.354 247.593C179.026 248.108 178.464 248.483 177.528 248.67C174.952 249.138 174.39 246.235 174.202 245.017C174.202 244.986 174.202 244.986 174.202 245.017C174.062 246 173.406 246.937 172.376 247.312C171.018 247.78 169.519 247.171 168.91 245.86C168.879 245.798 168.848 245.735 168.817 245.673L167.318 241.645L166.054 239.303L164.321 235.978L162.448 231.014C161.37 228.626 161.37 224.551 162.822 223.989C162.822 223.989 162.822 223.974 162.822 223.943L160.059 218.838L157.483 214.857L156.921 213.967L156.406 213.218C154.112 209.659 155.095 204.929 158.561 202.587C158.717 202.494 158.857 202.4 158.982 202.306C162.354 200.292 166.663 201.276 169.098 204.32C169.254 204.507 169.41 204.726 169.566 204.976L173.5 211.673L176.169 218.37L176.404 218.978C176.778 218.838 177.247 218.791 177.715 218.791C179.073 218.838 180.759 219.4 182.164 220.571L190.828 226.706C191.249 227.08 191.53 227.549 191.624 228.111C191.624 228.111 191.64 228.111 191.671 228.111L195.183 235.276C195.839 236.54 195.23 238.133 193.872 238.695Z" fill="#FEB187"/>
<path d="M176.123 220.29C175.607 224.879 171.533 234.573 166.054 239.303L164.321 235.978L162.448 231.014C161.37 228.626 161.37 224.551 162.822 223.989C162.822 223.989 162.822 223.974 162.822 223.943L160.059 218.838L157.483 214.857C159.778 212.235 163.337 208.301 164.274 208.113C165.538 207.832 167.833 204.461 169.098 204.32C169.254 204.507 169.41 204.726 169.566 204.976L173.5 211.673L176.169 218.37C176.232 218.994 176.216 219.634 176.123 220.29Z" fill="#E28366"/>
<path d="M95.3843 167.932H95.4311L106.577 172.662L113.227 177.017L136.081 147.981V145.452L148.023 131.496L138.891 116.697L133.365 104.755L119.924 131.449L95.3843 167.932Z" fill="#03318B"/>
<path d="M137.112 146.67L134.676 145.452L139.219 125.361L134.114 120.678L129.806 110.047L118.847 130.513L124.233 161.422L129.15 154.865L137.112 146.67Z" fill="#002A7B"/>
<path d="M127.183 171.257C127.745 175.144 133.318 177.86 135.192 182.543L139.781 174.254C145.214 174.394 151.114 182.122 149.475 171.397C147.274 157.348 156.219 109.954 156.219 109.954C157.203 95.2484 145.916 83.8682 121.61 91.1271L126.106 99.5569C120.674 99.4164 128.635 98.3861 128.495 103.819C128.401 102.929 124.046 150.604 127.183 171.257Z" fill="#03318B"/>
<path d="M90.6076 240.24C91.3569 241.083 91.7784 242.207 91.7315 243.425C91.6847 244.642 91.1227 245.719 90.2797 246.469L47.9436 284.871C47.9436 284.871 61.8059 303.697 62.8362 302.199C63.4919 301.262 101.426 266.326 114.492 254.243C114.523 254.243 114.554 254.227 114.586 254.196C118.145 250.871 117.068 245.345 117.021 245.064L96.5552 188.912L54.2191 158.425L46.3514 170.133C44.2908 174.254 43.5414 182.122 45.5084 188.303C47.4753 194.532 51.5497 199.543 56.6544 202.728L90.6076 240.24Z" fill="#6F0F37"/>
<path d="M49.4424 188.538C51.6435 194.673 55.8583 199.496 61.0567 202.54L75.8556 211.157L128.026 233.403C129.197 234.058 130.181 235.042 130.883 236.259C131.586 237.524 131.867 238.882 131.82 240.193L130.508 282.483L130.462 285.246L130.415 286.323L130.274 292.786L130.181 296.392L130.087 301.075L129.759 312.455L151.723 313.813L152.239 304.072V303.463L152.426 299.67L152.473 299.061L152.66 295.549L152.707 294.378L152.894 290.631L152.988 288.805L155.095 229C155.189 227.221 154.861 225.394 154.112 223.708C153.316 221.976 152.145 220.524 150.787 219.4L109.949 192.565L99.693 185.166L54.828 156.786L51.5966 165.356L49.6765 170.32C47.5222 175.987 47.2881 182.356 49.4424 188.538Z" fill="#7D1641"/>
<path d="M51.5967 165.356C54.5939 163.436 65.2248 170.648 73.795 177.017C81.3818 182.684 82.2248 190.926 82.2248 198.279C82.2248 205.584 79.087 212.328 75.9961 211.064C75.7151 210.97 75.6683 211.017 75.8556 211.157C77.5884 212.797 101.801 228.157 102.175 228.392C102.128 228.298 101.566 227.314 100.723 225.675C98.8033 221.648 95.5719 213.686 95.3377 204.648C95.0567 192.612 104.657 192.612 109.387 192.331L100.489 187.367L54.8281 156.786L51.5967 165.356Z" fill="#6F0F37"/>
<path d="M131.023 301.075L131.258 301.684C131.258 301.684 131.726 298.874 140.858 298.874C148.96 298.874 151.723 303.135 152.238 304.072V303.463L152.426 299.67L152.472 299.061L152.66 295.549L152.707 294.378L152.894 290.631L152.988 288.805L151.864 289.742H147.415L142.029 284.356L131.398 285.246L131.351 286.323L131.211 292.786L131.117 296.392L131.023 301.075Z" fill="#6F0F37"/>
<path d="M158.42 38.6285L161.277 70.7553C162.495 84.8049 174.858 95.1547 188.861 93.9371L190.547 93.7966C191.203 93.7341 191.858 93.6561 192.514 93.5624C205.533 91.4082 214.9 79.5597 213.729 66.1657L210.919 34.039C209.982 23.3613 202.583 14.7911 192.935 11.8407C189.891 10.9509 186.66 10.5762 183.288 10.8572L181.602 10.9977C167.599 12.2153 157.203 24.579 158.42 38.6285Z" fill="#E28366"/>
<path d="M171.673 39.2374L174.483 71.3641C175.42 82.0418 182.819 90.612 192.514 93.5624C205.533 91.4082 214.899 79.5597 213.729 66.1657L210.919 34.039C209.982 23.3613 202.583 14.7911 192.935 11.8407C179.869 13.9949 170.503 25.8434 171.673 39.2374Z" fill="#FEB187"/>
<path d="M165.07 30.6203C165.07 30.6203 168.489 32.6809 176.684 28.7002C185.208 24.5321 197.525 20.6451 212.839 37.9729C221.034 8.2346 188.814 -10.1235 166.662 7.9536C160.902 7.85994 135.894 29.871 161.792 53.8958C162.729 45.8875 165.07 30.6203 165.07 30.6203Z" fill="#7A3730"/>
<path d="M153.783 50.1492C151.723 54.5514 153.596 59.7966 157.998 61.904C162.447 63.9646 167.693 62.0445 169.753 57.6423C171.861 53.2401 169.941 47.9949 165.538 45.8875C161.136 43.8269 155.844 45.7002 153.783 50.1492Z" fill="#E28366"/>
<path d="M165.117 28.466L167.224 53.6148C167.224 53.6148 163.946 40.4082 155.891 47.3393C155.657 33.5239 165.117 28.466 165.117 28.466Z" fill="#7A3730"/>
<path d="M168.021 7.85995C167.178 6.08033 164.415 3.08309 160.153 5.14369C163.665 6.68915 166.335 12.2153 166.335 12.2153L168.021 7.85995Z" fill="#7A3730"/>
<path d="M169.754 6.50181C169.66 4.53487 168.349 0.694649 163.572 0.881977C166.194 3.69189 166.475 9.82688 166.475 9.82688L169.754 6.50181Z" fill="#7A3730"/>
<path d="M53.4229 155.989L89.5771 180.061L109.855 193.127L118.285 180.014L62.3678 142.923L53.4229 155.989Z" fill="#24293A"/>
<path d="M113.883 171.303L101.754 160.907L94.5883 162.921L96.4147 155.896L93.839 154.069L85.1751 155.849L89.0153 152.477L71.7811 138.943L68.9712 145.031L66.1613 135.196L63.1641 143.392L106.999 172.568L113.883 171.303Z" fill="#03318B"/>
<path d="M55.5303 153.039L98.1474 181.653C99.3182 182.449 100.91 182.122 101.707 180.951L104.142 177.392C104.938 176.268 104.61 174.675 103.439 173.879L60.7755 145.218L60.2603 146.014L55.5303 153.039Z" fill="#354059"/>
<path d="M55.624 318.449L59.2301 315.265L58.1061 315.031C58.0125 314.875 57.9032 314.703 57.7783 314.516L55.624 318.449Z" fill="#1C2035"/>
<path d="M186.613 54.2236C186.753 55.7222 185.629 57.0335 184.084 57.174C182.585 57.2677 181.274 56.1437 181.133 54.6451C181.04 53.0996 182.164 51.7883 183.662 51.6947C185.208 51.5542 186.519 52.6781 186.613 54.2236Z" fill="#47231C"/>
<path d="M205.205 51.9288C205.299 53.4274 204.175 54.7856 202.676 54.8792C201.131 55.0197 199.819 53.8489 199.726 52.3503C199.585 50.8517 200.709 49.5404 202.255 49.3999C203.753 49.3062 205.065 50.4302 205.205 51.9288Z" fill="#47231C"/>
<path d="M207.734 45.9812C207.734 45.9812 204.55 46.2153 199.023 43.6396" stroke="#572B22" stroke-width="5.1" stroke-miterlimit="10" stroke-linecap="round"/>
<path d="M180.01 46.6368C180.01 46.6368 183.194 46.4963 188.393 43.3117" stroke="#572B22" stroke-width="5.1" stroke-miterlimit="10" stroke-linecap="round"/>
<path d="M198.789 60.0776C198.134 60.8737 196.729 61.5294 195.043 61.6699C193.357 61.7635 191.858 61.3889 191.062 60.6396C190.781 61.0142 190.641 61.3889 190.641 61.7635C190.781 63.0748 192.795 63.9646 195.183 63.7773C197.619 63.59 199.492 62.3723 199.398 61.061C199.351 60.6864 199.117 60.3586 198.789 60.0776Z" fill="#F48967"/>
<path d="M188.814 74.9233C193.123 71.0362 198.321 72.207 201.318 73.3778" stroke="#D86E52" stroke-width="6.5" stroke-miterlimit="10" stroke-linecap="round"/>
<path d="M186.753 17.1795C192.701 19.0996 197.572 27.623 199.257 33.8985C199.257 33.8985 184.412 25.0473 176.684 28.7002C170.83 31.4164 169.191 22.9867 171.065 19.6148C172.938 16.2897 179.26 14.9316 179.26 14.9316L186.753 17.1795Z" fill="#7A3730"/>
<g style="mix-blend-mode:multiply">
<path d="M262.153 210.502L262.996 211.111C262.996 211.111 262.528 212.235 261.825 213.78C260.764 215.279 259.655 216.73 258.5 218.135C257.283 215.279 254.894 212.422 255.924 209.753C256.486 208.254 258.5 208.02 259.812 208.816L262.153 210.502Z" fill="#9BB2AE"/>
</g>
<g style="mix-blend-mode:multiply">
<path d="M262.996 211.111L263.464 210.455L263.886 210.736L264.588 211.251C264.526 211.595 264.479 211.922 264.448 212.235C264.261 212.016 264.042 211.829 263.792 211.673L263.418 211.438L262.996 211.111Z" fill="#9BB2AE"/>
</g>
<g style="mix-blend-mode:multiply">
<path d="M271.801 193.923C270.677 197.42 269.303 200.792 267.679 204.039L263.465 210.455L262.668 209.893L257.938 206.708C256.627 205.865 256.252 204.133 257.049 202.821C257.892 201.463 259.624 201.089 260.982 201.932L266.087 205.491H266.134C266.134 205.428 266.15 205.366 266.181 205.303C266.243 205.116 266.306 204.913 266.368 204.695L259.624 200.105C258.266 199.262 257.892 197.529 258.688 196.171C259.531 194.86 261.31 194.485 262.622 195.281L268.335 199.262C268.429 199.044 268.507 198.841 268.569 198.653L262.949 194.766C261.638 193.923 261.217 192.191 262.06 190.832C262.856 189.521 264.635 189.1 265.947 189.943L271.801 193.923Z" fill="#9BB2AE"/>
</g>
<path d="M265.244 189.006C264.401 190.364 264.823 192.097 266.134 192.94L273.299 197.764C274.611 198.606 276.39 198.232 277.186 196.874C278.029 195.562 277.608 193.83 276.296 192.987L269.131 188.116C267.82 187.273 266.087 187.695 265.244 189.006Z" fill="#FEB187"/>
<path d="M261.638 194.813C260.795 196.124 261.217 197.857 262.528 198.7L272.41 205.257C273.721 206.1 275.454 205.678 276.297 204.367C277.14 203.056 276.718 201.276 275.407 200.433L265.525 193.923C264.214 193.08 262.481 193.455 261.638 194.813Z" fill="#FEB187"/>
<path d="M259.718 201.838C258.875 203.149 259.296 204.929 260.608 205.772L267.773 210.595C269.084 211.438 270.864 211.017 271.66 209.706C272.503 208.394 272.128 206.662 270.77 205.819L263.605 200.948C262.294 200.105 260.561 200.527 259.718 201.838Z" fill="#FEB187"/>
<path d="M258.313 209.191C257.47 210.549 257.891 212.281 259.203 213.124L263.183 215.981C264.495 216.777 266.228 216.403 267.071 215.045C267.914 213.733 267.492 212 266.181 211.157L262.2 208.301C260.889 207.458 259.156 207.879 258.313 209.191Z" fill="#FEB187"/>
<path d="M165.679 217.152L138.985 170.18L165.679 217.152Z" fill="#03318B"/>
<path d="M165.679 217.152L138.985 170.18" stroke="#03318B" stroke-width="42" stroke-miterlimit="10" stroke-linecap="round"/>
<path d="M112.946 176.455L118.285 180.014L109.855 193.127L104.47 189.662L112.946 176.455Z" fill="#2C344C"/>
<path fill-rule="evenodd" clip-rule="evenodd" d="M96.1804 181.887L96.8829 187.835C97.2575 191.488 94.6818 194.719 91.0757 195.141C87.4228 195.562 84.1914 192.94 83.7699 189.334L83.1143 183.339C82.6928 179.733 85.3154 176.455 88.9215 176.08C92.5275 175.659 95.8058 178.281 96.1804 181.887ZM93.3237 188.257L92.668 182.262C92.4807 180.623 90.9821 179.405 89.2961 179.593C87.657 179.78 86.4394 181.279 86.6267 182.965L87.3292 188.912C87.5165 190.598 89.0151 191.769 90.6542 191.582C92.2934 191.394 93.511 189.896 93.3237 188.257Z" fill="#24293A"/>
<path fill-rule="evenodd" clip-rule="evenodd" d="M96.7891 202.821L97.2575 208.816C97.5384 212.469 94.8222 215.653 91.2161 215.934C87.5632 216.215 84.3787 213.499 84.0977 209.893L83.6294 203.898C83.3484 200.246 86.0646 197.061 89.6707 196.78C93.3236 196.499 96.5081 199.215 96.7891 202.821ZM93.6982 209.097L93.2299 203.102C93.0894 201.463 91.6376 200.199 89.9517 200.339C88.3125 200.48 87.0481 201.932 87.1886 203.618L87.6569 209.612C87.7974 211.251 89.2492 212.516 90.9351 212.375C92.5743 212.235 93.8387 210.783 93.6982 209.097Z" fill="#24293A"/>
<path fill-rule="evenodd" clip-rule="evenodd" d="M98.1944 223.1L99.0842 229.047C99.5993 232.653 97.1172 236.025 93.5112 236.54C89.9051 237.056 86.5801 234.573 86.0181 230.967L85.1751 225.067C84.6131 221.46 87.0952 218.089 90.7013 217.573C94.3073 217.011 97.6792 219.494 98.1944 223.1ZM95.5718 229.562L94.682 223.615C94.401 221.976 92.9024 220.852 91.2164 221.086C89.5773 221.32 88.4533 222.865 88.6875 224.505L89.5773 230.452C89.8115 232.138 91.3569 233.262 92.996 233.028C94.6351 232.794 95.8059 231.248 95.5718 229.562Z" fill="#24293A"/>
<path fill-rule="evenodd" clip-rule="evenodd" d="M100.863 242.582L102.83 248.248C104.048 251.667 102.268 255.46 98.8028 256.631C95.3841 257.849 91.6376 256.069 90.4199 252.604L88.4061 246.937C87.1885 243.518 89.015 239.772 92.4337 238.554C95.8524 237.337 99.6458 239.163 100.863 242.582ZM99.5053 249.419L97.4915 243.753C96.9296 242.16 95.1968 241.364 93.6045 241.926C92.059 242.441 91.2161 244.174 91.7781 245.766L93.7918 251.433C94.3538 253.025 96.0866 253.821 97.632 253.259C99.2243 252.744 100.02 251.011 99.5053 249.419Z" fill="#24293A"/>
<path fill-rule="evenodd" clip-rule="evenodd" d="M107.982 259.722L111.822 264.359C114.117 267.122 113.742 271.29 110.932 273.631C108.122 275.926 103.954 275.551 101.66 272.741L97.8195 268.105C95.5247 265.295 95.8994 261.127 98.7093 258.832C101.519 256.491 105.687 256.912 107.982 259.722ZM109.059 266.606L105.219 261.97C104.189 260.706 102.268 260.518 100.957 261.595C99.6927 262.626 99.5054 264.546 100.583 265.81L104.376 270.447C105.453 271.758 107.373 271.945 108.638 270.868C109.949 269.791 110.136 267.918 109.059 266.606Z" fill="#24293A"/>
<path fill-rule="evenodd" clip-rule="evenodd" d="M120.205 273.772L125.263 277.003C128.354 278.923 129.244 282.998 127.324 286.089C125.357 289.133 121.283 290.069 118.238 288.149L113.134 284.918C110.09 282.998 109.153 278.876 111.073 275.832C113.04 272.741 117.114 271.852 120.205 273.772ZM123.343 280L118.285 276.769C116.88 275.879 115.007 276.301 114.117 277.752C113.227 279.157 113.649 281.031 115.054 281.921L120.112 285.105C121.563 285.995 123.39 285.573 124.327 284.168C125.216 282.764 124.795 280.89 123.343 280Z" fill="#24293A"/>
<path fill-rule="evenodd" clip-rule="evenodd" d="M135.613 283.185L141.608 283.653C145.26 283.934 147.977 287.072 147.696 290.725C147.415 294.331 144.277 297.047 140.624 296.813L134.63 296.345C131.024 296.064 128.307 292.926 128.541 289.273C128.822 285.667 132.007 282.951 135.613 283.185ZM141.373 287.213L135.379 286.744C133.693 286.651 132.241 287.868 132.101 289.554C132.007 291.24 133.225 292.692 134.911 292.786L140.905 293.254C142.591 293.348 144.043 292.083 144.136 290.444C144.277 288.758 143.012 287.306 141.373 287.213Z" fill="#24293A"/>
<path fill-rule="evenodd" clip-rule="evenodd" d="M155.47 284.73L161.464 284.309C165.07 284.075 168.208 286.838 168.489 290.444C168.723 294.097 165.96 297.235 162.354 297.469L156.359 297.89C152.707 298.124 149.569 295.361 149.335 291.755C149.054 288.149 151.817 284.965 155.47 284.73ZM161.698 287.868L155.704 288.29C154.018 288.383 152.753 289.835 152.894 291.521C152.988 293.16 154.439 294.425 156.078 294.331L162.12 293.91C163.759 293.816 165.023 292.364 164.93 290.678C164.789 289.039 163.337 287.775 161.698 287.868Z" fill="#24293A"/>
<path d="M92.8084 191.91C92.902 190.505 91.8249 189.287 90.4199 189.193C89.015 189.1 87.7973 190.177 87.7037 191.582L87.2354 199.73C87.1885 201.135 88.2657 202.353 89.6706 202.447C91.0756 202.494 92.2932 201.416 92.34 200.011L92.8084 191.91Z" fill="#24293A"/>
<path d="M93.8854 212.562C93.8854 211.157 92.7147 210.033 91.3097 210.033C89.9047 210.033 88.7808 211.157 88.7808 212.609V220.711C88.7808 222.116 89.9516 223.287 91.3565 223.287C92.7615 223.287 93.8854 222.116 93.8854 220.711V212.562Z" fill="#24293A"/>
<path d="M95.3841 233.356C95.1968 231.951 93.9324 230.921 92.5274 231.108C91.1224 231.248 90.139 232.513 90.2795 233.918L91.2161 242.02C91.4034 243.425 92.6679 244.408 94.0729 244.268C95.4778 244.08 96.4613 242.816 96.3208 241.411L95.3841 233.356Z" fill="#24293A"/>
<path d="M100.349 252.463C99.7398 251.199 98.1943 250.637 96.9298 251.246C95.6654 251.854 95.1034 253.353 95.7122 254.618L99.1778 262.017C99.7866 263.281 101.285 263.843 102.55 263.235C103.861 262.626 104.376 261.08 103.814 259.816L100.349 252.463Z" fill="#24293A"/>
<path d="M110.792 269.463C109.902 268.339 108.263 268.199 107.186 269.089C106.109 270.025 105.968 271.618 106.858 272.695L112.056 278.97C112.946 280.047 114.538 280.235 115.616 279.298C116.74 278.408 116.88 276.816 115.99 275.739L110.792 269.463Z" fill="#24293A"/>
<path d="M125.872 282.155C124.701 281.405 123.109 281.733 122.359 282.951C121.61 284.122 121.985 285.714 123.156 286.463L130.04 290.819C131.211 291.568 132.803 291.24 133.552 290.022C134.302 288.852 133.974 287.259 132.756 286.51L125.872 282.155Z" fill="#24293A"/>
<path d="M144.511 288.337C143.106 288.337 141.935 289.46 141.935 290.865C141.935 292.317 143.106 293.441 144.511 293.441H152.66C154.065 293.441 155.188 292.27 155.188 290.865C155.188 289.46 154.065 288.337 152.66 288.337H144.511Z" fill="#24293A"/>
<path d="M164.743 288.243C163.338 288.43 162.401 289.695 162.588 291.1C162.776 292.505 164.087 293.488 165.445 293.301L173.5 292.13C174.905 291.943 175.889 290.678 175.701 289.273C175.514 287.868 174.203 286.885 172.798 287.072L164.743 288.243Z" fill="#24293A"/>
<path d="M189.095 241.973C190.875 245.954 190.594 246.141 191.483 248.529C192.186 250.543 187.924 252.838 186.238 249.326C184.131 244.83 184.599 244.549 184.599 244.549L187.081 241.786L189.095 241.973Z" fill="#FEB187"/>
<defs>
<linearGradient id="paint0_linear_113_3112" x1="94.8356" y1="211.028" x2="210.049" y2="-3.35731" gradientUnits="userSpaceOnUse">
<stop stop-color="#24293A"/>
<stop offset="1" stop-color="#354059"/>
</linearGradient>
</defs>
</svg>
