<svg xmlns="http://www.w3.org/2000/svg" width="290" height="320" viewBox="0 0 290 320" fill="none">
  <path fill="#03318B" stroke="#fff" stroke-width="1.8" d="M257.002 168.526a125.996 125.996 0 0 0-81.819-118 126.001 126.001 0 0 0-139.198 35.25L90.28 133.06a54.001 54.001 0 0 1 94.721 35.465h72Z"/>
  <path fill="#7D1641" stroke="#fff" stroke-width="1.8" d="M35.984 85.775a126.002 126.002 0 0 0 50.837 200.751 125.993 125.993 0 0 0 115.976-14.456 126 126 0 0 0 54.204-103.544h-72a54.005 54.005 0 0 1-23.23 44.376 54.003 54.003 0 0 1-70.999-8.354 53.998 53.998 0 0 1-.492-71.487L35.984 85.775Z"/>
  <path fill="#03318B" d="M283.871 16.441c-1.212 0-2.255-.245-3.13-.736a5.041 5.041 0 0 1-2.009-2.102c-.471-.91-.706-1.986-.706-3.23 0-1.211.235-2.275.706-3.19a5.212 5.212 0 0 1 1.986-2.14c.859-.511 1.867-.767 3.022-.767.778 0 1.501.125 2.171.376a4.814 4.814 0 0 1 1.764 1.112c.507.496.9 1.12 1.182 1.872.281.746.421 1.62.421 2.623v.897h-9.948V9.131h6.873c0-.47-.103-.887-.307-1.25a2.203 2.203 0 0 0-.852-.851c-.358-.21-.774-.315-1.25-.315-.496 0-.936.115-1.319.345-.379.225-.675.53-.89.913-.215.378-.325.8-.33 1.266v1.925c0 .583.108 1.087.322 1.511.22.425.53.752.928.982.399.23.872.345 1.419.345.364 0 .696-.051.998-.153.301-.103.56-.256.774-.46.215-.205.379-.456.491-.752l3.022.2a4.118 4.118 0 0 1-.943 1.901c-.471.537-1.079.957-1.826 1.258-.741.297-1.598.445-2.569.445ZM270.962 16.441c-1.212 0-2.256-.245-3.13-.736a5.05 5.05 0 0 1-2.01-2.102c-.47-.91-.705-1.986-.705-3.23 0-1.211.235-2.275.705-3.19a5.22 5.22 0 0 1 1.987-2.14c.859-.511 1.867-.767 3.022-.767a6.15 6.15 0 0 1 2.171.376 4.814 4.814 0 0 1 1.764 1.112c.506.496.9 1.12 1.181 1.872.282.746.422 1.62.422 2.623v.897h-9.948V9.131h6.872c0-.47-.102-.887-.306-1.25a2.203 2.203 0 0 0-.852-.851c-.358-.21-.775-.315-1.25-.315-.496 0-.936.115-1.319.345-.379.225-.675.53-.89.913-.215.378-.325.8-.33 1.266v1.925c0 .583.107 1.087.322 1.511.22.425.529.752.928.982.399.23.872.345 1.419.345.363 0 .696-.051.997-.153.302-.103.56-.256.775-.46.215-.205.379-.456.491-.752l3.022.2a4.128 4.128 0 0 1-.943 1.901c-.471.537-1.079.957-1.826 1.258-.741.297-1.598.445-2.569.445ZM257.302 16.211V4.43h3.168v2.056h.123c.215-.731.575-1.284 1.081-1.657a2.846 2.846 0 0 1 1.749-.567c.164 0 .34.01.53.03.189.02.355.049.498.085v2.899a4.265 4.265 0 0 0-.637-.123 5.718 5.718 0 0 0-.744-.053c-.48 0-.91.104-1.288.314-.374.205-.67.491-.89.86a2.478 2.478 0 0 0-.322 1.272v6.666h-3.268ZM244.918 16.211V.502h10.402V3.24h-7.08v3.743h6.389v2.739h-6.389v6.489h-3.322ZM237.729 4.43v2.454h-7.095V4.429h7.095Zm-5.484-2.824h3.267V12.59c0 .302.046.537.138.706a.76.76 0 0 0 .384.345c.169.067.363.1.583.1a2.8 2.8 0 0 0 .46-.038l.353-.07.514 2.432a9.25 9.25 0 0 1-.691.177 5.532 5.532 0 0 1-1.081.13c-.788.03-1.478-.074-2.071-.314a2.89 2.89 0 0 1-1.373-1.12c-.327-.507-.489-1.146-.483-1.918V1.606ZM217.792 16.211V.502h3.267v5.906h.1c.143-.317.35-.639.621-.966a3.272 3.272 0 0 1 1.074-.829c.445-.225.997-.337 1.657-.337.859 0 1.652.225 2.378.675.726.445 1.306 1.117 1.741 2.017.435.895.652 2.017.652 3.367 0 1.315-.212 2.424-.637 3.33-.419.9-.992 1.582-1.718 2.048a4.41 4.41 0 0 1-2.424.69c-.634 0-1.173-.105-1.618-.315a3.344 3.344 0 0 1-1.082-.79 4.01 4.01 0 0 1-.644-.974h-.146v1.887h-3.221Zm3.198-5.89c0 .7.097 1.31.292 1.832.194.522.475.928.843 1.22.368.286.816.43 1.343.43.531 0 .981-.146 1.35-.438.368-.296.647-.705.836-1.227.194-.527.291-1.133.291-1.818 0-.68-.094-1.278-.284-1.795-.189-.516-.468-.92-.836-1.212-.368-.291-.82-.437-1.357-.437-.532 0-.982.14-1.35.422-.363.281-.642.68-.836 1.197-.195.516-.292 1.125-.292 1.825ZM210.19 16.441c-1.212 0-2.255-.245-3.129-.736a5.038 5.038 0 0 1-2.01-2.102c-.471-.91-.706-1.986-.706-3.23 0-1.211.235-2.275.706-3.19a5.214 5.214 0 0 1 1.987-2.14c.859-.511 1.866-.767 3.022-.767a6.14 6.14 0 0 1 2.17.376 4.817 4.817 0 0 1 1.765 1.112c.506.496.9 1.12 1.181 1.872.281.746.422 1.62.422 2.623v.897h-9.949V9.131h6.873c0-.47-.102-.887-.307-1.25a2.194 2.194 0 0 0-.851-.851c-.358-.21-.775-.315-1.251-.315-.496 0-.935.115-1.319.345-.378.225-.675.53-.89.913-.214.378-.324.8-.33 1.266v1.925c0 .583.108 1.087.323 1.511.22.425.529.752.928.982.399.23.872.345 1.419.345.363 0 .695-.051.997-.153.302-.103.56-.256.775-.46.214-.205.378-.456.491-.752l3.022.2a4.13 4.13 0 0 1-.944 1.901c-.47.537-1.079.957-1.825 1.258-.742.297-1.598.445-2.57.445ZM194.736 16.211h-5.569V.502h5.615c1.58 0 2.941.314 4.081.943a6.369 6.369 0 0 1 2.631 2.693c.619 1.17.928 2.572.928 4.203 0 1.637-.309 3.043-.928 4.219a6.383 6.383 0 0 1-2.646 2.708c-1.146.629-2.516.943-4.112.943Zm-2.247-2.846h2.109c.982 0 1.808-.174 2.478-.521.675-.353 1.181-.898 1.518-1.634.343-.742.514-1.698.514-2.869 0-1.16-.171-2.11-.514-2.846-.337-.736-.841-1.278-1.511-1.626-.669-.347-1.495-.521-2.477-.521h-2.117v10.017Z"/>
  <path fill="#7D1641" d="M73.773 307.859v2.454h-7.095v-2.454h7.095Zm-5.484-2.823h3.268v10.984c0 .302.046.537.138.706.092.164.22.279.383.345.169.067.363.1.583.1.154 0 .307-.013.46-.039l.353-.069.514 2.432c-.163.051-.394.11-.69.176a5.55 5.55 0 0 1-1.082.131c-.787.03-1.478-.074-2.07-.315a2.884 2.884 0 0 1-1.374-1.12c-.327-.506-.488-1.145-.483-1.917v-11.414ZM53.836 319.641v-15.709h3.267v5.906h.1a4.34 4.34 0 0 1 .622-.967 3.281 3.281 0 0 1 1.073-.828c.445-.225.998-.337 1.657-.337.86 0 1.652.225 2.378.675.726.444 1.307 1.117 1.741 2.017.435.895.652 2.017.652 3.367 0 1.314-.212 2.424-.636 3.329-.42.9-.992 1.583-1.719 2.048-.72.46-1.528.69-2.423.69-.635 0-1.174-.104-1.619-.314-.44-.21-.8-.473-1.081-.79a4.012 4.012 0 0 1-.645-.974h-.146v1.887h-3.221Zm3.199-5.891c0 .7.097 1.311.291 1.833.194.522.476.928.844 1.22.368.286.815.429 1.342.429.532 0 .982-.146 1.35-.437.368-.297.647-.706.836-1.227.194-.527.292-1.133.292-1.818 0-.68-.095-1.279-.284-1.795-.19-.517-.468-.921-.836-1.212-.368-.291-.821-.437-1.358-.437-.532 0-.982.14-1.35.422-.363.281-.642.68-.836 1.196-.194.517-.291 1.125-.291 1.826ZM46.234 319.871c-1.211 0-2.255-.246-3.129-.736a5.045 5.045 0 0 1-2.01-2.102c-.47-.91-.705-1.987-.705-3.229 0-1.212.235-2.276.705-3.191a5.21 5.21 0 0 1 1.987-2.14c.86-.512 1.867-.767 3.022-.767.777 0 1.501.125 2.17.375a4.825 4.825 0 0 1 1.765 1.113c.506.496.9 1.12 1.181 1.871.282.747.422 1.621.422 2.624v.897h-9.948v-2.025h6.872c0-.47-.102-.887-.306-1.25a2.202 2.202 0 0 0-.852-.852c-.358-.209-.775-.314-1.25-.314-.496 0-.936.115-1.32.345a2.418 2.418 0 0 0-.89.913c-.214.378-.324.8-.33 1.265v1.926c0 .583.108 1.086.323 1.511.22.424.53.751.928.982.4.23.872.345 1.42.345.362 0 .695-.051.996-.154a2.06 2.06 0 0 0 .775-.46c.215-.204.378-.455.491-.752l3.022.2a4.126 4.126 0 0 1-.943 1.902c-.47.537-1.08.956-1.826 1.258-.741.297-1.598.445-2.57.445ZM30.78 319.641h-5.569v-15.709h5.615c1.58 0 2.94.314 4.08.943a6.365 6.365 0 0 1 2.632 2.692c.619 1.171.928 2.573.928 4.204 0 1.636-.31 3.042-.928 4.219a6.377 6.377 0 0 1-2.646 2.707c-1.146.629-2.516.944-4.112.944Zm-2.247-2.846h2.11c.98 0 1.807-.174 2.477-.522.675-.352 1.18-.897 1.518-1.633.343-.742.514-1.698.514-2.869 0-1.161-.171-2.11-.514-2.846-.337-.736-.84-1.278-1.51-1.626-.67-.348-1.496-.522-2.478-.522h-2.117v10.018ZM9.982 312.829v6.812H6.714v-11.782H9.83v2.079h.138a3.28 3.28 0 0 1 1.311-1.626c.614-.404 1.358-.606 2.232-.606.819 0 1.532.179 2.14.536a3.65 3.65 0 0 1 1.42 1.535c.337.659.506 1.447.506 2.362v7.502h-3.268v-6.919c.005-.721-.179-1.283-.552-1.687-.373-.41-.887-.614-1.542-.614-.44 0-.828.095-1.166.284a1.976 1.976 0 0 0-.782.828c-.184.358-.279.79-.284 1.296ZM4.043 303.932v15.709H.722v-15.709h3.321Z"/>
  <path fill="#fff" d="M104.724 250.764v-.829c0-.629.133-1.207.399-1.733a3.163 3.163 0 0 1 1.173-1.274c.517-.322 1.146-.483 1.887-.483.752 0 1.383.159 1.895.476.516.317.905.741 1.166 1.273.266.527.399 1.107.399 1.741v.829c0 .629-.133 1.209-.399 1.741a3.105 3.105 0 0 1-1.174 1.265c-.516.323-1.145.484-1.887.484-.752 0-1.383-.161-1.894-.484a3.12 3.12 0 0 1-1.166-1.265 3.837 3.837 0 0 1-.399-1.741Zm2.232-.829v.829c0 .363.087.705.261 1.027.179.323.501.484.966.484.465 0 .783-.159.951-.476.174-.317.261-.662.261-1.035v-.829c0-.373-.082-.721-.245-1.043-.164-.322-.486-.483-.967-.483-.46 0-.78.161-.959.483-.179.322-.268.67-.268 1.043Zm-10.294-8.161v-.829c0-.634.136-1.214.407-1.741a3.16 3.16 0 0 1 1.173-1.273c.517-.317 1.14-.476 1.872-.476.757 0 1.391.159 1.902.476.511.317.9.741 1.166 1.273.266.527.399 1.107.399 1.741v.829a3.75 3.75 0 0 1-.407 1.741 3.106 3.106 0 0 1-1.173 1.266c-.512.312-1.141.468-1.887.468-.747 0-1.378-.159-1.895-.476a3.183 3.183 0 0 1-1.166-1.266 3.848 3.848 0 0 1-.39-1.733Zm2.248-.829v.829c0 .373.087.718.26 1.035.18.317.494.476.944.476.47 0 .79-.159.959-.476.173-.317.26-.662.26-1.035v-.829c0-.373-.081-.721-.245-1.043-.164-.322-.488-.483-.974-.483-.455 0-.77.164-.944.491-.174.327-.26.672-.26 1.035Zm-1.235 12.764 10.8-15.709h2.009l-10.8 15.709h-2.01ZM87.414 254.054c-1.32-.005-2.455-.33-3.406-.974-.946-.644-1.674-1.578-2.186-2.8-.506-1.222-.757-2.692-.752-4.41 0-1.713.254-3.173.76-4.38.511-1.207 1.24-2.125 2.186-2.754.951-.634 2.084-.951 3.398-.951s2.444.317 3.39.951c.951.634 1.683 1.555 2.194 2.762.511 1.201.764 2.659.76 4.372 0 1.723-.256 3.196-.768 4.418-.506 1.222-1.232 2.155-2.178 2.8-.946.644-2.079.966-3.398.966Zm0-2.754c.9 0 1.618-.452 2.155-1.357.537-.905.803-2.263.798-4.073 0-1.192-.123-2.184-.368-2.976-.24-.793-.583-1.389-1.028-1.788a2.245 2.245 0 0 0-1.557-.598c-.895 0-1.61.448-2.148 1.342-.537.895-.808 2.235-.813 4.02 0 1.207.12 2.214.36 3.022.246.803.591 1.406 1.036 1.81.445.399.967.598 1.565.598ZM72.834 253.924c-1.181 0-2.232-.192-3.153-.575-.915-.389-1.633-.918-2.155-1.588a3.612 3.612 0 0 1-.782-2.278c0-.655.148-1.256.445-1.803.301-.552.71-1.01 1.227-1.373a4.058 4.058 0 0 1 1.733-.706v-.107c-.838-.169-1.518-.575-2.04-1.22-.522-.649-.782-1.403-.782-2.262 0-.813.237-1.537.713-2.171.475-.639 1.127-1.141 1.956-1.504.833-.368 1.78-.552 2.838-.552s2.002.184 2.83.552c.834.369 1.489.872 1.964 1.512a3.55 3.55 0 0 1 .721 2.163c-.005.864-.271 1.618-.798 2.262a3.427 3.427 0 0 1-2.025 1.22v.107c.63.103 1.2.338 1.71.706.517.363.926.821 1.228 1.373.307.547.463 1.148.468 1.803a3.65 3.65 0 0 1-.79 2.278c-.522.67-1.243 1.199-2.163 1.588-.915.383-1.964.575-3.145.575Zm0-2.439c.527 0 .987-.095 1.38-.284.394-.195.701-.46.921-.798.225-.343.338-.736.338-1.181a2.13 2.13 0 0 0-.346-1.204 2.378 2.378 0 0 0-.935-.829c-.394-.204-.847-.307-1.358-.307a2.94 2.94 0 0 0-1.358.307c-.398.2-.713.476-.943.829a2.165 2.165 0 0 0-.338 1.204c0 .445.11.838.33 1.181.22.338.53.603.928.798.4.189.86.284 1.381.284Zm0-7.019c.44 0 .831-.089 1.174-.268.342-.179.61-.427.805-.744.194-.317.291-.683.291-1.097a1.965 1.965 0 0 0-1.089-1.803c-.337-.179-.731-.268-1.181-.268-.445 0-.839.089-1.181.268a1.987 1.987 0 0 0-.806.729c-.189.307-.283.665-.283 1.074 0 .414.097.78.291 1.097.194.317.463.565.805.744.343.179.734.268 1.174.268ZM178.049 90.764v-.829c0-.629.133-1.207.399-1.733a3.163 3.163 0 0 1 1.173-1.274c.517-.322 1.146-.483 1.887-.483.752 0 1.384.159 1.895.476.516.317.905.741 1.166 1.273.266.527.399 1.107.399 1.741v.829c0 .629-.133 1.209-.399 1.74a3.103 3.103 0 0 1-1.174 1.266c-.516.323-1.145.484-1.887.484-.751 0-1.383-.162-1.894-.484a3.117 3.117 0 0 1-1.166-1.265 3.838 3.838 0 0 1-.399-1.741Zm2.232-.829v.829c0 .363.087.705.261 1.027.179.323.501.484.966.484.466 0 .783-.159.951-.476.174-.317.261-.662.261-1.035v-.829c0-.373-.082-.72-.245-1.043-.164-.322-.486-.483-.967-.483-.46 0-.78.16-.958.483-.179.322-.269.67-.269 1.043Zm-10.294-8.161v-.829c0-.634.136-1.214.407-1.74a3.163 3.163 0 0 1 1.173-1.274c.517-.317 1.141-.476 1.872-.476.757 0 1.391.159 1.902.476.512.317.9.741 1.166 1.273.266.527.399 1.107.399 1.741v.829c0 .634-.135 1.214-.406 1.741a3.109 3.109 0 0 1-1.174 1.266c-.511.311-1.14.468-1.887.468-.747 0-1.378-.159-1.895-.476a3.189 3.189 0 0 1-1.166-1.266 3.863 3.863 0 0 1-.391-1.733Zm2.248-.829v.829c0 .373.087.718.261 1.035.179.317.493.476.943.476.47 0 .79-.159.959-.476.174-.317.261-.662.261-1.035v-.829c0-.373-.082-.72-.246-1.043-.163-.322-.488-.483-.974-.483-.455 0-.77.164-.943.49a2.175 2.175 0 0 0-.261 1.036ZM171 93.71l10.8-15.71h2.009l-10.8 15.71H171ZM160.739 94.054c-1.32-.005-2.455-.33-3.406-.974-.946-.644-1.675-1.578-2.186-2.8-.506-1.222-.757-2.692-.752-4.41 0-1.713.253-3.173.759-4.38.512-1.207 1.241-2.125 2.187-2.754.951-.634 2.083-.95 3.398-.95 1.314 0 2.444.316 3.39.95.951.634 1.682 1.555 2.194 2.762.511 1.201.764 2.659.759 4.372 0 1.723-.256 3.196-.767 4.418-.506 1.222-1.232 2.155-2.178 2.8-.946.644-2.079.966-3.398.966Zm0-2.754c.9 0 1.618-.452 2.155-1.357.537-.905.803-2.263.798-4.073 0-1.192-.123-2.184-.368-2.976-.241-.793-.583-1.389-1.028-1.788a2.242 2.242 0 0 0-1.557-.598c-.895 0-1.611.448-2.148 1.343-.537.894-.808 2.234-.813 4.019 0 1.207.12 2.214.36 3.022.246.803.591 1.406 1.036 1.81.445.4.966.599 1.565.599ZM140.974 93.709v-2.393l5.591-5.178c.476-.46.875-.874 1.197-1.242.327-.368.575-.729.744-1.082.169-.358.253-.744.253-1.158 0-.46-.105-.857-.314-1.189a2.066 2.066 0 0 0-.859-.775 2.693 2.693 0 0 0-1.235-.276c-.481 0-.9.097-1.258.292a2.014 2.014 0 0 0-.829.836c-.194.363-.291.795-.291 1.296h-3.153c0-1.028.233-1.92.698-2.677.466-.757 1.118-1.342 1.956-1.757.839-.414 1.805-.62 2.9-.62 1.125 0 2.104.199 2.938.597.838.394 1.49.941 1.955 1.642.466.7.698 1.503.698 2.408 0 .594-.117 1.18-.352 1.757-.23.578-.642 1.22-1.235 1.925-.593.7-1.43 1.542-2.509 2.524l-2.293 2.247v.108h6.597v2.715h-11.199Z"/>
</svg>
