<svg width="248" height="292" viewBox="0 0 248 292" fill="none" xmlns="http://www.w3.org/2000/svg">
<g clip-path="url(#clip0_3_2)">
<mask id="mask0_3_2" style="mask-type:luminance" maskUnits="userSpaceOnUse" x="-1" y="0" width="250" height="293">
<path d="M-0.28125 0H248.151V292.302H-0.28125V0Z" fill="white"/>
</mask>
<g mask="url(#mask0_3_2)">
<path d="M62.3802 9.86978V14.7344C62.3802 16.3542 61.1406 17.7031 59.5313 17.8385L2.88023 22.6562C1.21877 22.7969 -0.0312294 24.2083 0.0260626 25.8698C0.947939 51.5937 15.8542 225.521 33.9636 290.255C34.3177 291.521 35.7709 292.135 37.0781 292.005C56.7448 290.047 207.094 270.135 209.078 268.151C211.172 266.052 241.625 262.437 248.005 223.635C248.161 222.693 248.156 221.724 248.026 220.776L222.333 6.97915C222.115 5.37499 220.828 3.71874 219.214 3.80207L161.271 6.85415C159.833 6.92707 158.531 6.0104 158.12 4.6354L157.422 2.30207C157 0.901027 155.661 -0.0208479 154.203 0.0885268L65.2656 6.76561C63.6406 6.8854 62.3802 8.23957 62.3802 9.86978Z" fill="#7E70A9"/>
</g>
<path d="M10.5416 31.401C10.5416 31.401 20.8333 208.698 38.7031 283.016C38.7031 283.016 191.609 263.375 203.766 262.313C215.927 261.25 241.901 222.76 241.901 222.76L213.917 13.3802L10.5416 31.401Z" fill="#E7E2F5"/>
<path d="M53.0416 88.3333C53.2448 88.3333 53.4635 88.4844 53.4948 88.7396L55.4323 106.943C55.4583 107.193 55.276 107.422 55.026 107.448L36.7708 109.391C36.5729 109.391 36.3489 109.234 36.3229 108.979L34.3802 90.7812C34.3541 90.526 34.5364 90.3021 34.7864 90.276L52.9896 88.3333C53.0052 88.3333 53.026 88.3333 53.0416 88.3333ZM53.0416 85.1458C52.9114 85.1458 52.7812 85.1562 52.651 85.1666L34.4531 87.1094C32.4479 87.3229 31 89.1146 31.2135 91.1146L33.1562 109.318C33.3541 111.187 34.9323 112.573 36.7708 112.573C36.901 112.573 37.0312 112.568 37.1614 112.552L55.3646 110.615C57.3646 110.401 58.8125 108.604 58.5989 106.604L56.6614 88.4062C56.4583 86.5364 54.8802 85.1458 53.0416 85.1458Z" fill="#03318B"/>
<path d="M77.2135 94.3906L83.8854 93.6771L84.8177 102.427L82.3802 102.687L81.9271 100.917C81.4531 101.703 80.8073 102.292 79.9896 102.693C79.1719 103.089 78.25 103.344 77.224 103.453C75.6146 103.625 74.1823 103.443 72.9323 102.906C71.6771 102.37 70.6615 101.516 69.8854 100.349C69.1042 99.1771 68.625 97.7344 68.4427 96.0156C68.25 94.2344 68.4531 92.6354 69.0417 91.2187C69.6354 89.7969 70.5625 88.6406 71.8281 87.7396C73.0937 86.8385 74.6354 86.2917 76.4479 86.099C77.9323 85.9427 79.2292 86.0781 80.349 86.5208C81.4583 86.9583 82.4219 87.6927 83.2344 88.724L81.0573 90.7031C80.5469 89.9896 79.9115 89.4948 79.151 89.2083C78.3854 88.9219 77.5677 88.8281 76.7031 88.9167C75.5365 89.0417 74.5521 89.4062 73.7448 90.0104C72.9375 90.6146 72.3542 91.401 71.9896 92.3646C71.6198 93.3281 71.5 94.4167 71.6302 95.6302C71.8177 97.3958 72.4062 98.7135 73.401 99.5885C74.3958 100.464 75.6771 100.818 77.2344 100.651C77.974 100.573 78.6667 100.365 79.2969 100.026C79.9323 99.6875 80.4271 99.2344 80.7917 98.6615C81.151 98.0885 81.2917 97.4167 81.2083 96.6406L81.1927 96.5L77.4792 96.8958L77.2135 94.3906Z" fill="#03318B"/>
<path d="M94.2448 92.1667C93.9219 92.0885 93.5105 92.0781 93.0209 92.1302C92.1719 92.2187 91.5209 92.6042 91.0625 93.2812C90.6094 93.9635 90.3334 94.9948 90.2344 96.3854C90.1355 97.776 90.2084 99.5885 90.4427 101.828L87.5834 102.135L86.7605 94.4219L86.2865 90.1927L89.1719 89.8854L89.3855 93.2344C89.6615 91.9115 90.1355 90.9479 90.8073 90.3333C91.4844 89.7187 92.2396 89.3646 93.0782 89.276C93.3282 89.25 93.5677 89.2396 93.7917 89.25C94.0157 89.2552 94.2292 89.2812 94.4219 89.3229L94.2448 92.1667Z" fill="#03318B"/>
<path d="M100.979 88.4375C102.76 88.2448 104.213 88.6302 105.344 89.5833C106.474 90.5417 107.135 91.9271 107.333 93.7396C107.463 94.9688 107.323 96.0938 106.917 97.1198C106.505 98.1406 105.865 98.9844 104.995 99.6406C104.125 100.302 103.073 100.698 101.844 100.828C100.062 101.016 98.6093 100.641 97.4739 99.6927C96.3489 98.7448 95.6822 97.3542 95.4895 95.526C95.3593 94.2969 95.4999 93.1667 95.9062 92.1458C96.3124 91.1198 96.9531 90.2813 97.8124 89.6198C98.677 88.9635 99.7343 88.5677 100.979 88.4375ZM101.667 98.2865C102.599 98.1875 103.307 97.7552 103.802 96.9844C104.292 96.2135 104.479 95.2396 104.349 94.0573C104.234 92.9844 103.901 92.1823 103.338 91.651C102.781 91.1198 102.068 90.901 101.203 90.9948C100.24 91.099 99.5104 91.5313 99.0208 92.3021C98.5312 93.0729 98.3437 94.0417 98.4687 95.2083C98.5833 96.2813 98.9218 97.0885 99.4791 97.625C100.042 98.1615 100.771 98.3854 101.667 98.2865Z" fill="#03318B"/>
<path d="M115.844 99.3333C114.031 99.5312 112.542 99.1562 111.37 98.2187C110.203 97.2864 109.521 95.8802 109.323 94C109.187 92.7396 109.328 91.6042 109.745 90.5833C110.161 89.5677 110.807 88.7448 111.682 88.1094C112.552 87.4739 113.599 87.0885 114.812 86.9583C115.823 86.8542 116.724 86.9531 117.526 87.2708C118.323 87.5833 119.005 88.1302 119.568 88.9167L117.677 90.6979C117.323 90.2239 116.937 89.901 116.531 89.7187C116.12 89.5417 115.641 89.4792 115.089 89.5364C114.156 89.6354 113.432 90.0625 112.917 90.8229C112.401 91.5781 112.198 92.526 112.323 93.6614C112.437 94.7604 112.792 95.5833 113.385 96.1198C113.974 96.651 114.766 96.8698 115.76 96.7604C116.281 96.7083 116.755 96.5364 117.177 96.25C117.604 95.9687 117.937 95.5573 118.182 95.0208L120.365 96.4167C119.922 97.3385 119.307 98.0312 118.531 98.4896C117.75 98.9479 116.854 99.2292 115.844 99.3333Z" fill="#03318B"/>
<path d="M127.412 98.1042C126.12 98.2396 124.974 98.1198 123.984 97.7396C122.995 97.3542 122.203 96.7448 121.604 95.901C121 95.0573 120.635 94.0104 120.5 92.7656C120.37 91.5208 120.51 90.3906 120.932 89.3802C121.349 88.3698 121.979 87.5521 122.807 86.9219C123.641 86.2917 124.625 85.9115 125.76 85.7917C127.609 85.5938 129.037 86.0781 130.042 87.2396C131.052 88.3958 131.542 90.099 131.505 92.3333L123.516 93.1875C123.667 94.0156 124.073 94.6458 124.745 95.0885C125.412 95.526 126.281 95.6875 127.354 95.5729C127.859 95.5208 128.359 95.3542 128.844 95.0781C129.333 94.8021 129.734 94.4167 130.052 93.9219L131.912 95.4479C131.448 96.1823 130.854 96.7813 130.13 97.2396C129.401 97.6979 128.5 97.9844 127.412 98.1042ZM126.042 87.9635C125.24 88.0469 124.604 88.375 124.135 88.9323C123.672 89.4948 123.412 90.2083 123.359 91.0729L128.797 90.4896C128.724 89.5104 128.438 88.8229 127.932 88.4323C127.427 88.0365 126.797 87.8802 126.042 87.9635Z" fill="#03318B"/>
<path d="M141.219 87.1563C140.891 87.0833 140.479 87.0677 139.995 87.1198C139.141 87.2135 138.49 87.599 138.036 88.276C137.578 88.9531 137.302 89.9896 137.208 91.375C137.104 92.7656 137.177 94.5833 137.417 96.8229L134.552 97.125L133.729 89.4167L133.255 85.1823L136.141 84.8802L136.354 88.2292C136.63 86.9063 137.104 85.9375 137.781 85.3281C138.458 84.7083 139.214 84.3594 140.047 84.2708C140.302 84.2448 140.537 84.2344 140.76 84.2396C140.984 84.25 141.198 84.276 141.391 84.3177L141.219 87.1563Z" fill="#03318B"/>
<path d="M148.896 100.62C148.182 100.698 147.427 100.703 146.615 100.646C145.802 100.594 145.12 100.427 144.563 100.151L145.005 97.5677C145.568 97.776 146.161 97.9323 146.776 98.026C147.391 98.1146 148.052 98.125 148.766 98.0521C150.151 97.9062 151.099 97.4687 151.615 96.7552C152.13 96.0364 152.339 94.9583 152.25 93.5156L152.177 91.9479C151.813 93.0052 151.266 93.8437 150.542 94.4531C149.823 95.0625 148.979 95.4219 148.016 95.526C146.677 95.6667 145.62 95.3229 144.844 94.5C144.073 93.6719 143.609 92.4635 143.453 90.8698L142.786 84.1667L145.672 83.8594L146.313 90.3229C146.401 91.1406 146.615 91.7708 146.958 92.2031C147.297 92.6406 147.797 92.8177 148.464 92.75C149.188 92.6719 149.786 92.3229 150.266 91.7083C150.74 91.0937 151.063 90.1094 151.229 88.7604C151.396 87.4114 151.365 85.5833 151.135 83.2812L153.927 82.9792L154.979 92.8698C155.234 95.2656 154.823 97.0989 153.75 98.3698C152.672 99.6406 151.052 100.391 148.896 100.62Z" fill="#03318B"/>
<path d="M47.7396 68.1406L45.9531 51.349L52.2448 50.6771C54.276 50.4635 55.9219 50.6875 57.1823 51.349C58.4427 52.0104 59.151 53.1146 59.3177 54.6615C59.3958 55.4167 59.2969 56.1302 59.0156 56.7969C58.7396 57.4635 58.3125 58.0104 57.7344 58.4427C58.4479 58.6823 59.0469 59.0937 59.5365 59.6719C60.0313 60.25 60.3229 60.9635 60.4167 61.8125C60.5208 62.7917 60.349 63.6771 59.9115 64.474C59.4687 65.2708 58.7865 65.9271 57.8698 66.4375C56.9479 66.9531 55.8281 67.276 54.5052 67.4219L47.7396 68.1406ZM52.651 53.8177L50.0677 54.0937L50.4583 57.7083L52.7969 57.4583C53.7917 57.3542 54.5052 57.125 54.9375 56.776C55.3698 56.4271 55.5521 55.9323 55.4844 55.2812C55.4219 54.6979 55.1615 54.2865 54.7031 54.0417C54.25 53.7917 53.5625 53.7187 52.651 53.8177ZM51.1875 64.5937L54.125 64.2812C54.9427 64.1927 55.5677 63.9687 56 63.6146C56.4323 63.2552 56.6146 62.7448 56.5417 62.0833C56.474 61.4531 56.224 61.0156 55.7813 60.776C55.3437 60.5365 54.6563 60.4687 53.7292 60.5677L50.7917 60.8802L51.1875 64.5937Z" fill="#03318B"/>
<path d="M72.25 48.5469L76.0833 48.1354L77.0989 57.2135C77.2656 58.8073 77.1145 60.2344 76.6458 61.4948C76.1718 62.7604 75.4218 63.776 74.3854 64.5469C73.3541 65.3177 72.0885 65.7864 70.5885 65.9427C68.0989 66.2083 66.1458 65.7969 64.7291 64.7031C63.3125 63.6094 62.4739 61.8437 62.2135 59.401L61.1823 49.7239L65.0364 49.3125L66.0364 58.6823C66.1927 60.1771 66.6354 61.2239 67.3489 61.8177C68.0677 62.4114 69.0104 62.6458 70.177 62.5208C71.3281 62.3958 72.1718 61.9219 72.7135 61.0885C73.2552 60.2604 73.4323 59.0312 73.2448 57.4114L72.25 48.5469Z" fill="#03318B"/>
<path d="M80.9948 64.5938L79.2031 47.8021L84.6406 47.224C87.9531 46.8698 90.5313 47.3073 92.3646 48.5313C94.2031 49.7552 95.2656 51.7448 95.5625 54.5052C95.7396 56.1771 95.5156 57.6823 94.8958 59.0208C94.2708 60.3646 93.3229 61.4688 92.0417 62.3281C90.7604 63.1927 89.2292 63.7188 87.4479 63.9063L80.9948 64.5938ZM84.4844 60.7552L86.9219 60.4948C88.6354 60.3125 89.8958 59.7604 90.7031 58.8385C91.5052 57.9115 91.8177 56.651 91.6458 55.0417C91.4635 53.3385 90.8698 52.125 89.8594 51.3906C88.849 50.6615 87.3906 50.401 85.4844 50.6042L83.4271 50.8229L84.4844 60.7552Z" fill="#03318B"/>
<path d="M106.271 52.6667L113.437 51.9062L114.411 61.0312L111.359 61.3594L110.911 59.8281C110.443 60.5312 109.802 61.0677 108.99 61.4323C108.172 61.7969 107.302 62.0312 106.37 62.1302C104.703 62.3073 103.219 62.1302 101.927 61.5989C100.635 61.0677 99.5885 60.2187 98.7864 59.0521C97.9843 57.8854 97.4895 56.4375 97.302 54.7031C97.1145 52.9375 97.3333 51.3385 97.9531 49.9114C98.5729 48.4792 99.5468 47.3125 100.87 46.401C102.193 45.5 103.797 44.9427 105.687 44.7396C107.281 44.5729 108.656 44.7083 109.812 45.151C110.969 45.5937 111.974 46.3437 112.838 47.401L110.109 49.8698C109.641 49.2031 109.042 48.7448 108.312 48.4896C107.588 48.2448 106.833 48.1614 106.062 48.2396C104.958 48.3594 104.036 48.6875 103.297 49.2187C102.557 49.75 102.01 50.4479 101.667 51.3073C101.318 52.1667 101.203 53.1302 101.318 54.2031C101.484 55.7604 102.021 56.9271 102.932 57.6875C103.844 58.4531 105.016 58.7604 106.448 58.6042C107.016 58.5469 107.573 58.3854 108.12 58.125C108.667 57.8698 109.12 57.5156 109.479 57.0625C109.838 56.6094 110.026 56.0729 110.036 55.4479L106.609 55.8125L106.271 52.6667Z" fill="#03318B"/>
<path d="M127.12 46.0677L119.406 46.8906L119.766 50.224L126.979 49.4583L127.333 52.7917L120.12 53.5625L120.49 57.0156L128.432 56.1667L128.552 59.526L117.057 60.75L115.271 43.9583L126.766 42.7344L127.12 46.0677Z" fill="#03318B"/>
<path d="M142.089 41.0989L141.953 44.5364L136.87 45.0781L138.297 58.4896L134.417 58.901L132.99 45.4896L127.667 46.0573L127.307 42.6771L142.089 41.0989Z" fill="#03318B"/>
<path d="M150.901 57.1458L149.115 40.3541L152.969 39.9427L154.396 53.3541L161.656 52.5781L161.781 55.9844L150.901 57.1458Z" fill="#03318B"/>
<path d="M163.484 55.8021L161.693 39.0104L165.552 38.5989L167.339 55.3906L163.484 55.8021Z" fill="#03318B"/>
<path d="M175.969 54.6875C173.906 54.9062 172.26 54.6354 171.031 53.875C169.802 53.1094 169.016 51.8802 168.672 50.1771L172.234 49.2708C172.422 50.0833 172.807 50.6719 173.406 51.0469C174.005 51.4271 174.792 51.5573 175.771 51.4531C176.604 51.3646 177.234 51.151 177.651 50.8125C178.068 50.4739 178.25 50.0364 178.193 49.5C178.141 49.0104 177.865 48.6458 177.359 48.4167C176.859 48.1823 176.047 48 174.932 47.8594C173.734 47.7031 172.714 47.4635 171.865 47.1458C171.021 46.8333 170.359 46.375 169.88 45.7708C169.396 45.1667 169.109 44.3698 169 43.375C168.891 42.3333 169.063 41.3802 169.51 40.5208C169.958 39.6614 170.641 38.9531 171.557 38.401C172.469 37.8489 173.557 37.5052 174.823 37.3698C176.458 37.1979 177.844 37.4739 178.974 38.1979C180.104 38.9219 180.823 40 181.135 41.4375L177.813 42.3646C177.62 41.7292 177.276 41.2604 176.781 40.9531C176.286 40.651 175.693 40.5312 174.995 40.6094C174.302 40.6823 173.76 40.901 173.37 41.2708C172.979 41.6406 172.812 42.0989 172.87 42.651C172.922 43.1562 173.172 43.5417 173.615 43.8021C174.057 44.0677 174.839 44.276 175.953 44.4271C177.135 44.5885 178.161 44.8021 179.036 45.0677C179.911 45.3333 180.604 45.75 181.12 46.3177C181.635 46.8854 181.948 47.6979 182.063 48.75C182.172 49.776 181.99 50.7135 181.521 51.5625C181.057 52.4062 180.344 53.1042 179.391 53.651C178.437 54.1979 177.297 54.5469 175.969 54.6875Z" fill="#03318B"/>
<path d="M195.729 35.3802L195.594 38.8177L190.51 39.3594L191.937 52.7708L188.057 53.1823L186.63 39.7708L181.307 40.3385L180.948 36.9583L195.729 35.3802Z" fill="#03318B"/>
<path d="M56.8021 123.609C57.0053 123.609 57.224 123.76 57.2553 124.021L59.1928 142.219C59.2188 142.469 59.0365 142.698 58.7865 142.724L40.5313 144.667C40.3334 144.667 40.1094 144.51 40.0834 144.255L38.1407 126.057C38.1251 125.901 38.1876 125.786 38.2396 125.719C38.2969 125.651 38.3907 125.568 38.5469 125.552L56.7501 123.615C56.7657 123.609 56.7865 123.609 56.8021 123.609ZM56.8021 120.422C56.6719 120.422 56.5417 120.432 56.4115 120.443L38.2136 122.385C36.2084 122.599 34.7605 124.391 34.974 126.396L36.9167 144.594C37.1146 146.464 38.6928 147.849 40.5313 147.849C40.6615 147.849 40.7917 147.844 40.9219 147.828L59.1251 145.891C61.1251 145.677 62.573 143.88 62.3594 141.88L60.4219 123.682C60.2188 121.812 58.6407 120.422 56.8021 120.422Z" fill="#03318B"/>
<path d="M73.724 139.286L71.9375 122.495L75.0104 122.167L75.75 129.12L83.6979 128.276L82.9583 121.323L86.0521 120.99L87.8438 137.781L84.7448 138.115L83.9844 130.969L76.0365 131.818L76.7969 138.958L73.724 139.286Z" fill="#03318B"/>
<path d="M95.3958 124.708C97.1771 124.516 98.6354 124.901 99.7656 125.854C100.896 126.812 101.557 128.198 101.75 130.01C101.88 131.24 101.74 132.365 101.333 133.391C100.922 134.417 100.281 135.255 99.4114 135.917C98.5417 136.573 97.4948 136.969 96.2604 137.099C94.4792 137.292 93.026 136.911 91.8958 135.964C90.7656 135.016 90.1041 133.625 89.9114 131.797C89.7812 130.568 89.9166 129.443 90.3229 128.417C90.7344 127.396 91.3698 126.552 92.2344 125.891C93.0937 125.234 94.151 124.839 95.3958 124.708ZM96.0885 134.557C97.0156 134.458 97.7292 134.026 98.2187 133.255C98.7135 132.484 98.8958 131.51 98.7708 130.328C98.6562 129.255 98.3177 128.453 97.7604 127.922C97.2031 127.391 96.4896 127.172 95.6198 127.266C94.6562 127.37 93.9323 127.802 93.4427 128.573C92.9479 129.344 92.7656 130.312 92.8906 131.479C93 132.552 93.3385 133.359 93.901 133.896C94.4583 134.432 95.1875 134.656 96.0885 134.557Z" fill="#03318B"/>
<path d="M108.75 135.771C107.427 135.911 106.38 135.568 105.615 134.74C104.849 133.911 104.391 132.703 104.234 131.109L103.526 124.031L106.411 123.724L107.094 130.542C107.161 131.359 107.375 131.995 107.724 132.432C108.073 132.875 108.573 133.062 109.219 132.99C109.724 132.937 110.177 132.74 110.578 132.391C110.979 132.047 111.302 131.5 111.542 130.75C111.776 129.995 111.922 129 111.974 127.76C112.026 126.521 111.953 124.984 111.76 123.151L114.547 122.854L115.823 134.797L112.911 135.109L112.792 132.37C112.417 133.385 111.885 134.177 111.187 134.755C110.49 135.333 109.682 135.667 108.75 135.771Z" fill="#03318B"/>
<path d="M123.104 134.24C121.464 134.411 120.177 134.234 119.245 133.703C118.312 133.177 117.714 132.359 117.453 131.25L119.823 130.401C119.984 130.99 120.307 131.422 120.802 131.698C121.292 131.974 121.964 132.062 122.818 131.974C123.51 131.896 124.021 131.734 124.354 131.474C124.682 131.214 124.828 130.896 124.786 130.521C124.75 130.141 124.526 129.87 124.115 129.703C123.708 129.542 123.094 129.427 122.271 129.354C121.354 129.276 120.563 129.135 119.896 128.937C119.229 128.734 118.703 128.422 118.313 127.99C117.922 127.562 117.688 126.969 117.609 126.214C117.531 125.49 117.667 124.818 118.016 124.198C118.365 123.578 118.88 123.062 119.563 122.646C120.24 122.229 121.047 121.974 121.979 121.875C123.224 121.74 124.276 121.922 125.135 122.422C125.99 122.922 126.552 123.62 126.807 124.516L124.484 125.411C124.323 124.964 124.047 124.63 123.661 124.406C123.271 124.187 122.766 124.109 122.151 124.177C121.536 124.24 121.083 124.417 120.786 124.703C120.49 124.99 120.359 125.323 120.401 125.698C120.443 126.078 120.656 126.354 121.052 126.531C121.443 126.703 122.099 126.833 123.021 126.927C123.875 127.016 124.625 127.151 125.276 127.344C125.927 127.536 126.458 127.844 126.87 128.25C127.276 128.661 127.521 129.245 127.604 130.005C127.682 130.745 127.542 131.417 127.188 132.021C126.828 132.625 126.297 133.12 125.589 133.505C124.875 133.896 124.052 134.135 123.104 134.24Z" fill="#03318B"/>
<path d="M135.781 132.885C134.49 133.026 133.344 132.901 132.359 132.526C131.37 132.141 130.573 131.526 129.974 130.682C129.375 129.839 129.005 128.792 128.875 127.547C128.74 126.302 128.885 125.177 129.302 124.167C129.719 123.156 130.349 122.339 131.182 121.703C132.016 121.073 133 120.698 134.135 120.578C135.979 120.38 137.406 120.859 138.417 122.021C139.422 123.182 139.911 124.88 139.88 127.12L131.885 127.969C132.036 128.797 132.448 129.432 133.115 129.87C133.786 130.312 134.656 130.474 135.724 130.359C136.229 130.307 136.729 130.141 137.219 129.865C137.708 129.589 138.109 129.203 138.422 128.708L140.281 130.229C139.818 130.969 139.224 131.562 138.5 132.026C137.776 132.484 136.87 132.771 135.781 132.885ZM134.411 122.75C133.609 122.833 132.974 123.156 132.51 123.714C132.042 124.276 131.781 124.99 131.729 125.854L137.172 125.276C137.099 124.297 136.807 123.609 136.307 123.214C135.802 122.823 135.172 122.667 134.411 122.75Z" fill="#03318B"/>
<path d="M148.839 131.281L147.047 114.49L150.12 114.161L151.625 128.255L159.099 127.458L159.172 130.177L148.839 131.281Z" fill="#03318B"/>
<path d="M164.953 117.292C166.734 117.104 168.187 117.484 169.318 118.443C170.448 119.396 171.109 120.781 171.307 122.594C171.437 123.823 171.297 124.953 170.891 125.974C170.479 127 169.839 127.844 168.969 128.5C168.099 129.161 167.047 129.552 165.818 129.682C164.036 129.875 162.583 129.495 161.448 128.547C160.323 127.599 159.656 126.214 159.464 124.38C159.333 123.151 159.474 122.026 159.88 121C160.286 119.979 160.927 119.135 161.786 118.479C162.651 117.823 163.703 117.427 164.953 117.292ZM165.641 127.146C166.573 127.047 167.281 126.609 167.776 125.844C168.266 125.068 168.453 124.094 168.323 122.911C168.208 121.839 167.875 121.036 167.312 120.51C166.755 119.979 166.042 119.76 165.177 119.849C164.214 119.953 163.484 120.391 162.995 121.161C162.505 121.932 162.318 122.901 162.443 124.062C162.557 125.135 162.896 125.943 163.453 126.484C164.016 127.021 164.745 127.24 165.641 127.146Z" fill="#03318B"/>
<path d="M184.37 115.464L185.635 127.359L182.703 127.672L182.578 125.578C182.229 126.349 181.734 126.974 181.089 127.448C180.448 127.922 179.682 128.208 178.802 128.302C177.76 128.411 176.854 128.266 176.078 127.865C175.297 127.458 174.677 126.849 174.208 126.042C173.74 125.229 173.443 124.271 173.328 123.167C173.188 121.844 173.323 120.651 173.734 119.599C174.151 118.542 174.781 117.682 175.625 117.016C176.469 116.354 177.464 115.958 178.599 115.839C179.354 115.755 180.042 115.849 180.656 116.109C181.276 116.37 181.771 116.75 182.146 117.255L182.266 115.687L184.37 115.464ZM179.083 118.37C178.104 118.474 177.365 118.927 176.859 119.729C176.354 120.531 176.167 121.536 176.297 122.734C176.406 123.755 176.708 124.531 177.208 125.052C177.714 125.573 178.349 125.792 179.125 125.708C179.755 125.641 180.307 125.401 180.781 124.979C181.255 124.562 181.604 124.016 181.833 123.339C182.068 122.661 182.135 121.901 182.047 121.068C181.948 120.135 181.635 119.432 181.104 118.953C180.578 118.474 179.901 118.281 179.083 118.37Z" fill="#03318B"/>
<path d="M188.714 127.031L187.438 115.083L190.323 114.776L190.5 117.797C190.849 116.724 191.391 115.87 192.12 115.234C192.849 114.599 193.719 114.224 194.729 114.12C196.068 113.974 197.13 114.328 197.911 115.177C198.698 116.026 199.172 117.312 199.339 119.031L200.016 125.823L197.13 126.13L196.479 119.578C196.396 118.646 196.172 117.948 195.813 117.484C195.453 117.021 194.932 116.823 194.255 116.896C193.734 116.953 193.271 117.151 192.859 117.5C192.453 117.844 192.12 118.396 191.865 119.146C191.609 119.901 191.453 120.896 191.396 122.141C191.339 123.38 191.396 124.911 191.573 126.724L188.714 127.031Z" fill="#03318B"/>
<path d="M60.5521 158.797C60.7552 158.797 60.9792 158.948 61.0052 159.203L62.9427 177.406C62.9583 177.562 62.901 177.677 62.8437 177.74C62.7917 177.807 62.6927 177.891 62.5365 177.911L44.2864 179.854C44.0833 179.854 43.8594 179.698 43.8333 179.443L41.8906 161.245C41.8646 160.99 42.0469 160.766 42.3021 160.74L60.5 158.797C60.5156 158.797 60.5365 158.797 60.5521 158.797ZM60.5521 155.609C60.4219 155.609 60.2917 155.62 60.1615 155.63L41.9635 157.573C39.9635 157.786 38.5104 159.578 38.7239 161.578L40.6667 179.781C40.8646 181.651 42.4479 183.036 44.2864 183.036C44.4114 183.036 44.5417 183.031 44.6719 183.016L62.875 181.078C64.875 180.865 66.3229 179.068 66.1094 177.068L64.1719 158.87C63.974 157 62.3906 155.609 60.5521 155.609Z" fill="#03318B"/>
<path d="M87.8646 156.385L87.7761 159.12L82.573 159.677L84.073 173.771L81 174.099L79.4948 160L74.1042 160.578L73.8177 157.88L87.8646 156.385Z" fill="#03318B"/>
<path d="M96.1302 163.229C95.802 163.151 95.3958 163.141 94.9062 163.193C94.052 163.281 93.401 163.667 92.9479 164.349C92.4948 165.026 92.2187 166.057 92.1145 167.448C92.0208 168.839 92.0885 170.651 92.3281 172.891L89.4635 173.198L88.6458 165.484L88.1666 161.255L91.052 160.948L91.2656 164.297C91.5416 162.979 92.0156 162.01 92.6927 161.396C93.3698 160.781 94.125 160.427 94.9635 160.339C95.2135 160.313 95.4479 160.302 95.6718 160.313C95.901 160.318 96.1093 160.344 96.302 160.391L96.1302 163.229Z" fill="#03318B"/>
<path d="M108.443 159.141L109.708 171.036L106.776 171.349L106.651 169.26C106.302 170.031 105.807 170.651 105.161 171.13C104.521 171.604 103.76 171.891 102.875 171.984C101.833 172.094 100.927 171.948 100.151 171.542C99.3698 171.141 98.75 170.531 98.2812 169.719C97.8125 168.911 97.5156 167.953 97.401 166.849C97.2604 165.526 97.3958 164.333 97.8073 163.276C98.2239 162.219 98.8489 161.359 99.6979 160.693C100.542 160.031 101.536 159.641 102.672 159.521C103.427 159.438 104.115 159.531 104.729 159.786C105.349 160.052 105.844 160.432 106.219 160.932L106.339 159.365L108.443 159.141ZM103.156 162.047C102.177 162.156 101.437 162.609 100.932 163.411C100.427 164.214 100.24 165.214 100.365 166.411C100.479 167.437 100.781 168.208 101.281 168.729C101.786 169.255 102.422 169.469 103.198 169.391C103.828 169.323 104.38 169.078 104.854 168.661C105.328 168.245 105.677 167.698 105.906 167.021C106.141 166.339 106.208 165.583 106.12 164.75C106.021 163.818 105.708 163.115 105.177 162.635C104.651 162.156 103.974 161.964 103.156 162.047Z" fill="#03318B"/>
<path d="M119.766 157.885L122.651 157.578L119.453 170L115.339 170.438L110.281 158.896L113.401 158.568L117.313 167.859L119.766 157.885Z" fill="#03318B"/>
<path d="M130.547 169.031C129.255 169.172 128.109 169.047 127.125 168.667C126.135 168.286 125.338 167.672 124.74 166.828C124.135 165.984 123.771 164.938 123.641 163.693C123.505 162.448 123.646 161.318 124.068 160.313C124.484 159.302 125.109 158.484 125.948 157.849C126.781 157.219 127.76 156.844 128.901 156.724C130.745 156.526 132.172 157.005 133.177 158.167C134.187 159.328 134.677 161.026 134.641 163.26L126.651 164.115C126.802 164.943 127.208 165.578 127.88 166.016C128.547 166.453 129.417 166.62 130.49 166.505C130.995 166.448 131.495 166.286 131.979 166.01C132.469 165.734 132.87 165.349 133.187 164.854L135.047 166.375C134.583 167.109 133.99 167.708 133.266 168.172C132.536 168.63 131.635 168.917 130.547 169.031ZM129.177 158.891C128.375 158.979 127.74 159.302 127.271 159.859C126.807 160.422 126.547 161.135 126.495 162L131.932 161.422C131.865 160.443 131.573 159.755 131.068 159.359C130.562 158.969 129.937 158.813 129.177 158.891Z" fill="#03318B"/>
<path d="M141.141 167.901C140.005 168.026 139.115 167.807 138.464 167.255C137.818 166.703 137.432 165.859 137.307 164.724L135.797 150.557L138.682 150.25L140.172 164.182C140.26 165.031 140.698 165.417 141.49 165.328C141.88 165.286 142.219 165.156 142.5 164.938L143.432 166.964C143.203 167.182 142.88 167.38 142.469 167.557C142.057 167.734 141.615 167.854 141.141 167.901Z" fill="#03318B"/>
<path d="M64.3073 194.026C64.5104 194.026 64.7344 194.182 64.7604 194.438L66.6979 212.635C66.724 212.891 66.5417 213.115 66.2917 213.141L48.0417 215.083C47.8386 215.083 47.6146 214.932 47.5886 214.677L45.6511 196.474C45.6302 196.318 45.6927 196.203 45.75 196.135C45.8021 196.073 45.9011 195.99 46.0573 195.969L64.2552 194.031C64.2761 194.026 64.2917 194.026 64.3073 194.026ZM64.3073 190.844C64.1823 190.844 64.0469 190.849 63.9167 190.865L45.7188 192.802C43.7188 193.016 42.2657 194.813 42.4792 196.813L44.4219 215.01C44.6198 216.88 46.2032 218.271 48.0417 218.271C48.1667 218.271 48.2969 218.26 48.4323 218.25L66.6302 216.307C68.6302 216.094 70.0782 214.302 69.8646 212.302L67.9271 194.099C67.7292 192.229 66.1459 190.844 64.3073 190.844Z" fill="#03318B"/>
<path d="M90.0105 194.469L82.7292 195.245L83.2136 199.807L90.1198 199.073L90.4011 201.719L83.4948 202.458L84.2344 209.385L81.2292 209.708L79.4427 192.917L89.7292 191.818L90.0105 194.469Z" fill="#03318B"/>
<path d="M97.276 195.724C99.0572 195.536 100.51 195.917 101.641 196.875C102.771 197.828 103.432 199.214 103.625 201.026C103.76 202.26 103.62 203.385 103.208 204.411C102.802 205.432 102.161 206.276 101.292 206.932C100.417 207.594 99.3697 207.99 98.1406 208.12C96.3593 208.307 94.901 207.932 93.7708 206.979C92.6458 206.036 91.9791 204.646 91.7864 202.818C91.6562 201.589 91.7968 200.458 92.2031 199.432C92.6093 198.411 93.2499 197.568 94.1093 196.911C94.9739 196.255 96.026 195.859 97.276 195.724ZM97.9635 205.578C98.8958 205.479 99.6093 205.047 100.099 204.276C100.588 203.505 100.771 202.526 100.646 201.344C100.531 200.271 100.198 199.474 99.6354 198.943C99.0781 198.411 98.3645 198.193 97.4999 198.286C96.5364 198.385 95.8072 198.823 95.3177 199.594C94.8229 200.365 94.6406 201.333 94.7656 202.5C94.8802 203.573 95.2187 204.375 95.776 204.917C96.3385 205.453 97.0677 205.672 97.9635 205.578Z" fill="#03318B"/>
<path d="M113.484 197.01C113.156 196.938 112.75 196.922 112.26 196.974C111.406 197.062 110.755 197.448 110.302 198.13C109.849 198.807 109.573 199.839 109.474 201.229C109.375 202.62 109.443 204.438 109.682 206.672L106.818 206.979L106 199.266L105.526 195.036L108.411 194.729L108.625 198.078C108.896 196.76 109.37 195.792 110.047 195.177C110.724 194.563 111.479 194.214 112.312 194.125C112.568 194.094 112.807 194.083 113.031 194.094C113.255 194.099 113.464 194.125 113.661 194.172L113.484 197.01Z" fill="#03318B"/>
<path d="M136.271 200.536C135.729 201.729 134.906 202.687 133.802 203.406C132.698 204.13 131.422 204.568 129.974 204.724C128.255 204.906 126.745 204.734 125.443 204.203C124.146 203.672 123.099 202.823 122.312 201.656C121.531 200.49 121.042 199.042 120.859 197.323C120.672 195.542 120.865 193.943 121.448 192.526C122.031 191.109 122.927 189.953 124.141 189.057C125.354 188.161 126.812 187.625 128.516 187.443C129.964 187.286 131.234 187.432 132.328 187.875C133.417 188.318 134.37 189.062 135.182 190.104L133 192.062C132.49 191.318 131.87 190.802 131.135 190.516C130.406 190.224 129.62 190.125 128.786 190.214C127.714 190.328 126.797 190.687 126.031 191.297C125.266 191.906 124.698 192.693 124.333 193.667C123.969 194.641 123.849 195.729 123.974 196.948C124.161 198.698 124.76 200.01 125.776 200.891C126.786 201.776 128.104 202.125 129.724 201.953C130.625 201.854 131.432 201.562 132.141 201.073C132.854 200.583 133.406 199.896 133.786 199.01L136.271 200.536Z" fill="#03318B"/>
<path d="M147.839 190.573L149.104 202.469L146.172 202.781L146.047 200.693C145.698 201.464 145.203 202.083 144.563 202.557C143.917 203.036 143.156 203.318 142.271 203.411C141.229 203.526 140.323 203.38 139.547 202.974C138.771 202.573 138.146 201.964 137.677 201.156C137.208 200.344 136.911 199.385 136.797 198.281C136.656 196.958 136.792 195.766 137.203 194.708C137.62 193.651 138.25 192.792 139.094 192.13C139.943 191.464 140.932 191.073 142.068 190.953C142.823 190.87 143.51 190.964 144.13 191.219C144.745 191.479 145.24 191.865 145.615 192.365L145.734 190.797L147.839 190.573ZM142.552 193.484C141.573 193.589 140.833 194.042 140.328 194.844C139.823 195.646 139.635 196.646 139.766 197.844C139.875 198.87 140.177 199.641 140.682 200.167C141.182 200.682 141.818 200.906 142.594 200.823C143.224 200.755 143.776 200.51 144.25 200.094C144.724 199.677 145.073 199.13 145.307 198.453C145.536 197.771 145.609 197.016 145.516 196.182C145.417 195.25 145.104 194.547 144.573 194.068C144.047 193.589 143.37 193.396 142.552 193.484Z" fill="#03318B"/>
<path d="M158.87 192.172C158.542 192.094 158.135 192.083 157.646 192.135C156.792 192.229 156.141 192.609 155.688 193.292C155.229 193.969 154.953 195 154.859 196.391C154.755 197.781 154.828 199.599 155.068 201.833L152.203 202.141L151.385 194.427L150.906 190.198L153.792 189.891L154.005 193.24C154.281 191.922 154.755 190.953 155.432 190.339C156.109 189.724 156.865 189.375 157.698 189.286C157.953 189.26 158.193 189.245 158.411 189.255C158.635 189.266 158.849 189.292 159.042 189.333L158.87 192.172Z" fill="#03318B"/>
<path d="M68.0053 228.703C68.2032 228.703 68.4271 228.854 68.4584 229.109L70.3959 247.313C70.4115 247.469 70.3542 247.583 70.2969 247.651C70.2448 247.714 70.1459 247.802 69.9896 247.818L51.7344 249.76C51.5365 249.76 51.3126 249.604 51.2865 249.349L49.3438 231.151C49.3178 230.896 49.5001 230.672 49.7501 230.646L67.9532 228.703C67.9688 228.703 67.9896 228.703 68.0053 228.703ZM68.0053 225.516C67.8751 225.516 67.7448 225.526 67.6146 225.536L49.4167 227.479C47.4115 227.693 45.9636 229.484 46.1771 231.484L48.1198 249.688C48.3178 251.557 49.8959 252.943 51.7344 252.943C51.8646 252.943 51.9948 252.938 52.1251 252.922L70.3282 250.984C72.3282 250.771 73.7761 248.974 73.5626 246.974L71.6251 228.776C71.4219 226.906 69.8438 225.516 68.0053 225.516Z" fill="#03318B"/>
<path d="M84.8333 244.391L83.6823 227.531L86.3541 227.245L93.8802 239.526L98.6302 225.937L101.302 225.651L103.609 242.391L100.656 242.703L99.2083 232.286L95.3333 243.271L93.0156 243.521L86.9895 233.661L87.6718 244.089L84.8333 244.391Z" fill="#03318B"/>
<path d="M112.547 241.651C111.255 241.792 110.115 241.667 109.125 241.286C108.135 240.906 107.344 240.292 106.74 239.448C106.141 238.604 105.776 237.557 105.641 236.313C105.51 235.068 105.651 233.938 106.073 232.927C106.49 231.922 107.115 231.099 107.948 230.469C108.781 229.839 109.766 229.464 110.901 229.344C112.745 229.146 114.172 229.625 115.182 230.786C116.193 231.948 116.677 233.646 116.646 235.88L108.651 236.734C108.802 237.563 109.214 238.198 109.885 238.635C110.552 239.073 111.422 239.234 112.495 239.12C113 239.068 113.495 238.906 113.984 238.63C114.474 238.354 114.875 237.969 115.188 237.469L117.052 238.995C116.589 239.729 115.995 240.328 115.266 240.786C114.542 241.25 113.635 241.536 112.547 241.651ZM111.182 231.51C110.38 231.599 109.745 231.922 109.276 232.479C108.813 233.042 108.552 233.755 108.5 234.62L113.938 234.042C113.865 233.057 113.578 232.375 113.073 231.979C112.568 231.589 111.938 231.432 111.182 231.51Z" fill="#03318B"/>
<path d="M128.969 221.984L130.833 239.49L127.901 239.802L127.771 237.708C127.427 238.495 126.932 239.12 126.297 239.589C125.661 240.057 124.896 240.339 123.995 240.432C122.958 240.542 122.047 240.396 121.271 239.995C120.495 239.589 119.87 238.984 119.401 238.172C118.932 237.359 118.641 236.401 118.521 235.297C118.38 233.974 118.516 232.781 118.932 231.729C119.344 230.672 119.974 229.807 120.823 229.146C121.667 228.479 122.656 228.089 123.792 227.969C124.391 227.906 124.953 227.948 125.469 228.099C125.99 228.25 126.432 228.49 126.802 228.818L126.672 227.854L126.083 222.292L128.969 221.984ZM124.276 230.5C123.302 230.604 122.557 231.057 122.052 231.859C121.552 232.661 121.359 233.667 121.49 234.865C121.599 235.891 121.906 236.661 122.406 237.182C122.906 237.703 123.547 237.922 124.318 237.839C124.948 237.771 125.5 237.526 125.974 237.109C126.448 236.693 126.802 236.146 127.031 235.469C127.26 234.792 127.333 234.031 127.245 233.198C127.146 232.266 126.828 231.563 126.302 231.083C125.771 230.604 125.099 230.411 124.276 230.5Z" fill="#03318B"/>
<path d="M133.875 225.172C133.307 225.229 132.839 225.104 132.474 224.792C132.104 224.484 131.896 224.083 131.844 223.594C131.786 223.104 131.911 222.667 132.203 222.286C132.5 221.906 132.927 221.682 133.495 221.625C134.063 221.562 134.531 221.688 134.901 222C135.266 222.313 135.479 222.714 135.531 223.198C135.583 223.687 135.464 224.125 135.167 224.505C134.875 224.891 134.443 225.109 133.875 225.172ZM135.521 226.906L136.792 238.854L133.906 239.161L132.635 227.219L135.521 226.906Z" fill="#03318B"/>
<path d="M145.213 238.172C143.396 238.365 141.906 237.99 140.74 237.057C139.573 236.12 138.885 234.714 138.687 232.839C138.552 231.578 138.693 230.438 139.115 229.422C139.531 228.401 140.177 227.578 141.047 226.943C141.922 226.307 142.963 225.927 144.177 225.797C145.187 225.688 146.094 225.792 146.891 226.104C147.687 226.417 148.37 226.964 148.932 227.75L147.042 229.531C146.687 229.057 146.307 228.734 145.896 228.552C145.484 228.375 145.005 228.313 144.453 228.375C143.521 228.469 142.802 228.901 142.281 229.656C141.766 230.411 141.568 231.359 141.687 232.495C141.807 233.599 142.161 234.417 142.75 234.953C143.344 235.484 144.135 235.703 145.13 235.594C145.651 235.542 146.12 235.37 146.547 235.089C146.969 234.802 147.302 234.391 147.552 233.854L149.729 235.25C149.286 236.172 148.677 236.865 147.896 237.323C147.115 237.781 146.219 238.063 145.213 238.172Z" fill="#03318B"/>
<path d="M151.495 223.292C150.927 223.354 150.458 223.229 150.094 222.917C149.724 222.604 149.51 222.203 149.458 221.714C149.406 221.229 149.531 220.792 149.823 220.411C150.115 220.026 150.547 219.807 151.115 219.745C151.682 219.688 152.151 219.807 152.521 220.12C152.885 220.432 153.099 220.833 153.151 221.323C153.203 221.813 153.078 222.245 152.786 222.63C152.495 223.01 152.062 223.234 151.495 223.292ZM153.141 225.031L154.411 236.974L151.526 237.281L150.255 225.339L153.141 225.031Z" fill="#03318B"/>
<path d="M157.484 236.646L156.214 224.703L159.099 224.396L159.276 227.411C159.625 226.339 160.161 225.484 160.896 224.849C161.62 224.214 162.49 223.844 163.5 223.734C164.839 223.594 165.901 223.948 166.687 224.797C167.469 225.641 167.948 226.927 168.115 228.646L168.792 235.443L165.906 235.75L165.255 229.193C165.172 228.26 164.948 227.563 164.589 227.099C164.229 226.635 163.708 226.438 163.031 226.51C162.51 226.568 162.047 226.771 161.635 227.115C161.224 227.464 160.896 228.01 160.641 228.766C160.385 229.516 160.229 230.516 160.167 231.755C160.109 233 160.172 234.526 160.349 236.344L157.484 236.646Z" fill="#03318B"/>
<path d="M177.469 234.729C176.177 234.87 175.036 234.75 174.047 234.37C173.057 233.984 172.26 233.375 171.661 232.526C171.063 231.682 170.693 230.635 170.563 229.391C170.432 228.146 170.573 227.021 170.99 226.01C171.406 225 172.036 224.182 172.87 223.552C173.703 222.917 174.688 222.542 175.823 222.422C177.667 222.224 179.094 222.708 180.104 223.865C181.109 225.026 181.599 226.724 181.568 228.958L173.573 229.812C173.724 230.641 174.135 231.276 174.802 231.714C175.474 232.156 176.344 232.318 177.417 232.203C177.922 232.146 178.417 231.984 178.906 231.708C179.396 231.432 179.797 231.047 180.109 230.552L181.969 232.073C181.505 232.812 180.911 233.406 180.188 233.87C179.464 234.328 178.557 234.615 177.469 234.729ZM176.099 224.594C175.297 224.677 174.661 225 174.198 225.562C173.729 226.12 173.469 226.833 173.422 227.703L178.859 227.12C178.786 226.141 178.495 225.453 177.995 225.062C177.49 224.667 176.859 224.51 176.099 224.594Z" fill="#03318B"/>
<path d="M188.797 233.521C187.156 233.698 185.87 233.521 184.938 232.99C184.005 232.458 183.406 231.641 183.146 230.536L185.521 229.687C185.677 230.276 186 230.708 186.495 230.984C186.984 231.26 187.656 231.349 188.51 231.26C189.203 231.182 189.714 231.021 190.047 230.76C190.375 230.5 190.521 230.182 190.484 229.802C190.443 229.427 190.219 229.156 189.813 228.99C189.401 228.828 188.786 228.708 187.964 228.635C187.052 228.557 186.255 228.422 185.589 228.219C184.922 228.021 184.396 227.708 184.005 227.276C183.62 226.849 183.385 226.255 183.302 225.5C183.224 224.776 183.359 224.104 183.708 223.484C184.057 222.865 184.573 222.344 185.255 221.932C185.938 221.516 186.74 221.26 187.672 221.156C188.917 221.026 189.969 221.208 190.828 221.708C191.688 222.203 192.245 222.901 192.5 223.802L190.177 224.693C190.021 224.25 189.745 223.917 189.354 223.693C188.964 223.474 188.458 223.396 187.844 223.458C187.229 223.526 186.776 223.703 186.479 223.99C186.182 224.276 186.052 224.609 186.094 224.984C186.135 225.365 186.349 225.641 186.745 225.812C187.135 225.984 187.792 226.12 188.714 226.214C189.568 226.297 190.318 226.437 190.969 226.63C191.62 226.823 192.151 227.125 192.563 227.536C192.974 227.948 193.219 228.531 193.297 229.286C193.375 230.031 193.24 230.703 192.88 231.307C192.521 231.911 191.99 232.406 191.281 232.792C190.573 233.177 189.745 233.422 188.797 233.521Z" fill="#03318B"/>
<path d="M203.766 262.313C203.766 262.313 200.052 230.656 206.953 225.516C213.854 220.375 241.901 222.76 241.901 222.76C241.901 222.76 227.125 255.943 203.766 262.313Z" fill="#F4F1FC"/>
<path d="M72.6406 17.0677L75.0885 33.5208L142.688 29.8073V6.97916L72.6406 13.3802V17.0677Z" fill="#2C1F51"/>
</g>
<defs>
<clipPath id="clip0_3_2">
<rect width="248" height="292" fill="white"/>
</clipPath>
</defs>
</svg>
