<svg xmlns="http://www.w3.org/2000/svg" width="330" height="379" viewBox="0 0 330 379" fill="none">
  <path fill="#EC9171" d="M229.2 207.3s-.5.6-.1 1.7c-.4.4-.5 1-.5 1s-.9.2-1 1l-.7.6s-.7.2-.6 1c-.2-.1-1.8-.3-1.4-1 .8-1.1 3-5.6 3-5.6z"/>
  <path stroke="#24293A" stroke-linecap="round" stroke-miterlimit="10" stroke-width="10" d="m209.5 223.6-1.5.3a1.6 1.6 0 0 1-1.9-1.2l-.5-2.6a1.6 1.6 0 0 1 1.2-1.9l1.5-.3a1.6 1.6 0 0 1 1.9 1.2l.5 2.6a1.6 1.6 0 0 1-1.2 1.9Z"/>
  <path fill="#179BDD" d="M174 181.4a24 24 0 0 1 3.3-.3 16 16 0 0 1 2.1 0 .6.6 0 0 1 .1 0 8 8 0 0 1 3.6-3.5 9 9 0 0 1 5.9-.7 7.8 7.8 0 0 1 5 3c.7.9 1.3 2 1.5 3l2.3-2.7-.3 1 7.3 2-2.6-7.1c-.6-.6-2.8.1-3.3-.4-1.2-1.1-3.5-1.2-4.7-2-1.5-1-2-1.8-4.1-1.7-1.3 0-2.4-.3-3.8.2-3.8 1.5-6.8 4.5-10.2 7.5z"/>
  <path fill="#002A7B" d="m201.4 184.3-3.5-.8s-9.3-3.1-10-3-4.6-7.7.9-9c8.7-2.1 13.3 2 11 5.9z"/>
  <path fill="#24293A" fill-rule="evenodd" d="m198.4 233 1.4-1a2 2 0 0 1 2.7.4 2 2 0 0 1-.4 2.8l-1.4 1a2 2 0 0 1-2.7-.4 2 2 0 0 1 .4-2.7m2-.2-1.4 1a.9.9 0 0 0-.2 1.3.9.9 0 0 0 1.3.2l1.4-1a.9.9 0 0 0-1-1.5m2.4-3 1-1.5a2 2 0 0 1 2.8-.4 2 2 0 0 1 .4 2.8l-1 1.4a2 2 0 0 1-2.8.4 2 2 0 0 1-.4-2.8m2-.8-1.1 1.5a.9.9 0 0 0 .1 1.2.9.9 0 0 0 1.3-.1l1-1.5a.9.9 0 0 0-.1-1.2.9.9 0 0 0-1.3.1m1.6-3.6.6-1.7a2 2 0 0 1 2.5-1.1 2 2 0 0 1 1.1 2.5l-.5 1.6a2 2 0 0 1-2.5 1.2 2 2 0 0 1-1.2-2.5m1.6-1.3-.6 1.7a.9.9 0 0 0 .5 1.1 1 1 0 0 0 1.2-.5l.5-1.7a.9.9 0 0 0-.5-1.1.9.9 0 0 0-1.1.5" clip-rule="evenodd"/>
  <path fill="#24293A" d="M201.3 232.4a.8.8 0 0 0-.2 1 .7.7 0 0 0 1 .2l2-1.4a.8.8 0 0 0 .2-1 .7.7 0 0 0-1-.2zm4.2-4a.8.8 0 0 0 .2 1 .8.8 0 0 0 1-.1l1.5-2a.8.8 0 0 0-.1-1 .8.8 0 0 0-1.1.1z"/>
  <path fill="#03318B" d="m166.1 191.3 9.8 6.9 1.9 1.3 1 .7 2.7-1 10.8-9.9 3.7-5 .3-.3.4-.5c.1-.2.6-1 .6-.8h.1l.8-.1.4-2.3-.7-1.4c-.3-.3.4-2.3 0-2.6-.2-.2.8-.5.5-.7-1-1.1-2.2-2.2-3.4-3a8 8 0 0 0-.6-.3l-.7-.4a1 1 0 0 0-.2 0 .4.4 0 0 0-.1-.1 5 5 0 0 0-.4-.2h-.1a7 7 0 0 0-.8-.2H191.8a6 6 0 0 0-.5-.1h-.1a1 1 0 0 0-.2 0h-.2a1.4 1.4 0 0 0-.2 0h-.5a1.4 1.4 0 0 0-.2 0h-.7l-.1.1h-.4l-.2.1a2 2 0 0 0-.2 0 15 15 0 0 0-.5.2h-.2a2 2 0 0 0-.2.1 7 7 0 0 0-.4.1 2 2 0 0 0-.2 0l-.1.1a3 3 0 0 0-.3.1 1 1 0 0 0-.1 0c-3.8 1.5-8.2 5-12.8 9.7l-6.7 7.3z"/>
  <path fill="#002A7B" d="m177.8 199.5 1 .7 2.7-1 10.9-9.6 3.9-5v-.4h.2l1 .5.2-1.8.6-2.7c.4-1.3-.4-4 .1-5.3 1.2-2.7 4-3.7 6.4-5.8l.2-.2-1.6-2.6-4.5 9.4-.7 1.3-2.8-4.3a2 2 0 0 1-.2-.1 10.8 10.8 0 0 0-1.2-.7h-.2l-.1-.1a5 5 0 0 0-.4-.2h-.1a8 8 0 0 0-.9-.2h-.1a.5.5 0 0 0-.2 0 3 3 0 0 0-.4-.1 1 1 0 0 0-.2 0 1 1 0 0 0-.1 0h-.3a2 2 0 0 0-.2 0h-.5a2 2 0 0 0-.2 0 2 2 0 0 1-.2 0h-.2a3 3 0 0 0-.3 0 .7.7 0 0 0-.2.1 2 2 0 0 1-.3 0l-.2.1h-.2a13 13 0 0 0-.8.2 2 2 0 0 1-.2.1 8.8 8.8 0 0 0-.6.2.7.7 0 0 1-.2 0l-.2.1a2 2 0 0 0-.2.1c4-.1 7.3 3.6 7.7 7.7v.5c0 1-10.3 12.5-16.2 19.1"/>
  <path fill="#002A7B" d="M198 174.2c-1.2-.6-3.8-.7-3.4 1.1a13.7 13.7 0 0 1-3 11.3l1.6 2.7 4.7-3.6s-.2-.3.8-3.7c1-3.4-.8-7.8-.8-7.8"/>
  <path fill="#D1735D" d="M195.2 171.5c-1.7.9-1.5 2.4-.4 4.3.9 1.6 2.9 2.2 4.2.9a3.4 3.4 0 0 0 0-4.8c-1.3-1.3-2.2-1.3-3.8-.4"/>
  <path fill="#24293A" d="M229.4 198.6A23.4 23.4 0 0 1 227 209l-1.2 2.2-.1.2a33 33 0 0 1-.6.7l-1 1.4a23.4 23.4 0 1 1 5.3-15"/>
  <path fill="#179BDD" d="M201 221.4a23.4 23.4 0 0 1-16-33.3c.2 4.2.7 8.7.7 11.3 0 10.1 6.3 18.7 15.2 22" opacity=".2"/>
  <path fill="url(#a)" d="M229.4 198a18 18 0 1 1-23.8-22.8h.4c12.8 0 23.1 10.1 23.4 22.8"/>
  <path fill="#fff" fill-rule="evenodd" d="m207.3 205-2.8.6a.2.2 0 0 0 0-.1 172 172 0 0 1-2.3-10.2 85 85 0 0 0 2.5-.5c4-1 5.7 1.6 6.3 4 .4 1.8.6 5-3.7 6.1m0-8.1c-.9-.5-1.2-.4-2.6 0a900 900 0 0 0 1.5 6.4c1.4-.4 3.3-.9 2.5-3.9-.1-.8-.6-2-1.5-2.5" clip-rule="evenodd"/>
  <path fill="#fff" d="M216.6 192.8a76 76 0 0 1-1.9.8l-1.3.5.7 1.7 1.3-.5a83 83 0 0 0 1.7-.8l.7 1.9-1.7.7-1.3.6.8 2.5 1.3-.5a71 71 0 0 0 2-.9 35 35 0 0 1 .6 1.9l-2 1a76 76 0 0 1-3.5 1.2 85 85 0 0 0-3.2-10 68 68 0 0 0 3-1.1l1.9-.8.9 1.8"/>
  <path fill="#fff" fill-rule="evenodd" d="m223.7 198.6-2.4 1.3a38.4 38.4 0 0 0-4-9.7l2-1 .5-.4c1.8-.8 3.5 2.2 3 3.7 1-.1 1.6 1 2 1.9.2.6.8 3-1.1 4.2m-2.3-7.2c-.2-.4-.5-.7-.7-.7l-1 .4 1 2 .1-.1c.6-.4 1.1-.6.6-1.6m2 3.7c-.2-.8-.5-1-.6-1-.3 0-.3 0-1.1.5a10 10 0 0 0-.3.1l.9 2.5c1-.5 1.6-.9 1.2-2.1" clip-rule="evenodd"/>
  <path fill="#fff" d="m225 186.8-.6.8a24 24 0 0 1 3.5 7.7 9 9 0 0 1-.7.7 25 25 0 0 0-3.5-7.7q-.4.5-1 .9l-1-1.6c1-.9 1.7-1.6 2-2.4l1.2 1.6"/>
  <path fill="#C9D3D1" d="M147.4 247.2c0 1.1.8 2 2 2h66.5a2 2 0 0 0 0-4h-66.6a2 2 0 0 0-2 2"/>
  <path fill="#24293A" d="M191.8 240.6h-5.2v3.3h5.2z"/>
  <path fill="#333656" d="M187 243.1h4.8c.2.9 2.9 1.4 3.8 1.5l5.8 1 .2 1.1c0 1.4-1.4 1.5-2.9 1.5H192l-1.3-1.4v1.4H187c-1.4 0-1.6.1-1.6-1.3 0-1.4.2-3.8 1.6-3.8"/>
  <path fill="#000" d="M190.7 246.8h-5.6v1.4h5.6zm10.8.5H192v.9h9.5zm-9.5 0-1.3-.5 1.3 1.4z"/>
  <path fill="#24293A" d="M186.6 243.1c0 .4.3.7.6.7h4.1c.4 0 .5-.3.5-.7 0-.4-.1-.7-.5-.7h-4a.7.7 0 0 0-.7.7m-21.6-6.3-2.6-3.3a.5.5 0 0 0-.7-.1l-1.8 1.4a.5.5 0 0 0 0 .7l2.6 3.3c.2.3.5.3.7.1l1.8-1.4a.5.5 0 0 0 0-.7"/>
  <path fill="#333656" d="m156.4 238.1 2.3 3 1.1-.9-.3 1.9 1.1 1.4.7.8h.8l.4 1.3h3.1c1.4 0 2.9-.1 2.9-1.5a2.8 2.8 0 0 0-.3-1l-3.4-.7h-.4a4 4 0 0 0 0-.2c-.6-1-1.5-2.9-1-3.4l-1-1.4-2-2.5c-1-1-3 .3-4 1.2-1.1.8-1 1 0 2"/>
  <path fill="#000" d="m159.8 240.2.4 1.3 2.4 3.2h-1.2l-1.9-2.7zm8.5 4.5v.9h-6.2l-.7-1h7m-8.6-4.4-3.5-4.4-1 1 3.4 4.3z"/>
  <path fill="#24293A" d="M160.1 234.6a.7.7 0 0 0 0 1l2.4 3.1c.3.3.6.3 1 0 .2-.2.3-.5.1-.8l-2.5-3.2a.7.7 0 0 0-1 0"/>
  <path fill="#FEB187" d="M204.6 219.8c-.3.1-.7-.1-1-.4l-1-2v-.1l-.7-.2 1.6 4.3a.8.8 0 0 1-.5 1 .8.8 0 0 1-.9 0 .8.8 0 0 1-.4.6c-.7.3-1.1-.4-1.1-.5 0 0-.2-.2-.3-.1 0 .1-.2.3-.5.3-.8.1-1-.7-1-1a.8.8 0 0 1-.5.6.8.8 0 0 1-1-.4l-.5-1.3-.4-.7-.5-1-.6-1.4c-.3-.7-.3-2 .1-2v-.1l-.8-1.5-.7-1.2-.2-.3-.2-.2a2.3 2.3 0 0 1 .7-3.1l.1-.1c1-.6 2.3-.3 3 .6l.1.2 1.2 2 .8 2v.1a1.1 1.1 0 0 1 .4 0 2.3 2.3 0 0 1 1.4.5l2.5 1.8a.7.7 0 0 1 .3.4l1 2.1a.7.7 0 0 1-.4 1"/>
  <path fill="#E28366" d="M199.4 214.3c-.2 1.4-1.4 4.2-3 5.6l-.5-1-.6-1.4c-.3-.7-.3-2 .1-2v-.1l-.8-1.5-.7-1.2c.6-.8 1.7-2 2-2 .3 0 1-1 1.4-1.1l.1.2 1.2 2 .8 2a2.4 2.4 0 0 1 0 .5"/>
  <path fill="#03318B" d="m175.5 198.8 3.3 1.4 2 1.3 6.7-8.6v-.7l3.6-4.2-2.7-4.3-1.7-3.6-4 8z"/>
  <path fill="#002A7B" d="m187.8 192.5-.7-.3 1.4-6-1.6-1.4-1.2-3.1-3.3 6 1.6 9.2 1.5-2z"/>
  <path fill="#03318B" d="M184.9 199.8c.2 1.1 1.8 2 2.4 3.3l1.3-2.4c1.6 0 3.4 2.3 2.9-.9-.7-4.1 2-18.1 2-18.1.3-4.4-3-7.8-10.3-5.6l1.4 2.5c-1.6 0 .7-.4.7 1.2 0-.2-1.3 13.9-.4 20"/>
  <path fill="#6F0F37" d="M174 220.2c.3.3.4.6.4 1 0 .3-.2.6-.4.9l-12.6 11.3s4.1 5.6 4.4 5.2l15.3-14.2c1.1-1 .8-2.7.8-2.8l-6-16.6-12.6-9-2.3 3.5a8.1 8.1 0 0 0-.3 5.3 7.8 7.8 0 0 0 3.3 4.3z"/>
  <path fill="#7D1641" d="M161.9 205a7.9 7.9 0 0 0 3.4 4l4.4 2.6 15.4 6.6c.4.2.7.5.9.8l.3 1.2-.4 12.5v3.1l-.1 1v1.4l-.1 3.4 6.5.4.1-2.9v-1.5l.1-1v-.4l.1-1v-.6l.7-17.7a3.4 3.4 0 0 0-.3-1.6 3.6 3.6 0 0 0-1-1.3l-12.1-7.9-3-2.2-13.3-8.4-1 2.6-.5 1.4a7.8 7.8 0 0 0-.1 5.4"/>
  <path fill="#6F0F37" d="M162.5 198c1-.5 4 1.6 6.6 3.5 2.2 1.7 2.5 4.1 2.5 6.3s-1 4.2-1.9 3.8c.5.5 7.7 5 7.8 5.1l-.4-.8a16 16 0 0 1-1.6-6.2c-.1-3.6 2.7-3.6 4.1-3.7l-2.6-1.4-13.5-9zm23.5 40.2.1.2s.1-.8 2.8-.8c2.4 0 3.3 1.2 3.4 1.5v-1.5l.1-1v-.4l.1-1v-.6l-.3.3h-1.3l-1.6-1.6-3.2.2v3.3z"/>
  <path fill="#E28366" d="m194.1 160.5.9 9.6a7.5 7.5 0 0 0 8.1 6.8h.5l.6-.1a7.5 7.5 0 0 0 6.3-8.1l-.8-9.5a7.6 7.6 0 0 0-5.3-6.6 7.8 7.8 0 0 0-2.9-.3h-.5c-4.1.4-7.2 4-6.9 8.2"/>
  <path fill="#FEB187" d="m198 160.7.9 9.5a7.6 7.6 0 0 0 5.3 6.6 7.5 7.5 0 0 0 6.3-8.1l-.8-9.5a7.6 7.6 0 0 0-5.3-6.6 7.5 7.5 0 0 0-6.3 8.1"/>
  <path fill="#7A3730" d="M196.1 158.2s1 .6 3.4-.6c2.6-1.2 6.2-2.4 10.7 2.8 2.5-8.9-7-14.3-13.6-9-1.7 0-9.1 6.6-1.5 13.7l1-7"/>
  <path fill="#E28366" d="M192.8 164a2.6 2.6 0 0 0 1.2 3.4 2.6 2.6 0 0 0 3.5-1.2c.6-1.3 0-2.9-1.3-3.5a2.6 2.6 0 0 0-3.4 1.3"/>
  <path fill="#7A3730" d="m196.1 157.5.6 7.5s-1-4-3.3-1.9c0-4 2.7-5.6 2.7-5.6m.9-6c-.3-.6-1-1.5-2.3-.9 1 .5 1.8 2.1 1.8 2.1z"/>
  <path fill="#7A3730" d="M197.5 151c0-.5-.4-1.7-1.8-1.6.7.8.8 2.6.8 2.6z"/>
  <path fill="#24293A" d="m163 195.3 10.8 7.1 6 3.9 2.5-4-16.6-10.9z"/>
  <path fill="#03318B" d="m181 199.8-3.6-3-2.2.5.6-2-.8-.6-2.5.5 1.1-1-5.1-4-.8 1.8-.9-2.9-.9 2.5 13 8.6z"/>
  <path fill="#354059" d="m163.7 194.4 12.6 8.5a.8.8 0 0 0 1-.2l.8-1c.2-.4.1-.9-.2-1.1l-12.7-8.5-.1.2z"/>
  <path fill="#1C2035" d="m163.7 243.4 1-1h-.3v-.2z"/>
  <path fill="#47231C" d="M202.5 165.2a.8.8 0 0 1-.8.8.8.8 0 0 1-.8-.7.8.8 0 0 1 .7-.9.8.8 0 0 1 .9.8m5.5-.7c0 .4-.3.8-.8.9a.8.8 0 0 1-.8-.8.8.8 0 0 1 .7-.9.8.8 0 0 1 .9.8"/>
  <path stroke="#572B22" stroke-linecap="round" stroke-miterlimit="10" stroke-width="5.1" d="M208.7 162.7s-1 0-2.5-.7m-5.7 1s1-.1 2.5-1"/>
  <path fill="#F48967" d="M206 166.9c-.1.2-.5.4-1 .5-.5 0-1-.1-1.2-.3a.6.6 0 0 0-.1.3c0 .4.6.6 1.3.6.7 0 1.3-.4 1.3-.8a.5.5 0 0 0-.2-.3"/>
  <path stroke="#D86E52" stroke-linecap="round" stroke-miterlimit="10" stroke-width="6.5" d="M203.1 171.3c1.3-1.2 2.8-.8 3.7-.5"/>
  <path fill="#7A3730" d="M202.5 154.2c1.8.6 3.2 3 3.7 5 0 0-4.4-2.7-6.7-1.6-1.7.8-2.2-1.7-1.6-2.7.5-1 2.4-1.4 2.4-1.4z"/>
  <path fill="#9BB2AE" d="m224.8 211.4.3.2-.4.8-1 1.3c-.3-.9-1-1.7-.7-2.5.2-.5.8-.5 1.1-.3zm.3.2.1-.2h.2l.2.2a4 4 0 0 0 0 .3.8.8 0 0 0-.3-.1v-.1zm2.6-5a21 21 0 0 1-1.2 2.9l-1.3 1.9-.2-.2-1.4-1a.8.8 0 0 1-.3-1 .8.8 0 0 1 1.2-.3l1.5 1v-.2l-2-1.4a.8.8 0 0 1-.2-1.1.9.9 0 0 1 1.2-.3l1.7 1.2v-.2l-1.6-1.1a.8.8 0 0 1-.3-1.2.8.8 0 0 1 1.2-.3z" style="mix-blend-mode:multiply"/>
  <path fill="#FEB187" d="M225.8 205a.8.8 0 0 0 .2 1.2l2.1 1.4a.8.8 0 0 0 1.2-.2.8.8 0 0 0-.3-1.2l-2-1.4a.8.8 0 0 0-1.2.3m-1.1 1.7a.8.8 0 0 0 .2 1.1l3 2a.8.8 0 0 0 1.1-.3.8.8 0 0 0-.2-1.2l-3-1.9a.8.8 0 0 0-1.1.3m-.6 2a.8.8 0 0 0 .3 1.2l2.1 1.4a.8.8 0 0 0 1.2-.2.8.8 0 0 0-.3-1.2l-2.1-1.4a.8.8 0 0 0-1.2.2m-.4 2.2a.8.8 0 0 0 .3 1.2l1.1.8a.8.8 0 0 0 1.2-.2.8.8 0 0 0-.3-1.2l-1.1-.8a.8.8 0 0 0-1.2.2"/>
  <path fill="#03318B" d="m196.3 213.4-8-14z"/>
  <path stroke="#03318B" stroke-linecap="round" stroke-miterlimit="10" stroke-width="42" d="m196.3 213.4-8-14"/>
  <path fill="#2C344C" d="m180.7 201.3 1.6 1-2.5 4-1.6-1z"/>
  <path fill="#24293A" fill-rule="evenodd" d="m175.7 203 .2 1.7a2 2 0 0 1-1.7 2.2 2 2 0 0 1-2.2-1.8l-.1-1.7a2 2 0 0 1 1.7-2.2 2 2 0 0 1 2.1 1.7m-.8 2-.2-1.8a.9.9 0 0 0-1-.8.9.9 0 0 0-.8 1l.2 1.7a.9.9 0 0 0 1 .8.9.9 0 0 0 .8-1m1 4.3.1 1.8a2 2 0 0 1-1.8 2.1 2 2 0 0 1-2-1.8l-.2-1.7a2 2 0 0 1 1.8-2.1 2 2 0 0 1 2.1 1.7m-1 1.9v-1.8a.9.9 0 0 0-1-.8.9.9 0 0 0-.8 1v1.8a.9.9 0 0 0 1 .8.9.9 0 0 0 .9-1m1.3 4.1.3 1.8a2 2 0 0 1-1.7 2.2 2 2 0 0 1-2.2-1.6l-.2-1.8a2 2 0 0 1 1.6-2.2 2 2 0 0 1 2.2 1.6m-.8 2-.2-1.8a1 1 0 0 0-1-.8.9.9 0 0 0-.8 1l.3 1.8a.9.9 0 0 0 1 .8 1 1 0 0 0 .7-1m1.6 3.8.6 1.7a2 2 0 0 1-1.2 2.5 2 2 0 0 1-2.5-1.2l-.6-1.7a2 2 0 0 1 1.2-2.5 2 2 0 0 1 2.5 1.2m-.4 2-.6-1.6a.9.9 0 0 0-1.1-.6.9.9 0 0 0-.6 1.2l.6 1.6a.9.9 0 0 0 1.1.6c.5-.2.8-.7.6-1.2m2.5 3 1.1 1.5a2 2 0 0 1-.2 2.7 2 2 0 0 1-2.8-.3l-1.1-1.3a2 2 0 0 1 .3-2.8 2 2 0 0 1 2.7.3m.3 2-1.1-1.4a.9.9 0 0 0-1.3 0 .9.9 0 0 0 0 1.2l1 1.4a.9.9 0 0 0 1.3 0 .9.9 0 0 0 .1-1.2m3.3 2.1 1.5 1a2 2 0 1 1-2 3.3l-1.6-1a2 2 0 0 1-.6-2.7 2 2 0 0 1 2.7-.6m1 1.9-1.5-1a.9.9 0 0 0-1.3.3.9.9 0 0 0 .3 1.3l1.5.9a1 1 0 0 0 1.2-.3.9.9 0 0 0-.2-1.2m3.6 1h1.8a2 2 0 0 1 1.8 2.2 2 2 0 0 1-2.1 1.8l-1.8-.2a2 2 0 0 1-1.8-2 2 2 0 0 1 2-1.9m1.8 1.2-1.8-.1a1 1 0 0 0-1 .8c0 .5.4 1 .9 1l1.8.1a.9.9 0 0 0 1-.8.9.9 0 0 0-1-1m4.3-.7 1.7-.1a2 2 0 0 1 2.1 1.8 2 2 0 0 1-1.8 2l-1.8.2a2 2 0 0 1-2-1.8 2 2 0 0 1 1.8-2.1m1.8 1h-1.8a.9.9 0 0 0-.8 1 .9.9 0 0 0 1 .8l1.7-.1a.9.9 0 0 0 .9-1 1 1 0 0 0-1-.8" clip-rule="evenodd"/>
  <path fill="#24293A" d="M174.7 206a.8.8 0 0 0-1.5-.2l-.1 2.4a.8.8 0 0 0 .7.8.8.8 0 0 0 .8-.7zm.3 6a.8.8 0 0 0-1.5 0v2.4a.8.8 0 0 0 .8.8.8.8 0 0 0 .7-.8zm.5 6.2a.8.8 0 0 0-.9-.7.8.8 0 0 0-.6.8l.2 2.4c.1.5.5.7.9.7a.8.8 0 0 0 .7-.8zm1.4 5.6a.8.8 0 0 0-1-.3.8.8 0 0 0-.3 1l1 2.2a.8.8 0 0 0 1 .3.8.8 0 0 0 .4-1zm3.1 5a.8.8 0 0 0-1 0 .8.8 0 0 0-.1 1l1.5 1.9a.7.7 0 0 0 1 0 .7.7 0 0 0 .2-1zm4.5 3.8a.8.8 0 0 0-1 .3.8.8 0 0 0 .2 1l2 1.3a.7.7 0 0 0 1-.3.7.7 0 0 0-.2-1zm5.5 1.8a.8.8 0 0 0-.7.8.8.8 0 0 0 .7.8h2.4a.8.8 0 0 0 .8-.8.7.7 0 0 0-.8-.8zm6 0a.7.7 0 0 0-.6.9.8.8 0 0 0 .8.6l2.4-.3a.8.8 0 0 0 .6-.9.8.8 0 0 0-.8-.6z"/>
  <path fill="#FEB187" d="m203.2 220.7.7 2c.2.6-1 1.2-1.5.2-.7-1.3-.5-1.4-.5-1.4l.7-.8z"/>
  <path fill="#00143C" d="m151 374.3.3.1H201c-.4-1.7-2-5-7.8-5.9-7.6-1.2-21-5.7-24-15.5a14 14 0 0 1-.2-1c-2.4-10.5-19.6 3.2-19.6 3.2v1.1c-.5 4-1.5 16.4 1.8 18"/>
  <path fill="#002162" d="M216.7 196.2s-32.3 114.6-42 158.9c0 0-24 4.8-27.7-2.7 0 0 7.7-124.8 22-140.6 17.6-19.8 47.7-15.6 47.7-15.6"/>
  <path fill="#ED975D" d="M219.3 80s-.8-5 .5-9.3c1.3-4.3 6.9-15.5 5.1-19.4-1.7-4-8-14.5-12-14.5s4.1 11.3 3 14.8-1.4 3.8-2.8 3.5c-1.3-.3-3.4-7-4-5.5-.8 1.6-.4 12 1 14.6 1.2 2.6-1.4 17.2-1.4 17.2z"/>
  <path fill="#67072F" d="M222.4 77.8s-8.6-5-15.3-2.8c0 0-13.2 38.1-20.5 66.2-14-34.6-22.7-69-22.7-69s-17 23.4-23 39 30.4 70.3 44.7 74.6c14.8 4.5 12.1 0 20.5-4.8 2.7-3.5 11.3-20.9 16.3-103.2"/>
  <path fill="#00143C" d="m261.5 376.1.3.1h49.6c-.5-1.8-2.1-5-7.8-5.9-7.7-1.2-21-5.7-24-15.6a17 17 0 0 1-.3-1c-2.3-10.4-19.5 3.3-19.5 3.3l-.1 1.1c-.4 3.9-1.4 16.4 1.8 18"/>
  <path fill="#03318B" d="M226.3 193.4s-4.9 2.2-10.8 6.6c-.7-3.5-1.7-5.7-1.7-5.7C171.3 183.2 57.4 184 57.4 184s-24.5 6.1-17.4 41.8c6.7 32.8 116 17.6 151.4 7.8a73 73 0 0 0 2.4-.8c-2.8 21 16.9 50.7 34 78.2a801.1 801.1 0 0 1 26.4 45.5c7.1 4.4 31 1.9 31 1.9-15-42.8-59-165-59-165"/>
  <path fill="#FFB27D" d="M132.4 60.6s12.2 39 30.5 47.8c0 0 1.8-11.8-1.2-20.9a240 240 0 0 0 6.4-5c6.3-5.3 9.4-8.6 9.4-8.6l-2.7-19-1.9-13c-3 3.4-6 6.2-9.1 8.5-15.8 11.8-31.4 10.2-31.4 10.2"/>
  <path fill="#ED975D" d="M163.8 50.4s-6.2 17 4.3 32c6.3-5.2 9.4-8.5 9.4-8.5l-2.7-19c-6.6-3.7-11-4.5-11-4.5"/>
  <path fill="#FFB27D" d="M182.2 77.6s-27-18-15.7-34.6C178 26.3 182.2 12.7 200 23.5c17.7 10.8 16.7 19.4 14.2 26-2.5 6.4-24.7 32.4-32 28.1"/>
  <path fill="#00143C" d="M169.7 8c-.1-.4-.6-1-2-1.7 0 0 1.5-.2 3 .5 1.3-1.8 4-4.9 7.8-4 0 0-2.3 0-3.6 2 6-2.1 15.8-1 38 12.2 29.4 17.4 9.6 32.4 4.5 32.8-5.1.4-12-11-19.6-14-7.6-3-14.3 7.2-17.6 7.4-3.2.3-.9-1.9-3.5-5-2.6-3.3-5.8 2.3-6.6 6.4-.8 4.2-7.9 6.8-7.9 6.8l-2.1-7.4c-2.2-7.5 4-31.4 8.4-35l1.2-1"/>
  <path fill="#7D1641" d="M165.3 125.7c-8.1 19.3-15.6 31.6-16.5 33.2-3.5 5.8-7.3 11.1-10.7 15.7l-.4.5c-6.7 9-17 11.6-16.8 13.9.7 4.6-11 15.6-30 20.4-22.1 5.7-47.8 8.4-54.3 1-2.2-2.6-2.9-7.2-2.7-13 .5-12 15.8-60.8 15.8-60.8 26-79 100.7-79 100.7-79s-1.5 19 16.8 25.5c0 0 4.3 27.8-1.9 42.6"/>
  <path fill="#FFB27D" d="M209.1 181.9s11.2 4 14.3 5.9 10.2 11.6 11 15c.8 3.4 1.7 13.3 1.1 15-.6 1.7-9.1-4.7-11-10.8-2-6-6.9-7.6-6.7-7.3.2.4 2.7 8 2.2 8.4-.5.3-2.8.9-4.9-3.4-2-4.3-6.1-7.4-5.4-11.9.8-4.5-.6-11-.6-11"/>
  <path fill="#67072F" d="M121.3 189.6c.6 4.6-11.3 15-30.4 19.8-16-31.7 14.3-104.2 14.3-104.2l32.9 69.4c-7 9.4-17.1 12.7-16.8 15"/>
  <path fill="#67072F" d="M148.8 158.9c-3.5 5.8-7.3 11-10.7 15.7l-.4.5c-4.5-1.8-9-5.2-11.2-8.4-5.2-7.3-5.6-51.2-5.6-51.2s21.2 26.2 27.9 43.4"/>
  <path fill="#7D1641" d="M213.4 182.9s-51.1-14.4-77.4-20.6c2.3-31 10-124.7-37.8-87.2 0 0-3.6 100.4 19.5 120.7 0 0 74.2 1.6 88.3.7 0 0 4.2-2.1 5.2-3.5 3.3-4.6 2.2-10.1 2.2-10.1"/>
  <path fill="#F99746" d="M169.7 244.5v19.7c0 4-3.3 7.4-7.4 7.4H45.7c-4 0-7.4-3.3-7.4-7.4v-19.7c0-4.1 3.3-7.4 7.4-7.4h116.6c4.1 0 7.4 3.3 7.4 7.4"/>
  <path fill="#ED7D2B" d="M169.7 260.6v3.6c0 4-3.3 7.4-7.4 7.4H45.7c-4 0-7.4-3.3-7.4-7.4v-3.9h129.3c.7 0 1.5.1 2.1.3"/>
  <path fill="#E8C6A7" d="m66.4 271.6-5.3 20-21.9 82.8H37l12.6-68.7.1-.2 6.2-34z"/>
  <path fill="#C69D7B" d="m66.4 271.6-5.3 20c-.3.1-9.9 5-11.5 13.9l6.2-34z"/>
  <path fill="#E8C6A7" d="M169.7 374.4h-2.3L149.6 307l-4-15.4-5.3-19.9 10.5-.1 3.6 19.4 2.6 14.6.1.2zm-35.5-76.7c-.1-.1-.1 0 0 0"/>
  <path fill="#C69D7B" d="M154.4 290.9c-2 2.8-4.6 8.1-4.8 16l-4-15.4-5.3-19.9 10.5-.1z"/>
  <path fill="#A99FC5" d="M327 376.6H2c-.1 0-.3-.4-.3-1v-.2c0-.5.2-1 .3-1H327c.2 0 .3.5.3 1v.3c0 .5-.1 1-.3 1"/>
  <defs>
    <linearGradient id="a" x1="175.3" x2="209.4" y1="211.6" y2="148.1" gradientUnits="userSpaceOnUse">
      <stop stop-color="#24293A"/>
      <stop offset="1" stop-color="#354059"/>
    </linearGradient>
  </defs>
</svg>
