<svg xmlns="http://www.w3.org/2000/svg" viewBox="0 0 172 58" fill="none">
  <path d="M158.303 0.555727H13.7047C13.1777 0.555727 12.6569 0.555727 12.1312 0.558577C11.6912 0.561427 11.2546 0.569706 10.8104 0.576675C9.8452 0.587935 8.8823 0.672116 7.93004 0.828486C6.97912 0.988261 6.05799 1.28948 5.1978 1.72196C4.33866 2.1581 3.55364 2.72482 2.87122 3.40155C2.18522 4.07638 1.61338 4.8564 1.1777 5.71161C0.740814 6.56511 0.437877 7.47971 0.27935 8.42384C0.119316 9.36677 0.0332006 10.3206 0.021776 11.2767C0.00843729 11.7136 0.00702868 12.1519 0 12.5889V45.5267C0.00702868 45.9692 0.00843729 46.3978 0.021776 46.8404C0.0332041 47.7965 0.11932 48.7503 0.27935 49.6931C0.437439 50.6378 0.740394 51.553 1.1777 52.4068C1.61318 53.2592 2.1851 54.0361 2.87122 54.7071C3.55106 55.3869 4.33658 55.954 5.1978 56.3868C6.05798 56.8204 6.97902 57.1235 7.93004 57.2857C8.88246 57.4408 9.84526 57.525 10.8104 57.5376C11.2546 57.5473 11.6912 57.5529 12.1312 57.5529C12.6569 57.5557 13.1777 57.5557 13.7047 57.5557H158.303C158.82 57.5557 159.344 57.5557 159.861 57.5529C160.299 57.5529 160.748 57.5473 161.186 57.5376C162.149 57.5257 163.11 57.4415 164.061 57.2857C165.015 57.1223 165.939 56.8194 166.804 56.3868C167.664 55.9537 168.449 55.3867 169.128 54.7071C169.812 54.0334 170.386 53.2572 170.827 52.4068C171.261 51.5523 171.561 50.6373 171.716 49.6931C171.877 48.7501 171.966 47.7966 171.983 46.8404C171.989 46.3978 171.989 45.9692 171.989 45.5267C172 45.009 172 44.4942 172 43.9681V14.1447C172 13.6229 172 13.1052 171.989 12.5889C171.989 12.1519 171.989 11.7136 171.983 11.2766C171.966 10.3204 171.877 9.36684 171.716 8.42378C171.56 7.4802 171.26 6.56567 170.827 5.71155C169.939 3.99738 168.532 2.60206 166.804 1.72183C165.939 1.29041 165.015 0.98927 164.061 0.828358C163.111 0.671299 162.15 0.587088 161.186 0.576475C160.748 0.569521 160.299 0.561171 159.861 0.558392C159.344 0.555542 158.82 0.555727 158.303 0.555727Z" fill="#A6A6A6"/>
  <path d="M12.1383 56.3087C11.7004 56.3087 11.273 56.3031 10.8385 56.2934C9.93841 56.2818 9.04041 56.2041 8.15188 56.061C7.32338 55.9195 6.52078 55.6564 5.77056 55.2802C5.02721 54.9072 4.34923 54.4181 3.76257 53.8316C3.16742 53.252 2.67193 52.5798 2.29573 51.8416C1.91539 51.0986 1.65217 50.3021 1.51525 49.4801C1.36738 48.5967 1.28737 47.7035 1.27593 46.8082C1.26681 46.5077 1.25488 45.507 1.25488 45.507V12.5887C1.25488 12.5887 1.26759 11.6035 1.276 11.314C1.28696 10.4201 1.3665 9.52827 1.51392 8.6463C1.6511 7.82197 1.91452 7.02326 2.29507 6.27781C2.66988 5.54011 3.16262 4.86739 3.75419 4.28573C4.34509 3.69855 5.02525 3.2069 5.76985 2.82871C6.51835 2.45377 7.31943 2.19248 8.14626 2.0536C9.03771 1.90906 9.93882 1.83091 10.842 1.81981L12.139 1.80241H159.854L161.167 1.82051C162.062 1.83106 162.954 1.90851 163.838 2.0522C164.673 2.19283 165.482 2.45594 166.239 2.83289C167.731 3.59504 168.945 4.80085 169.711 6.28129C170.085 7.02159 170.344 7.81379 170.48 8.631C170.629 9.5202 170.713 10.419 170.73 11.3203C170.734 11.7238 170.734 12.1573 170.734 12.5887C170.745 13.1231 170.745 13.6317 170.745 14.1445V43.9679C170.745 44.4856 170.745 44.9907 170.734 45.5C170.734 45.9634 170.734 46.388 170.728 46.8249C170.712 47.71 170.629 48.5928 170.483 49.4661C170.349 50.2941 170.087 51.0967 169.706 51.8458C169.328 52.576 168.835 53.2424 168.247 53.8205C167.66 54.4101 166.98 54.9021 166.235 55.2775C165.48 55.6566 164.672 55.9207 163.838 56.061C162.949 56.2049 162.051 56.2826 161.151 56.2934C160.73 56.3031 160.289 56.3087 159.861 56.3087L158.303 56.3115L12.1383 56.3087Z" fill="black"/>
  <path d="M35.6018 29.484C35.6172 28.2946 35.9359 27.1284 36.5281 26.094C37.1204 25.0595 37.9669 24.1903 38.989 23.5673C38.3397 22.648 37.4831 21.8914 36.4873 21.3577C35.4914 20.8239 34.3838 20.5277 33.2523 20.4926C30.8386 20.2415 28.4987 21.9245 27.2687 21.9245C26.0149 21.9245 24.1212 20.5176 22.082 20.5592C20.763 20.6014 19.4775 20.9817 18.3508 21.6629C17.2241 22.3442 16.2946 23.3031 15.6528 24.4464C12.873 29.2179 14.9465 36.2304 17.6094 40.0873C18.9416 41.9759 20.4987 44.0856 22.5361 44.0108C24.5298 43.9288 25.2744 42.7504 27.681 42.7504C30.0652 42.7504 30.7638 44.0108 32.8425 43.9632C34.9818 43.9288 36.3297 42.0662 37.6153 40.1597C38.5725 38.814 39.3091 37.3266 39.7978 35.7528C38.5549 35.2317 37.4942 34.3593 36.7481 33.2445C36.0019 32.1298 35.6032 30.8219 35.6018 29.484Z" fill="white"/>
  <path d="M31.6755 17.9561C32.8419 16.5678 33.4166 14.7835 33.2775 12.9819C31.4954 13.1675 29.8492 14.0119 28.667 15.3469C28.089 15.9991 27.6463 16.7578 27.3642 17.5797C27.0821 18.4016 26.9662 19.2705 27.0231 20.1369C27.9145 20.146 28.7963 19.9544 29.6022 19.5767C30.408 19.1989 31.1169 18.6448 31.6755 17.9561Z" fill="white"/>
  <path d="M60.8036 39.2295H54L52.3661 44.0125H49.4844L55.9286 26.3168H58.9226L65.3669 44.0125H62.436L60.8036 39.2295ZM54.7046 37.0225H60.0976L57.439 29.2601H57.3646L54.7046 37.0225Z" fill="white"/>
  <path d="M79.2842 37.5624C79.2842 41.5716 77.1197 44.1475 73.8534 44.1475C73.0259 44.1904 72.2031 44.0014 71.4789 43.6022C70.7548 43.203 70.1587 42.6097 69.7589 41.8903H69.6971V48.2805H67.0259V31.1109H69.6115V33.2568H69.6606C70.0788 32.5408 70.685 31.9506 71.4146 31.5489C72.1443 31.1473 72.9701 30.9493 73.8042 30.976C77.107 30.976 79.2842 33.5643 79.2842 37.5624ZM76.5386 37.5624C76.5386 34.9504 75.177 33.2331 73.0996 33.2331C71.0587 33.2331 69.6859 34.9866 69.6859 37.5624C69.6859 40.1619 71.0587 41.9028 73.0996 41.9028C75.177 41.9028 76.5386 40.1981 76.5386 37.5624Z" fill="white"/>
  <path d="M93.6074 37.5624C93.6074 41.5716 91.4429 44.1475 88.1766 44.1475C87.3492 44.1904 86.5263 44.0014 85.8022 43.6022C85.078 43.203 84.4819 42.6097 84.0821 41.8903H84.0203V48.2805H81.3491V31.1109H83.9347V33.2568H83.9838C84.402 32.5408 85.0082 31.9505 85.7378 31.5489C86.4675 31.1473 87.2933 30.9493 88.1274 30.976C91.4303 30.976 93.6074 33.5643 93.6074 37.5624ZM90.8618 37.5624C90.8618 34.9504 89.5003 33.2331 87.4228 33.2331C85.3819 33.2331 84.0091 34.9865 84.0091 37.5624C84.0091 40.1619 85.3819 41.9028 87.4228 41.9028C89.5003 41.9028 90.8618 40.1981 90.8618 37.5624Z" fill="white"/>
  <path d="M103.074 39.082C103.272 40.8368 104.991 41.989 107.341 41.989C109.592 41.989 111.212 40.8368 111.212 39.2545C111.212 37.881 110.235 37.0586 107.922 36.495L105.609 35.9425C102.331 35.1576 100.81 33.638 100.81 31.1721C100.81 28.1189 103.493 26.0218 107.304 26.0218C111.076 26.0218 113.662 28.1189 113.749 31.1721H111.052C110.891 29.4061 109.418 28.3402 107.266 28.3402C105.115 28.3402 103.642 29.4187 103.642 30.9884C103.642 32.2395 104.583 32.9756 106.883 33.5392L108.85 34.0179C112.512 34.8765 114.034 36.3349 114.034 38.9233C114.034 42.2339 111.374 44.3074 107.143 44.3074C103.185 44.3074 100.512 42.2826 100.339 39.0819L103.074 39.082Z" fill="white"/>
  <path d="M119.798 28.0578V31.1109H122.273V33.2081H119.798V40.3205C119.798 41.4255 120.294 41.9404 121.382 41.9404C121.675 41.9353 121.969 41.9148 122.26 41.8791V43.9637C121.771 44.0543 121.274 44.0953 120.777 44.0862C118.142 44.0862 117.115 43.1051 117.115 40.603V33.2081H115.222V31.1109H117.115V28.0578H119.798Z" fill="white"/>
  <path d="M123.706 37.5624C123.706 33.5031 126.118 30.9523 129.878 30.9523C133.651 30.9523 136.052 33.5031 136.052 37.5624C136.052 41.6328 133.664 44.1725 129.878 44.1725C126.094 44.1725 123.706 41.6328 123.706 37.5624ZM133.33 37.5624C133.33 34.7778 132.043 33.1343 129.878 33.1343C127.714 33.1343 126.428 34.7903 126.428 37.5624C126.428 40.3581 127.714 41.9891 129.878 41.9891C132.043 41.9891 133.33 40.3581 133.33 37.5624Z" fill="white"/>
  <path d="M138.254 31.1109H140.802V33.3069H140.863C141.036 32.621 141.441 32.0149 142.011 31.5904C142.581 31.1659 143.281 30.949 143.994 30.9759C144.301 30.9749 144.608 31.008 144.909 31.0747V33.5518C144.52 33.4341 144.115 33.38 143.709 33.3918C143.321 33.3761 142.934 33.444 142.575 33.5906C142.215 33.7372 141.893 33.9591 141.628 34.2411C141.364 34.5231 141.164 34.8585 141.043 35.2243C140.921 35.59 140.881 35.9775 140.925 36.36V44.0125H138.254L138.254 31.1109Z" fill="white"/>
  <path d="M157.224 40.2231C156.865 42.5652 154.565 44.1725 151.621 44.1725C147.835 44.1725 145.486 41.6579 145.486 37.6236C145.486 33.5768 147.848 30.9523 151.509 30.9523C155.109 30.9523 157.373 33.4043 157.373 37.3161V38.2234H148.182V38.3834C148.14 38.8582 148.2 39.3366 148.358 39.7866C148.516 40.2367 148.769 40.6482 149.101 40.9939C149.432 41.3395 149.833 41.6113 150.278 41.7913C150.724 41.9713 151.202 42.0553 151.683 42.0378C152.314 42.0964 152.947 41.9515 153.489 41.6245C154.03 41.2976 154.451 40.8061 154.688 40.2231L157.224 40.2231ZM148.195 36.3726H154.701C154.725 35.9456 154.659 35.5184 154.509 35.1177C154.358 34.717 154.126 34.3514 153.826 34.0439C153.527 33.7365 153.166 33.4937 152.767 33.331C152.368 33.1682 151.94 33.089 151.509 33.0981C151.074 33.0956 150.643 33.1784 150.24 33.3419C149.838 33.5054 149.472 33.7464 149.164 34.0508C148.855 34.3552 148.611 34.7171 148.445 35.1156C148.279 35.5141 148.194 35.9413 148.195 36.3726Z" fill="white"/>
  <path d="M54.3699 12.9972C54.9299 12.9574 55.4918 13.0412 56.0152 13.2428C56.5385 13.4443 57.0103 13.7585 57.3963 14.1627C57.7824 14.5668 58.0731 15.0509 58.2476 15.58C58.4221 16.109 58.476 16.6699 58.4054 17.2221C58.4054 19.9385 56.9246 21.5 54.3699 21.5H51.272V12.9972H54.3699ZM52.604 20.2975H54.2211C54.6212 20.3212 55.0217 20.2562 55.3933 20.1071C55.7649 19.958 56.0983 19.7287 56.3693 19.4357C56.6402 19.1428 56.8418 18.7937 56.9595 18.4137C57.0772 18.0338 57.1079 17.6326 57.0495 17.2394C57.1037 16.8478 57.0698 16.4491 56.9503 16.072C56.8309 15.6948 56.6287 15.3486 56.3584 15.058C56.0881 14.7674 55.7563 14.5396 55.3868 14.3911C55.0173 14.2426 54.6192 14.1769 54.2211 14.1988H52.604V20.2975Z" fill="white"/>
  <path d="M59.9102 18.2887C59.8695 17.867 59.9182 17.4416 60.053 17.0396C60.1879 16.6377 60.406 16.2681 60.6934 15.9546C60.9808 15.6412 61.3311 15.3907 61.7219 15.2193C62.1126 15.0479 62.5352 14.9594 62.9625 14.9594C63.3898 14.9594 63.8123 15.0479 64.2031 15.2193C64.5938 15.3907 64.9441 15.6412 65.2315 15.9546C65.5189 16.2681 65.737 16.6377 65.8719 17.0396C66.0068 17.4416 66.0554 17.867 66.0147 18.2887C66.0562 18.7108 66.0081 19.1369 65.8736 19.5395C65.7391 19.9421 65.5211 20.3123 65.2336 20.6264C64.9462 20.9405 64.5956 21.1915 64.2045 21.3633C63.8133 21.535 63.3903 21.6238 62.9625 21.6238C62.5347 21.6238 62.1116 21.535 61.7205 21.3633C61.3293 21.1915 60.9788 20.9405 60.6913 20.6264C60.4039 20.3123 60.1859 19.9421 60.0513 19.5395C59.9168 19.1369 59.8687 18.7108 59.9102 18.2887ZM64.7009 18.2887C64.7009 16.8978 64.0706 16.0844 62.9646 16.0844C61.8543 16.0844 61.2297 16.8978 61.2297 18.2887C61.2297 19.6908 61.8543 20.4979 62.9646 20.4979C64.0707 20.4979 64.7009 19.6852 64.7009 18.2887Z" fill="white"/>
  <path d="M74.1294 21.4998H72.8043L71.4667 16.774H71.3656L70.0335 21.4998H68.7211L66.937 15.0832H68.2326L69.392 19.9795H69.4875L70.8182 15.0832H72.0436L73.3742 19.9795H73.4753L74.6291 15.0832H75.9065L74.1294 21.4998Z" fill="white"/>
  <path d="M77.407 15.0832H78.6366V16.1025H78.7321C78.894 15.7364 79.1671 15.4295 79.5133 15.2246C79.8595 15.0196 80.2616 14.9269 80.6635 14.9593C80.9784 14.9358 81.2946 14.9829 81.5887 15.097C81.8828 15.2112 82.1472 15.3894 82.3624 15.6186C82.5775 15.8478 82.7379 16.1221 82.8316 16.4211C82.9253 16.7201 82.95 17.0362 82.9038 17.3459V21.4998H81.6264V17.6639C81.6264 16.6327 81.1744 16.1199 80.2298 16.1199C80.0159 16.11 79.8025 16.1461 79.6041 16.2257C79.4056 16.3052 79.2269 16.4264 79.0801 16.5808C78.9333 16.7353 78.8219 16.9194 78.7536 17.1205C78.6853 17.3216 78.6617 17.535 78.6843 17.746V21.4998H77.407L77.407 15.0832Z" fill="white"/>
  <path d="M84.939 12.5783H86.2163V21.4998H84.939V12.5783Z" fill="white"/>
  <path d="M87.9919 18.2887C87.9513 17.867 88 17.4415 88.1349 17.0396C88.2698 16.6376 88.488 16.268 88.7754 15.9545C89.0628 15.6411 89.4131 15.3906 89.8039 15.2192C90.1947 15.0478 90.6173 14.9593 91.0446 14.9593C91.4719 14.9593 91.8945 15.0478 92.2852 15.2192C92.676 15.3906 93.0263 15.6411 93.3138 15.9545C93.6012 16.268 93.8193 16.6376 93.9543 17.0396C94.0892 17.4415 94.1379 17.867 94.0972 18.2887C94.1386 18.7109 94.0905 19.1369 93.9559 19.5395C93.8214 19.9421 93.6033 20.3123 93.3158 20.6264C93.0283 20.9405 92.6778 21.1915 92.2866 21.3632C91.8954 21.535 91.4724 21.6237 91.0446 21.6237C90.6168 21.6237 90.1937 21.535 89.8025 21.3632C89.4114 21.1915 89.0608 20.9405 88.7733 20.6264C88.4858 20.3123 88.2678 19.9421 88.1332 19.5395C87.9987 19.1369 87.9505 18.7109 87.9919 18.2887ZM92.7827 18.2887C92.7827 16.8978 92.1524 16.0844 91.0463 16.0844C89.936 16.0844 89.3114 16.8978 89.3114 18.2887C89.3114 19.6908 89.9361 20.4979 91.0463 20.4979C92.1524 20.4979 92.7827 19.6852 92.7827 18.2887Z" fill="white"/>
  <path d="M95.4419 19.6852C95.4419 18.5302 96.3094 17.8643 97.8492 17.7696L99.6024 17.6695V17.1156C99.6024 16.4379 99.1504 16.0552 98.2773 16.0552C97.5642 16.0552 97.0702 16.3147 96.9284 16.7684H95.6917C95.8223 15.6662 96.868 14.9593 98.3363 14.9593C99.9589 14.9593 100.874 15.7602 100.874 17.1156V21.4998H99.6445V20.5981H99.5434C99.3383 20.9216 99.0502 21.1852 98.7087 21.3622C98.3671 21.5392 97.9843 21.6232 97.5993 21.6056C97.3276 21.6336 97.053 21.6048 96.7932 21.5212C96.5334 21.4376 96.2941 21.3009 96.0909 21.1199C95.8876 20.939 95.7248 20.7178 95.613 20.4707C95.5013 20.2236 95.443 19.956 95.4419 19.6852ZM99.6024 19.1369V18.6004L98.0218 18.7006C97.1305 18.7598 96.7262 19.0604 96.7262 19.626C96.7262 20.2035 97.2316 20.5396 97.9264 20.5396C98.13 20.5601 98.3357 20.5397 98.5312 20.4797C98.7267 20.4197 98.908 20.3214 99.0643 20.1905C99.2207 20.0596 99.3489 19.8989 99.4414 19.7179C99.5338 19.5369 99.5885 19.3393 99.6024 19.1369Z" fill="white"/>
  <path d="M102.553 18.2887C102.553 16.2612 103.604 14.9767 105.24 14.9767C105.644 14.9582 106.046 15.0543 106.397 15.2536C106.748 15.453 107.035 15.7474 107.224 16.1025H107.32V12.5783H108.597V21.4998H107.373V20.486H107.272C107.069 20.8387 106.772 21.1295 106.413 21.3268C106.055 21.5241 105.649 21.6205 105.24 21.6056C103.593 21.6056 102.553 20.3212 102.553 18.2887ZM103.872 18.2887C103.872 19.6497 104.52 20.4687 105.602 20.4687C106.678 20.4687 107.344 19.6379 107.344 18.2943C107.344 16.957 106.671 16.1143 105.602 16.1143C104.527 16.1143 103.872 16.9389 103.872 18.2887Z" fill="white"/>
  <path d="M113.882 18.2887C113.841 17.867 113.89 17.4416 114.025 17.0396C114.16 16.6377 114.378 16.2681 114.665 15.9546C114.953 15.6412 115.303 15.3907 115.694 15.2193C116.084 15.0479 116.507 14.9594 116.934 14.9594C117.361 14.9594 117.784 15.0479 118.175 15.2193C118.565 15.3907 118.916 15.6412 119.203 15.9546C119.491 16.2681 119.709 16.6377 119.844 17.0396C119.978 17.4416 120.027 17.867 119.986 18.2887C120.028 18.7108 119.98 19.1369 119.845 19.5395C119.711 19.9421 119.493 20.3123 119.205 20.6264C118.918 20.9405 118.567 21.1915 118.176 21.3633C117.785 21.535 117.362 21.6238 116.934 21.6238C116.506 21.6238 116.083 21.535 115.692 21.3633C115.301 21.1915 114.95 20.9405 114.663 20.6264C114.376 20.3123 114.158 19.9421 114.023 19.5395C113.888 19.1369 113.84 18.7108 113.882 18.2887ZM118.673 18.2887C118.673 16.8978 118.042 16.0844 116.936 16.0844C115.826 16.0844 115.201 16.8978 115.201 18.2887C115.201 19.6908 115.826 20.4979 116.936 20.4979C118.042 20.4979 118.673 19.6852 118.673 18.2887Z" fill="white"/>
  <path d="M121.7 15.0832H122.93V16.1025H123.026C123.187 15.7364 123.461 15.4295 123.807 15.2246C124.153 15.0196 124.555 14.9269 124.957 14.9593C125.272 14.9358 125.588 14.9829 125.882 15.097C126.176 15.2112 126.441 15.3894 126.656 15.6186C126.871 15.8478 127.031 16.1221 127.125 16.4211C127.219 16.7201 127.243 17.0362 127.197 17.3459V21.4998H125.92V17.6639C125.92 16.6327 125.468 16.1199 124.523 16.1199C124.309 16.11 124.096 16.1461 123.898 16.2257C123.699 16.3052 123.52 16.4264 123.374 16.5808C123.227 16.7353 123.115 16.9194 123.047 17.1205C122.979 17.3216 122.955 17.535 122.978 17.746V21.4998H121.7V15.0832Z" fill="white"/>
  <path d="M134.415 13.4856V15.1124H135.817V16.179H134.415V19.4785C134.415 20.1507 134.694 20.445 135.33 20.445C135.493 20.4445 135.655 20.4347 135.817 20.4158V21.4706C135.588 21.5113 135.355 21.5329 135.122 21.5353C133.702 21.5353 133.136 21.0399 133.136 19.8028V16.179H132.109V15.1123H133.136V13.4856H134.415Z" fill="white"/>
  <path d="M137.562 12.5783H138.828V16.1143H138.929C139.099 15.7448 139.379 15.4362 139.732 15.2305C140.086 15.0248 140.494 14.932 140.902 14.9649C141.216 14.948 141.529 14.9998 141.82 15.1167C142.11 15.2336 142.372 15.4127 142.584 15.6412C142.797 15.8697 142.957 16.1419 143.051 16.4385C143.146 16.7351 143.173 17.0487 143.131 17.357V21.4998H141.853V17.6694C141.853 16.6445 141.371 16.1254 140.469 16.1254C140.249 16.1076 140.028 16.1375 139.822 16.2131C139.615 16.2887 139.428 16.4082 139.272 16.5631C139.117 16.7181 138.998 16.9048 138.923 17.1102C138.848 17.3156 138.82 17.5347 138.839 17.7522V21.4998H137.562L137.562 12.5783Z" fill="white"/>
  <path d="M150.58 19.7673C150.406 20.3537 150.03 20.861 149.517 21.2004C149.005 21.5397 148.388 21.6896 147.775 21.6237C147.349 21.6348 146.925 21.5539 146.533 21.3864C146.141 21.2189 145.791 20.9689 145.507 20.6538C145.222 20.3387 145.01 19.966 144.886 19.5615C144.761 19.1571 144.727 18.7306 144.785 18.3117C144.728 17.8915 144.763 17.4641 144.888 17.0584C145.012 16.6527 145.223 16.2783 145.506 15.9604C145.789 15.6425 146.137 15.3886 146.528 15.2159C146.918 15.0432 147.342 14.9557 147.769 14.9593C149.57 14.9593 150.657 16.1791 150.657 18.1941V18.6359H146.086V18.7069C146.066 18.9424 146.096 19.1794 146.174 19.4028C146.252 19.6261 146.376 19.8309 146.538 20.004C146.7 20.1771 146.897 20.3146 147.116 20.4078C147.335 20.501 147.572 20.5478 147.81 20.5451C148.116 20.5815 148.425 20.527 148.699 20.3884C148.974 20.2499 149.2 20.0337 149.35 19.7672L150.58 19.7673ZM146.086 17.6994H149.355C149.372 17.484 149.342 17.2677 149.269 17.0643C149.196 16.8609 149.08 16.675 148.93 16.5185C148.78 16.3619 148.599 16.2382 148.398 16.1553C148.196 16.0724 147.98 16.0322 147.762 16.0371C147.541 16.0344 147.322 16.0755 147.118 16.158C146.913 16.2406 146.727 16.363 146.571 16.5179C146.415 16.6728 146.291 16.8571 146.208 17.0601C146.125 17.263 146.083 17.4803 146.086 17.6994Z" fill="white"/>
</svg>
