<svg xmlns="http://www.w3.org/2000/svg" width="113" height="111" viewBox="0 0 113 111" fill="none">
  <g clip-path="url(#clip0_83_94)">
    <path fill-rule="evenodd" clip-rule="evenodd"
      d="M59.2857 7.60671L99.4082 37.3414C102.735 39.7904 104.694 43.6884 104.694 47.8312V96.7904C104.694 103.994 98.8368 109.852 91.6327 109.852H13.2653C6.06124 109.852 0.204102 103.994 0.204102 96.7904V47.8312C0.204102 43.6884 2.16329 39.8108 5.48982 37.3414L45.6123 7.60671C47.5919 6.15773 49.9796 5.36182 52.449 5.36182C54.9184 5.36182 57.3061 6.15773 59.2857 7.60671ZM13.2653 57.5047L45.6123 81.4843C47.5919 82.9333 49.9796 83.7292 52.449 83.7292C54.9184 83.7292 57.3061 82.9537 59.2857 81.4843L91.6327 57.5047V47.8312L52.449 18.8108L13.2653 47.8312V57.5047Z"
      fill="#03318B" />
    <path
      d="M31.4897 42.3618L83.4081 3.7291C84.306 3.05563 85.5917 3.23931 86.2652 4.13727L108.918 34.5862C109.592 35.4842 109.408 36.7699 108.51 37.4434L56.5917 76.076C55.6938 76.7495 54.408 76.5658 53.7346 75.6679L31.0815 45.2189C30.4081 44.3209 30.5917 43.0352 31.4897 42.3618Z"
      fill="#E7E2F5" />
    <path fill-rule="evenodd" clip-rule="evenodd"
      d="M29.6123 48.8924C26.8572 45.2189 27.5919 39.9536 31.2858 37.1985L78.0205 2.03526C81.7143 -0.740251 86.9592 -0.00555724 89.7347 3.68832L109.816 30.4026C112.592 34.0965 111.857 39.3414 108.163 42.0965L61.4082 77.2598C57.7347 80.0353 52.4898 79.3006 49.7143 75.6067L29.6123 48.8924ZM40.0409 38.4434C42.8164 42.1169 42.0613 47.3618 38.3878 50.1373L50.9388 66.8312C54.6327 64.0557 59.8776 64.8108 62.6531 68.4842L99.3878 40.872C96.6123 37.1781 97.347 31.9332 101.041 29.1577L88.4694 12.4638C84.796 15.2393 79.5511 14.4842 76.7756 10.8108L40.0409 38.4434ZM58.0205 48.4434C55.6939 45.3414 54.6939 41.4434 55.2245 37.6067C55.7756 33.77 57.8164 30.3006 60.9184 27.974C64.0205 25.6271 67.9184 24.6271 71.7551 25.1781C75.5919 25.7291 79.0613 27.77 81.3878 30.872C83.7347 33.974 84.7347 37.872 84.1837 41.7087C83.6531 45.5455 81.5919 49.0149 78.4898 51.3414C75.4082 53.6679 71.5103 54.6883 67.6531 54.1373C63.8164 53.5863 60.347 51.5455 58.0205 48.4434ZM62.6123 37.1577C63.2858 38.0761 64.6123 38.2598 65.5307 37.5659L70.5511 44.2598L69.7143 44.872C68.796 45.5659 68.6123 46.8924 69.3062 47.8108C70 48.7291 71.3062 48.9128 72.2245 48.2189L77.2449 44.4434C78.1633 43.77 78.347 42.4434 77.6531 41.5251C76.9592 40.6067 75.6531 40.423 74.7347 41.1169L73.898 41.7495L67.6123 33.3822C66.9184 32.4638 65.6123 32.2802 64.6939 32.974L63.0205 34.2393C62.1021 34.9332 61.9184 36.2393 62.6123 37.1577Z"
      fill="#7D1641" />
  </g>
  <defs>
    <clipPath id="clip0_83_94">
      <rect width="112.041" height="110" fill="white" transform="translate(0 0.0556641)" />
    </clipPath>
  </defs>
</svg>