<svg xmlns="http://www.w3.org/2000/svg" width="487" viewBox="0 0 487 449" fill="none">
  <path fill="#EBEBEB" d="M443.4 424.1H485v-15.6h-41.6V424Z" />
  <path fill="#03318B" d="M356.1 409h130.6v-3.2H356.1v3.3ZM356.1 426.7h130v-3.2h-130v3.2Z" />
  <path fill="#03318B" d="m443.4 406-.2 19.5h-87V406h87.2Z" />
  <path fill="#263238"
    d="M422.3 416.3c0 2.7 2 4.9 4.6 4.9 2.6 0 4.7-2.2 4.7-4.9s-2-4.9-4.7-4.9a4.8 4.8 0 0 0-4.6 4.9Z" />
  <path fill="#E0E0E0" fill-rule="evenodd"
    d="M421.5 416.3c0-3 2.4-5.5 5.4-5.5 3 0 5.5 2.4 5.5 5.5 0 3-2.4 5.6-5.4 5.6-3 0-5.5-2.5-5.5-5.6Zm1.5 0c0 2.3 1.8 4.2 4 4.2 2.1 0 4-2 4-4.2a4 4 0 0 0-4-4.1 4 4 0 0 0-4 4.1Z"
    clip-rule="evenodd" />
  <path fill="#263238"
    d="M446.5 420.3c0 .2 8.6.4 19 .4 10.7 0 19.2-.2 19.2-.4s-8.5-.4-19.1-.4c-10.5 0-19 .2-19 .4ZM446.5 417.6c0 .2 8.6.3 19 .3 10.7 0 19.2-.1 19.2-.3 0-.2-8.5-.4-19.1-.4-10.5 0-19 .2-19 .4ZM446.5 414.8c0 .3 8.6.4 19 .4 10.7 0 19.2-.1 19.2-.4 0-.2-8.5-.3-19.1-.3-10.5 0-19 .1-19 .3ZM446.5 412.1c0 .2 8.6.4 19 .4 10.7 0 19.2-.2 19.2-.4s-8.5-.3-19.1-.3c-10.5 0-19 .1-19 .3Z" />
  <path fill="#fff" d="M365.8 421.2H405v-10.5h-39.2v10.5Z" />
  <path fill="#E0E0E0"
    d="M399 420.1c.1 0 .3-1.8.3-4.1s-.2-4.2-.4-4.2-.4 1.9-.4 4.2c0 2.3.2 4.1.4 4.1ZM393.7 420.1c.3 0 .4-1.8.4-4.1s-.1-4.2-.4-4.2c-.2 0-.4 1.9-.4 4.2 0 2.3.2 4.1.4 4.1ZM388.5 420.1c.3 0 .4-1.8.4-4.1s-.1-4.2-.4-4.2c-.2 0-.4 1.9-.4 4.2 0 2.3.2 4.1.4 4.1ZM383.3 420.1c.3 0 .4-1.8.4-4.1s-.1-4.2-.4-4.2c-.2 0-.4 1.9-.4 4.2 0 2.3.2 4.1.4 4.1ZM378.1 420.1c.3 0 .4-1.8.4-4.1s-.1-4.2-.4-4.2c-.1 0-.3 1.9-.3 4.2 0 2.3.2 4.1.3 4.1ZM373 420.1c.2 0 .3-1.8.3-4.1s-.1-4.2-.3-4.2c-.2 0-.4 1.9-.4 4.2 0 2.3.2 4.1.4 4.1Z" />
  <path fill="#263238"
    d="M442.8 426.7c.2 0 .4-4.6.4-10.4a84 84 0 0 0-.4-10.3c-.2 0-.4 4.6-.4 10.3 0 5.8.2 10.4.4 10.4Z" />
  <path fill="#EBEBEB" d="M437.9 444h41.6v-15.7h-41.6v15.6Z" />
  <path fill="#7D1641" d="M350.6 429.4h130.6v-3.3H350.6v3.3ZM350.6 447h130v-3.2h-130v3.3Z" />
  <path fill="#7D1641" d="m437.9 426.4-.2 19.5h-87v-19.5h87.2Z" />
  <path fill="#263238" d="M416.7 436.7c0 2.6 2.1 4.8 4.7 4.8s4.7-2.2 4.7-4.8c0-2.7-2-5-4.7-5a4.8 4.8 0 0 0-4.7 5Z" />
  <path fill="#E0E0E0" fill-rule="evenodd"
    d="M416 436.7c0-3.1 2.4-5.6 5.4-5.6 3 0 5.4 2.5 5.4 5.6 0 3-2.4 5.6-5.4 5.6-3 0-5.4-2.6-5.4-5.6Zm1.4 0c0 2.3 1.8 4.2 4 4.2s4-2 4-4.2a4 4 0 0 0-4-4.2 4 4 0 0 0-4 4.2Z"
    clip-rule="evenodd" />
  <path fill="#263238"
    d="M441 440.6c0 .3 8.5.4 19.1.4 10.5 0 19-.1 19-.4 0-.1-8.5-.3-19-.3a287 287 0 0 0-19.1.3ZM441 438c0 .1 8.5.3 19.1.3 10.5 0 19-.2 19-.4s-8.5-.3-19-.3c-10.6 0-19.1.1-19.1.3ZM441 435.2c0 .2 8.5.3 19.1.3 10.5 0 19 0 19-.3 0-.2-8.5-.4-19-.4-10.6 0-19.1.2-19.1.4ZM441 432.5c0 .2 8.5.4 19.1.4 10.5 0 19-.2 19-.4s-8.5-.4-19-.4c-10.6 0-19.1.2-19.1.4Z" />
  <path fill="#fff" d="M360.2 441.5h39.3v-10.4h-39.3v10.4Z" />
  <path fill="#E0E0E0"
    d="M393.4 440.5c.2 0 .4-1.9.4-4.2 0-2.3-.2-4.2-.4-4.2s-.4 2-.4 4.2c0 2.3.2 4.2.4 4.2ZM388.2 440.5c.2 0 .4-1.9.4-4.2 0-2.3-.2-4.2-.4-4.2s-.4 2-.4 4.2c0 2.3.2 4.2.4 4.2ZM383 440.5c.2 0 .4-1.9.4-4.2 0-2.3-.2-4.2-.4-4.2s-.4 2-.4 4.2c0 2.3.2 4.2.4 4.2ZM377.8 440.5c.2 0 .4-1.9.4-4.2 0-2.3-.2-4.2-.4-4.2s-.3 2-.3 4.2c0 2.3.1 4.2.3 4.2ZM372.7 440.5c.1 0 .3-1.9.3-4.2 0-2.3-.2-4.2-.3-4.2-.3 0-.4 2-.4 4.2 0 2.3.1 4.2.4 4.2ZM367.5 440.5c.2 0 .4-1.9.4-4.2 0-2.3-.2-4.2-.4-4.2-.3 0-.4 2-.4 4.2 0 2.3.1 4.2.4 4.2Z" />
  <path fill="#263238" d="M437.3 447c.2 0 .4-4.6.4-10.3 0-5.7-.2-10.4-.4-10.4s-.4 4.7-.4 10.4.2 10.4.4 10.4Z" />
  <path fill="#EBEBEB" d="M360.6 375.3v-5l111.6.1h6.4v5h-6.4V406H351.6v-30.7h9Z" />
  <path fill="#263238"
    d="M478.6 375.4c0 .2-26.4.2-59 .2-32.5 0-59-.2-59-.4 0-.1 26.5-.2 59-.2 32.6 0 59 .2 59 .4ZM472.2 382.2c0 .2-27 .3-60.3.3s-60.3-.2-60.3-.3c0-.2 27-.3 60.3-.3s60.3.2 60.3.3ZM472.2 389.2c0 .1-27 .3-60.3.3-33.3-.1-60.3-.2-60.3-.4s27-.3 60.3-.3 60.3.2 60.3.4ZM472.2 396.2c0 .1-27 .2-60.3.2s-60.3-.2-60.3-.3c0-.2 27-.3 60.3-.3s60.3.2 60.3.4ZM472.2 403.1c0 .2-27 .3-60.3.3s-60.3-.2-60.3-.4c0-.1 27-.2 60.3-.2s60.3.1 60.3.3Z" />
  <path fill="#000" d="M388 406v-35.8h-27.4v5.1h-9V406H388Z" opacity=".3" />
  <path fill="#fff"
    d="M470.6 242.2 394.8 230a7 7 0 0 0-8 5.8l-12.2 75.8a7 7 0 0 0 5.8 8l2.3.4 21 3.4 52.4 8.4a7 7 0 0 0 8-5.8l12.3-75.7a7 7 0 0 0-5.8-8.1Z" />
  <path fill="#7D1641"
    d="m383.3 257.2 89.6 14.4 3.5-21.8c.6-3.6-1.8-7-5.3-7.5l-77-12.4a6.3 6.3 0 0 0-7.2 5.2l-3.6 22Z" />
  <path fill="#263238"
    d="m420.4 275-5 30.4-7-1.1 4-24.8-6-1 .8-5.6 13.2 2ZM449.5 279.6l-.7 4.6-15.5 24-7.6-1.2 14.8-23-10-1.5-.9 4.9-6.2-1 1.7-10.7 24.4 4ZM417.6 250.1c0 .2 6.1 1.3 13.7 2.6 7.6 1.2 13.8 2 13.8 1.9 0-.2-6.1-1.3-13.7-2.6a179 179 0 0 0-13.8-1.9Z" />
  <path fill="#E0E0E0"
    d="M417.4 245.4h.3c1.5.3 3-.7 3.2-2.3l2.4-14.6c.2-1.6-.8-3-2.4-3.3h-.2c-1.5-.3-3 .8-3.3 2.3l-2.3 14.6a3 3 0 0 0 2.3 3.3ZM444.8 249.8h.2a3 3 0 0 0 3.3-2.3l2.3-14.6c.3-1.6-.8-3-2.3-3.3h-.2a3 3 0 0 0-3.3 2.3l-2.4 14.7c-.2 1.5.9 3 2.4 3.2Z" />
  <path fill="#fff"
    d="M474.5 190.2V87.4c0-3.4-2.8-6.3-6.2-6.3H309.6a6.3 6.3 0 0 0-6.3 6.3v102.8c0 3.5 2.9 6.3 6.3 6.3h158.7c3.4 0 6.2-2.8 6.2-6.3Z" />
  <path fill="#E0E0E0" d="M467.5 196.8h-158a6.4 6.4 0 0 1-6.5-6.4v-68.2h171.8v67.4c0 4-3.3 7.2-7.3 7.2Z" />
  <path fill="#7D1641" d="M468.8 196.8h-22.7v-47.4h28.4v41.7c0 3.2-2.5 5.7-5.7 5.7Z" />
  <path fill="#F5F5F5" d="M419.8 196.8h-85v-20.5h85v20.5Z" />
  <path fill="#263238" d="M382.4 159v.9l-3.8 8.4h-1.4l3.7-8.1h-4.2v1.6h-1.3V159h7Z" />
  <path fill="#263238" fill-rule="evenodd"
    d="M410.2 165.6c0 1.7-1.4 2.8-3.7 2.8-2.3 0-3.6-1-3.6-2.8 0-1 .6-1.8 1.6-2.2a2 2 0 0 1-1.3-2c0-1.6 1.3-2.5 3.3-2.5 2 0 3.4 1 3.4 2.5a2 2 0 0 1-1.3 2c1 .4 1.6 1.2 1.6 2.2Zm-1.3 0c0-1-.9-1.6-2.4-1.6-1.4 0-2.3.6-2.3 1.6s.9 1.7 2.3 1.7c1.5 0 2.4-.7 2.4-1.7Zm-4.4-4.2c0 1 .8 1.5 2 1.5 1.3 0 2.1-.5 2.1-1.5 0-.9-.8-1.5-2-1.5-1.3 0-2 .6-2 1.5ZM321.9 185c0 3.2-1.8 4.9-4.4 4.9-.9 0-1.7-.2-2.3-.6l.5-1c.5.3 1.1.4 1.8.4 1.9 0 3-1.1 3-3.5v-.3c-.5.8-1.5 1.2-2.6 1.2-1.9 0-3.2-1.1-3.2-2.8 0-1.8 1.4-3 3.3-3 2.5 0 3.9 1.7 3.9 4.7Zm-1.6-1.8c0-1-.8-1.8-2.3-1.8-1.2 0-2 .7-2 1.9 0 1 .8 1.7 2 1.7 1.4 0 2.3-.7 2.3-1.8Z"
    clip-rule="evenodd" />
  <path fill="#263238"
    d="M410.3 140.8h-1.7v2.3h-1.3v-2.3H402v-.9l4.8-6h1.4l-4.6 5.8h3.6v-2h1.3v2h1.7v1.1ZM321.8 163.7c0 1.6-1.2 2.9-3.5 2.9-1.4 0-2.7-.5-3.5-1.1l.6-1.1c.7.6 1.7 1 2.8 1 1.5 0 2.2-.7 2.2-1.7s-.6-1.7-2.8-1.7h-2l.4-4.9h5.2v1.2h-4.1l-.2 2.6h1c2.8 0 3.9 1.1 3.9 2.8Z" />
  <path fill="#263238" fill-rule="evenodd"
    d="M352.6 163.6c0 1.8-1.4 3-3.3 3-2.5 0-3.9-1.7-3.9-4.7 0-3.2 1.8-4.9 4.4-4.9.9 0 1.7.2 2.3.6l-.5 1a3 3 0 0 0-1.8-.5c-1.9 0-3 1.2-3 3.6v.3c.5-.8 1.5-1.2 2.7-1.2 1.8 0 3.1 1 3.1 2.8Zm-1.2 0c0-1-.9-1.8-2.2-1.8-1.3 0-2 .8-2 1.9 0 1 .6 1.8 2 1.8 1.3 0 2.2-.8 2.2-1.9Z"
    clip-rule="evenodd" />
  <path fill="#263238"
    d="M319.8 133.3v9.2h-1.3v-8h-2v-1.3h3.3ZM353.1 142v1.2h-6.7v-1l3.8-3.6c1-1 1.2-1.5 1.2-2.1 0-1-.7-1.6-2-1.6a3 3 0 0 0-2.3 1l-1-.7c.8-1 2-1.4 3.5-1.4 1.9 0 3.2 1 3.2 2.5 0 1-.3 1.8-1.6 3l-2.9 2.7h4.8ZM381.2 140.3c0 1.6-1.1 2.8-3.5 2.8-1.3 0-2.6-.3-3.4-1l.6-1.1a4 4 0 0 0 2.8 1c1.4 0 2.2-.6 2.2-1.6s-.7-1.7-2.3-1.7h-.7v-1l2.3-2.8h-4.5v-1.1h6.2v.8l-2.5 3c1.9.2 2.8 1.3 2.8 2.7Z" />
  <path fill="#263238" fill-rule="evenodd"
    d="M374.3 187.7c0-3 1.7-4.7 3.8-4.7 2.2 0 3.8 1.7 3.8 4.7s-1.6 4.8-3.8 4.8c-2.1 0-3.8-1.8-3.8-4.8Zm6.3 0c0-2.4-1-3.6-2.5-3.6-1.4 0-2.4 1.2-2.4 3.6 0 2.4 1 3.6 2.4 3.6 1.5 0 2.5-1.2 2.5-3.6Z"
    clip-rule="evenodd" />
  <path fill="#263238" d="m433.8 188 .2-1 .6-1.8h.8l-.5 2c.4 0 .6.4.6.8 0 .5-.4.9-.9.9s-.8-.4-.8-1Z" />
  <path fill="#fff" d="M464.8 169.3h-9v-1h9v1ZM464.8 172.7h-9v-1h9v1Z" />
  <path fill="#263238" d="M464.7 138.8H458v-.7h6.8v.7Z" />
  <path fill="#263238" fill-rule="evenodd" d="M465 139.2h-7.4v-1.5h7.5v1.5Z" clip-rule="evenodd" />
  <path fill="#263238" d="M461.7 135v6.9h-.7V135h.7Z" />
  <path fill="#263238" fill-rule="evenodd" d="M462 142.2h-1.3v-7.5h1.4v7.5Z" clip-rule="evenodd" />
  <path fill="#263238"
    d="m436.7 162-1-1-2.2 2.1-2-2.2-1 1 2 2.2-2 2.1 1 1 2-2 2.2 2 1-1-2.1-2 2-2.3ZM437.5 138.8h-6.9v-.7h6.9v.7Z" />
  <path fill="#263238" fill-rule="evenodd" d="M437.8 139.2h-7.5v-1.5h7.5v1.5Z" clip-rule="evenodd" />
  <path fill="#263238"
    d="M412.7 95.3v17.5h-1.2V96.5h-4.3v-1.2h5.5ZM429 95.3v1l-7.4 16.5h-1.4l7.4-16.3h-9.8v3.4h-1.2v-4.6h12.5ZM442.6 108c0 2.8-2.1 5-6.1 5-2.6 0-5-1-6.2-2.4l.7-1c1 1.2 3 2.2 5.5 2.2 3 0 4.8-1.5 4.8-3.9 0-2.3-1.6-3.9-5.1-3.9h-1v-.9l5-6.6H431v-1.2h10.9v1l-5.2 6.6c4 .1 5.9 2.2 5.9 5Z" />
  <path fill="#263238" fill-rule="evenodd"
    d="M458.4 108c0 3-2.5 5-6.7 5-4 0-6.5-2-6.5-5 0-2.2 1.3-3.7 3.7-4.3-2-.7-3.1-2-3.1-4 0-2.7 2.3-4.5 6-4.5 3.6 0 6 1.8 6 4.5 0 2-1.2 3.3-3.2 4 2.4.6 3.8 2.1 3.8 4.3Zm-1.3 0c0-2.3-2-3.8-5.4-3.8-3.3 0-5.3 1.5-5.3 3.8 0 2.4 2 3.8 5.3 3.8 3.4 0 5.4-1.4 5.4-3.8Zm-5.4-4.8c3 0 4.8-1.3 4.8-3.4 0-2.2-1.9-3.5-4.8-3.5-2.8 0-4.6 1.3-4.6 3.4 0 2.2 1.7 3.5 4.6 3.5Z"
    clip-rule="evenodd" />
  <path fill="#E0E0E0"
    d="M316 89.6c.6 2-1.2 3.9-3.3 3.4-1-.2-1.8-1-2-2-.5-2.1 1.3-3.9 3.4-3.4 1 .2 1.8 1 2 2ZM325.4 89.6c.5 2-1.3 3.9-3.3 3.4-1-.2-1.8-1-2-2-.6-2.1 1.3-3.9 3.3-3.4 1 .2 1.8 1 2 2ZM334 89.6c.5 2-1.3 3.9-3.4 3.4-1-.2-1.7-1-2-2a2.8 2.8 0 0 1 5.4-1.4Z" />
  <path fill="#263238"
    d="M334.9 197c-.2 0-.3-16.5-.3-37 0-20.4 0-37 .3-37 .1 0 .2 16.6.2 37 0 20.5 0 37-.2 37ZM363.8 176.3c-.1 0-.3-12-.3-26.7s.2-26.6.3-26.6c.1 0 .3 12 .3 26.6 0 14.7-.2 26.7-.3 26.7ZM392.6 176.3c-.2 0-.3-12-.3-26.7s.1-26.6.3-26.6c.1 0 .2 12 .2 26.6 0 14.7 0 26.7-.2 26.7ZM419.8 197c-.1 0-.2-16.6-.2-37 0-20.5 0-37 .2-37s.3 16.5.3 37c0 20.4 0 37-.3 37ZM446 197c-.1 0-.3-16.6-.3-37 0-20.5.2-37 .4-37 .1 0 .3 16.5.3 37 0 20.4-.2 37-.3 37Z" />
  <path fill="#263238"
    d="M303.7 149.9c0-.2 38.2-.3 85.2-.3 47.1 0 85.2 0 85.2.3 0 .1-38 .2-85.2.2-47 0-85.2 0-85.2-.2ZM303.7 176.5c0-.1 31.9-.3 71.2-.3 39.3 0 71.2.2 71.2.3 0 .2-31.9.3-71.2.3-39.3 0-71.2-.1-71.2-.3Z" />
  <path fill="#fff" d="M234.9 127.4H46.3a6 6 0 0 1-6-5.9V7a6 6 0 0 1 6-6h188.6a6 6 0 0 1 6 6v114.6a6 6 0 0 1-6 6Z" />
  <path fill="#EBEBEB" fill-rule="evenodd" d="M230.5 105.8H51.6V29.2h179v76.6Zm-178.4-.3h178v-76h-178v76Z"
    clip-rule="evenodd" />
  <path fill="#EBEBEB"
    d="M230.3 93H51.8v-.3h178.5v.4ZM230.3 80.4H51.8V80h178.5v.4ZM230.3 67.6H51.8v-.3h178.5v.3ZM230.3 55H51.8v-.4h178.5v.3ZM230.3 42.3H51.8v-.4h178.5v.4Z" />
  <path fill="#7D1641" d="M74.6 105.3h-5.8V53.8h5.8v51.5Z" />
  <path fill="#03318B" d="M85.3 105.3h-7.2v-64h7.2v64Z" />
  <path fill="#7D1641" d="M115.8 105.3h-5.9V90.7h5.9v14.6Z" />
  <path fill="#03318B" d="M125 105.3h-5.8V60.6h5.9v44.7Z" />
  <path fill="#7D1641" d="M154.2 105.3h-6V31.8h6v73.5Z" />
  <path fill="#03318B" d="M164.9 105.3h-6V87.8h6v17.5Z" />
  <path fill="#7D1641" d="M192.6 105.3h-6v-66h6v66Z" />
  <path fill="#03318B" d="M201.8 105.3H196v-38h5.8v38Z" />
  <path fill="#FF725E" d="M221.4 105.3h-6v-5.1h6v5.1Z" />
  <path fill="#E0E0E0"
    d="M81.8 114.1h-12a1 1 0 0 1-1-1v-.5c0-.5.5-1 1-1h12c.5 0 1 .5 1 1v.6c0 .5-.5 1-1 1ZM121.8 114.1h-12c-.4 0-.8-.4-.8-1v-.5c0-.5.4-1 .9-1h12c.5 0 .9.5.9 1v.6c0 .5-.4 1-1 1ZM157.2 114.1h-12a1 1 0 0 1-.9-1v-.5c0-.5.5-1 1-1h12c.4 0 .8.5.8 1v.6c0 .5-.4 1-.9 1ZM193.6 114.1h-12a1 1 0 0 1-.9-1v-.5c0-.5.5-1 1-1h12c.4 0 .9.5.9 1v.6c0 .5-.5 1-1 1ZM224.5 114.1h-12a1 1 0 0 1-1-1v-.5c0-.5.5-1 1-1h12c.5 0 1 .5 1 1v.6c0 .5-.5 1-1 1ZM57 15c0 1.5-1.1 2.7-2.7 2.7A2.7 2.7 0 1 1 57 15ZM64.7 15c0 1.5-1.2 2.7-2.7 2.7a2.7 2.7 0 1 1 2.7-2.7ZM72.4 15c0 1.5-1.3 2.7-2.8 2.7a2.7 2.7 0 1 1 2.7-2.7Z" />
  <path fill="#FFB17C"
    d="M109.4 276c-1 1 7.1 14 10.4 22.2 3.2 8.3 19.3 46.5 33 46.8 13.7.2 24.2-6 33.2-18.7 9-12.7 23.9-80 23.9-80l-24.4-24.5-28.2 79.5S134.5 273.1 130 270c-4.6-3-20.6 6-20.6 6Z" />
  <path fill="#263238" d="m337.4 395-6.2-46-128.3 3.6s-11.2 66.8-10.6 94.5h74.2l.6-9.3 4 .9 2 8.4 71.9.1-7.6-52.2Z" />
  <path fill="#7D1641" d="m204.8 275.4-37.4-12.7s20.5-81.1 49.2-81.1l-11.8 93.8Z" />
  <path fill="#7D1641"
    d="M325.5 299.8 321 178.4c-7-3.3-37-7-37-7l-39 5.4-32.5 5.5-8.7 83-3.7 114.8c41.7 15.4 92.7 10.2 137.5-1.2l-12.2-79.1Z" />
  <path fill="#000" d="M251.4 230.3s21.8 46.3 41 63.6a90.8 90.8 0 0 0 35.4 21l-2.3-15.1-74.1-69.5Z" opacity=".3" />
  <path fill="#263238"
    d="M205 213.7s-.3 12.7-1 28.4c-.6 15.6-1.2 28.3-1.4 28.2-.1 0 .3-12.6.9-28.3.6-15.6 1.3-28.3 1.4-28.3Z" />
  <path fill="#7D1641"
    d="M313.4 176.2s34.5 3.1 39.2 39.1c2.1 16.7 6 43 6 43l-34 3-4.6-3.5c-2.6-7.7-7.1-23.8-6.5-24.4.9-.7-.1-57.2-.1-57.2Z" />
  <path fill="#263238"
    d="m239 334.1 1.5-1.1a232.7 232.7 0 0 1 34.2-20.1c2-1 3.6-1.8 4.8-2.2l1.7-.7-1.6 1-4.7 2.2a267.7 267.7 0 0 0-34.3 20l-1.6 1ZM258.4 327.6l2.6-1.7a53.8 53.8 0 0 1 17-5.8 89.7 89.7 0 0 0-16.9 6.2l-2.7 1.3ZM318.1 256.6c-.1 0 .3-11 1-24.4a453 453 0 0 1 1.6-24.3c.2 0-.3 11-1 24.3a539 539 0 0 1-1.6 24.4ZM209 105.1c-4.2 1.7-9.4.1-12-3.6a6.2 6.2 0 0 1-1-3.8c0-1.3.9-2.7 2.2-3a8 8 0 0 1-4.7-4.4c-.9-2-.7-4.4.6-6.2a5.3 5.3 0 0 1 5.8-1.8c-.6-2.3.2-4.9 2-6.3l9.9-.3-2.9 29.4Z" />
  <path fill="#FFB17C"
    d="m242.3 178-1.7-6.6s-20.2 1.8-25.3-17.7c-2.4-9.4-5.8-29.1-8.6-47a37.4 37.4 0 0 1 28-42.3l2-.4c20.5-3.8 35.2 11.6 38.4 32.3l10.5 75.8-31 23.3-12.3-17.3Z" />
  <path fill="#E89E6C" d="M240.6 171.4s12.5-2 24-11.5c0 0-2.9 13.5-22.8 16.5l-1.2-5Z" />
  <path fill="#263238"
    d="M216.8 125.7a3 3 0 0 0 3.4 2.2c1.5-.3 2.6-1.8 2.2-3.2-.3-1.5-1.8-2.5-3.3-2.2a2.8 2.8 0 0 0-2.3 3.2ZM213.2 115.2c.4.3 2.1-1.8 5.1-2.5 3-.8 5.6.2 5.9-.2 0-.2-.4-.8-1.6-1.2-1-.5-2.9-.8-4.7-.3a7.2 7.2 0 0 0-4 2.4c-.8 1-1 1.7-.7 1.8ZM242.3 120c.3 1.5 1.8 2.4 3.4 2.2a2.8 2.8 0 0 0 2.3-3.3 3 3 0 0 0-3.4-2.1c-1.5.3-2.6 1.7-2.3 3.2ZM242.8 108.6c.4.3 2.2-1.8 5.1-2.5 3-.8 5.6.2 5.8-.3.1-.1-.4-.7-1.5-1.2-1.1-.4-2.9-.7-4.7-.3a7.9 7.9 0 0 0-4 2.5c-.8 1-1 1.7-.7 1.8ZM237.3 133.5c0-.2-2 0-5 .3-.9 0-1.6.1-1.9-.4-.3-.5-.2-1.4 0-2.4l.9-6.4c1-9 1.6-16.4 1.3-16.4-.4 0-1.6 7.3-2.7 16.3l-.7 6.4c-.1 1-.3 2 .3 3 .4.6 1 .9 1.5.9s1 0 1.4-.2c3-.5 5-1 4.9-1.1ZM240 104c.8.7 3.3-1 6.8-2.3 3.4-1.2 6.5-1.6 6.6-2.5 0-.4-.8-.9-2.2-1a12.1 12.1 0 0 0-10.1 3.6c-1 1-1.3 2-1 2.2ZM212.2 106.3c.7.5 2.6-.7 5-1.3 2.5-.7 4.7-.7 5-1.5.2-.4-.3-1-1.4-1.5-1-.4-2.7-.5-4.4 0-1.7.4-3 1.4-3.7 2.3-.7 1-.8 1.7-.5 2Z" />
  <path fill="#263238"
    d="M206.4 97.3s2.1-13.5 7.3-17.8c6.3-5.2 11.3 1.9 17.6-1.6 6.3-3.6 12.3-8.6 20.6-5 9 3.9 6.4 8.8 9 17.3 10.4 34.6 19.2 43 17 26-.2-1.8 4.5-4.5 3.3-12.3a89.7 89.7 0 0 0-7.9-28.8 28.2 28.2 0 0 0-14.9-11.8c-11.3-4.8-24.5-1.8-33.2 1.3-8.6 3-23.4 17.6-18.8 32.7Z" />
  <path fill="#FFB17C" d="M276.5 116c-.6-3 1.4-6 4.5-6.5 3.8-.5 8.3.6 10 8.1 2.7 13.5-11.3 13.5-11.4 13.2l-3-14.8Z" />
  <path fill="#6F4439"
    d="m281.4 125 .7.3c.4.1 1.1 0 1.8-.3 1.3-.9 2-3.3 1.5-5.8a7.9 7.9 0 0 0-1.3-3.2c-.6-.9-1.4-1.4-2.1-1.4-.8 0-1.2.5-1.3 1v.6s-.4-.2-.4-.7c0-.3.1-.7.4-1 .3-.3.7-.6 1.2-.6 1-.2 2.2.6 3 1.6a8 8 0 0 1 1.5 3.5c.5 2.8-.3 5.6-2.2 6.6-.9.4-1.7.3-2.2 0-.5-.2-.6-.5-.6-.5Z" />
  <path fill="#FF725E" d="m224 90.4-.3.1.3-.1Z" />
  <path fill="#263238"
    d="M194 73c.3-3.6 3-6.8 6.2-8.5 3.3-1.7 7-2.2 10.8-2-1.4-4.9 3-9.7 8-10.6 5-1 9.9 1 14.5 2.8 5.1-5 14.6-4.1 18.8 1.6 3.2-2.7 7.8-3.6 11.7-2.3a12 12 0 0 1 7.7 9 9.4 9.4 0 0 1 8.2 4.6c1.6 3 1.5 6.7-.3 9.5 2.5 1 4.3 3.6 4.2 6.4a6.6 6.6 0 0 1-4.8 5.9l-11.5-6.6a10.2 10.2 0 0 1-13.2-6.4c-3.7 2.4-8.9 2.3-12.6-.2a8.3 8.3 0 0 1-12.3 6 10 10 0 0 1-4.6 9.5 9.9 9.9 0 0 1-10.5-.2 9.3 9.3 0 0 1-12.1 2c-3.7-2.7-5-8.1-2.7-12-3.6-.8-6-4.8-5.5-8.4Z" />
  <path fill="#455A64"
    d="M255.5 78.4s0 .5.5 1c.4.7 1.2 1.6 2.4 2.2 1.2.7 3 1.1 4.9.6a7.2 7.2 0 0 0 4.7-3.8l-.7.1c.9.9 2 1.5 3.1 2 2.6.8 5.4.4 7.4-.9 2-1.2 3-3.2 3.5-4.9.4-1.6.3-3.1.1-4-.3-1-.5-1.4-.6-1.3-.2 0 .8 2-.2 5.2a8 8 0 0 1-3.3 4.2 8 8 0 0 1-9.4-1l-.4-.4-.3.6a6.4 6.4 0 0 1-8.5 3c-2.3-1-3-2.7-3.2-2.6Z" />
  <path fill="#263238"
    d="M248 139.1c0 .2-1.6.2-3.3 1.2-1.6 1.1-2.3 2.6-2.4 2.6 0-.1 0-.5.3-1.1.3-.6 1-1.3 1.8-2a5 5 0 0 1 2.5-.8l1.1.1Z" />
  <path fill="#455A64" d="m236.5 222.1-2.6 3.4c-1.9 1-3.4.2-4.3-2l-21-39.2 6.2-3.2 23.7 37.8s.2 1.9-2 3.2Z" />
  <path fill="#263238" fill-rule="evenodd"
    d="M183.4 181.4c-4.5-3-8.2-7.6-10.1-13a26.5 26.5 0 0 1 1-20.8c3-6.6 8.4-11.6 15.2-14a27.2 27.2 0 1 1-6.1 47.8Zm29.7-43.2a25.2 25.2 0 0 0-37.3 10.1 25.3 25.3 0 0 0 31.6 34.6 25.3 25.3 0 0 0 5.7-44.7Z"
    clip-rule="evenodd" />
  <path fill="#455A64" fill-rule="evenodd"
    d="M184.7 180.4a27.2 27.2 0 0 1 6-47.9 27.2 27.2 0 1 1-6 48Zm29.7-43.2a25.3 25.3 0 0 0-38.2 29.5 25.4 25.4 0 1 0 38.1-29.5Z"
    clip-rule="evenodd" />
  <path fill="#fff"
    d="M192.3 180c.1-.1 1.3.4 3.3 1l.8.1 1 .1 1.9.2c1.4 0 3 0 4.5-.3 1.6-.3 3-.8 4.4-1.3l1.8-.8.7-.5.7-.4c1.8-1.1 2.7-2 2.7-2l-.6.7-.8.6-1.2.9-.7.5-.7.4-1.8.9a24 24 0 0 1-4.4 1.3 22 22 0 0 1-6.6 0h-.9l-.8-.3-1.4-.4c-.4 0-.8-.2-1-.4l-.9-.4Z" />
  <path fill="#FFB17C"
    d="M274.8 225c-6.5-6.2-37.2-37-38-37.5-.9-.5-15.5-7.2-18.5-5.7-3 1.4-11.6 10.5-11.6 10.5s.2 6 7.3 2.3l6.4-3.3 7 2.3s-9 3-11 4.7c-2 1.7-5.7 8.8-4 10.7 1.7 1.9 3.8 2.1 3.8 2.1s-4 4.9 2 8.5c0 0 .6 4.4 3.6 6.4s9 1.9 9 1.9 2.9-1.4 1-4.2c-1.7-2.9-5.5-3.6-5.5-3.6l4.9-2.3s2.3 1 5.7 4c0 0 9.7 10.5 14.3 7.9l6.3 7.5c4.8-3 17.3-12.2 17.3-12.2Z" />
  <path fill="#6F4439"
    d="M230.1 209h-.6l-2 .3a12.6 12.6 0 0 0-9.3 10v.6c.1 0 .2-1 .8-2.4.5-1.5 1.6-3.4 3.3-5 1.8-1.6 3.8-2.5 5.3-3 1.5-.4 2.5-.4 2.5-.4ZM231.1 201.3h-1.6l-1.1.2-2.9.8a20.5 20.5 0 0 0-6.2 4l-2 2.3-.5 1a46.4 46.4 0 0 0-.8 1.4l1.6-2.3a21.3 21.3 0 0 1 4.8-4.4c1-.7 2.3-1.5 3.4-1.9 1-.4 1.8-.5 2.6-.6l2.7-.5ZM233.2 192.5s-.3-.3-1-.4c-.6 0-1.4 0-2.3.3-1.3.4-1.8.8-2.1 1.2-.5.4-.7.8-.6.8 0 0 1-1.2 2.8-1.7 1.7-.6 3.2-.1 3.2-.2Z" />
  <path fill="#000"
    d="M218.8 147.6c-.5-1-1.2-2.2-2.4-2.4-1.2-.2-2.5.6-3.1 1.7-.7 1-.8 2.3-1 3.6-.3 3.2-.7 6.4-1.8 9.4-1.2 3-3.3 5.7-6.2 7-2.3 1-5 1.1-7.6 1.2a14.7 14.7 0 0 0-7.5 1.8c-3.1 2-2.7 6.6.7 8.1a23 23 0 0 0 23.8-3.3 22.8 22.8 0 0 0 5.1-27Z"
    opacity=".1" />
  <path fill="#FFB17C"
    d="m356.3 257.8-31.7 2.7c-7.4-4.8-58.5-44.4-60-45.4l-13.2 15.2c27.8 33.8 47.4 58.5 70.8 75.8 11.7 8.6 30.5 4 35.4-11.7 2.4-7.6-1.3-36.6-1.3-36.6Z" />
  <path fill="#000" d="M195.8 447.7s11.4 1.5 12.3 1.8h31l-1-14.1-34.8.8-7.5 11.5Z" opacity=".3" />
  <path fill="#000" d="M196.6 434.5s11.6 2.4 12.2 1.9c.7-.6 29.4-1 29.4-1l-.8-11.4-35-1.2-5.8 11.7Z" opacity=".3" />
  <path fill="#000" d="M196.6 422a77 77 0 0 0 11.3 1c.7-.6 29.5 1 29.5 1l-1.6-25.3-33.6 9-5.6 14.4Z" opacity=".3" />
  <path fill="#E0E0E0"
    d="M88.3 221.8s76.7 118.9 71.3 199.8l45.8 28H239c-1.8-21-1.6-55.4-11.8-103.6C200.8 221.9 154 221.6 154 221.6l-65.7.2Z" />
  <path fill="#E0E0E0"
    d="M235.8 410.9 159 424c.6 2.4-.6 5.5-2.3 7.2-1.6 1.7-4 2.5-6.3 3.1a64.3 64.3 0 0 1-13.8 2c-2.5.1-5 0-7.4.7-2.4.7-4.7 2.1-5.6 4.4-1 2.2-.1 8.1 5.7 8.1h77.9c-5.9 0-6.7-5.9-5.7-8 1-2.4 3.2-3.8 5.6-4.5 2.4-.6 4.8-.6 7.3-.7 4.7-.1 9.3-.8 13.8-2 2.3-.6 4.7-1.4 6.4-3.1 1.7-1.7 1.5-17.5 1-20.3Z" />
  <path fill="#E0E0E0"
    d="m235.7 399.5-75.3 11.2c.6 2.5-.7 5.5-2.3 7.2-1.7 1.7-4.1 2.5-6.4 3.1a61 61 0 0 1-13.8 2c-2.5.2-5 .1-7.3.8-2.4.6-4.7 2-5.7 4.4-1 2.2-.2 8 5.7 8h77.8c-5.8 0-6.6-5.8-5.7-8 1-2.3 3.3-3.8 5.7-4.4 2.4-.7 4.9-.6 7.3-.7a61 61 0 0 0 13.9-2.1c2.3-.6 4.6-1.4 6.4-3 1.6-1.8 0-15.6-.3-18.5Z" />
  <path fill="#E0E0E0"
    d="m235.4 396.8-76.3 2.5c.6 2.3-.6 5.2-2.3 6.8-1.6 1.6-4 2.3-6.3 3a67.9 67.9 0 0 1-13.8 1.8c-2.5.1-5 0-7.4.7-2.4.6-4.7 2-5.6 4.1-1 2.2-.1 7.6 5.7 7.6l77.6-.8c-5.8 0-6.4-4.6-5.4-6.8 1-2 3.2-3.5 5.6-4.1 2.4-.6 4.8-.6 7.3-.7 4.7-.1 9.3-.8 13.8-1.9 2.3-.6 4.7-1.3 6.4-2.9 1.7-1.6 1-6.6.7-9.3Z" />
  <path fill="#FFB17C"
    d="M116.5 280s-9-19.5-10.7-24.8c-1.7-5.4 2.8-8.4 7-11.7 4.2-3.2 19.7-4.4 20.4-1.7.8 2.7.5 6.7-1.7 7-2.2.2-10.7-.2-15.7 6.4 0 0 20.7-4.7 25.7 0 5 4.6-4.3 6.3-4.3 6.3s2.8 4.5.3 5.7c-2.5 1.3-16.2 4-16.2 4l-.2 2s6.7-.5 11.1.8c4.6 1.2 6.5 6 6.5 6-1 3.7-2.7 3.7-5.2 2-2.5-1.8-4.2-2-4.2-2s-4 5-6.8 5.2c-2.7.3-6-5.3-6-5.3Z" />
  <path fill="#000" d="M150.2 221.6S134.4 239 137 266.3c2.8 27.3 2.7 57.5 2.7 57.5l-9.2-22.2-6.4-64 13-14.3 13-1.8Z"
    opacity=".3" />
  <path fill="#fff"
    d="M150.2 221.6H84.9s-27 .5-27 53.7c0 68.9 15.8 92.4-26.1 131.7l67.7 8.6s32-3.2 32-60.5c0-26.2-1.2-72.7-2.6-95-1-16.4 11-37.4 21.3-38.6Z" />
  <path fill="#000" d="M80.2 400.8h11s.6 14.5 12.3 13.5c0 0-2.5 1.7-5.8 1.3-3.4-.5-13.8 2.1-17.5-14.9Z" opacity=".3" />
  <path fill="#E0E0E0" d="M.3 393.4s-1.7 20.9 24.3 22.1c26 1.3 73.1 0 73.1 0s-16.3-3-16.3-20.7l-81-1.4Z" />
  <path fill="#263238"
    d="M115.5 314.8c0 .3-6 .5-13.2.5a86 86 0 0 1-13.1-.5c0-.4 5.9-.6 13.1-.6 7.3 0 13.2.3 13.2.6ZM70 314.8c0-.2 1.6-.5 3.6-.5s3.7.3 3.7.5c0 .4-1.7.6-3.7.6s-3.6-.2-3.6-.6ZM117 305.2c0 .2-5.8.5-13 .5-7.3 0-13.2-.3-13.2-.5 0-.3 5.9-.6 13.1-.6 7.3 0 13.2.3 13.2.6ZM70 305.7c0-.3 1.6-.5 3.6-.5s3.7.2 3.7.5-1.7.6-3.7.6-3.6-.3-3.6-.6ZM116.8 297c0 .3-5.9.6-13.1.6-7.3 0-13.2-.3-13.2-.5 0-.4 5.9-.6 13.2-.6 7.2 0 13.1.2 13.1.6ZM70 297.1c0-.3 1.6-.5 3.6-.5s3.7.2 3.7.5-1.7.6-3.7.6-3.6-.3-3.6-.6ZM115.8 287.5c0 .3-6 .6-13.2.6-7.3 0-13.1-.3-13.1-.6s5.8-.6 13.1-.6 13.2.3 13.2.6ZM68.7 288c0-.3 1.6-.5 3.6-.5s3.7.2 3.7.6c0 .2-1.6.5-3.7.5-2 0-3.6-.3-3.6-.5ZM115.5 279.4c0 .3-6 .5-13.2.5-7.2 0-13.1-.2-13.1-.5 0-.4 5.9-.6 13.1-.6 7.3 0 13.2.2 13.2.6ZM68.7 279.4c0-.2 1.6-.5 3.6-.5s3.7.3 3.7.5c0 .3-1.6.6-3.7.6-2 0-3.6-.3-3.6-.6ZM114.6 269.8c0 .3-6 .6-13.2.6-7.3 0-13.2-.3-13.2-.6s5.9-.5 13.2-.5c7.2 0 13.2.2 13.2.5ZM67.4 270.4c0-.4 1.7-.6 3.7-.6s3.7.2 3.7.6c0 .3-1.7.5-3.7.5s-3.7-.2-3.7-.5ZM114.2 261.7c0 .3-5.8.5-13.1.5S88 262 88 261.7s5.8-.6 13-.6c7.4 0 13.2.3 13.2.6ZM115.9 253.4c0 .3-6 .5-13.2.5a86 86 0 0 1-13.1-.5c0-.4 5.8-.6 13.1-.6s13.2.2 13.2.6ZM67.4 261.8c0-.3 1.7-.6 3.7-.6s3.7.3 3.7.6c0 .2-1.7.5-3.7.5s-3.7-.3-3.7-.5ZM68.7 252.8c0-.3 1.6-.5 3.6-.5s3.7.2 3.7.5-1.6.6-3.7.6c-2 0-3.6-.3-3.6-.6ZM117.6 245.2c0 .3-6 .6-13.2.6-7.3 0-13.2-.3-13.2-.6s6-.6 13.2-.6c7.3 0 13.2.3 13.2.6ZM70.3 244.6c0-.2 1.7-.5 3.7-.5s3.7.3 3.7.5c0 .4-1.7.6-3.7.6s-3.7-.2-3.7-.6ZM119.3 237c0 .4-6 .6-13.2.6-7.2 0-13.2-.2-13.2-.6 0-.2 6-.5 13.2-.5 7.3 0 13.2.3 13.2.5ZM72 236.5c0-.3 1.7-.5 3.7-.5s3.7.2 3.7.5-1.7.6-3.7.6-3.6-.3-3.6-.6ZM125.4 229.7c0 .4-5.9.6-13.1.6-7.3 0-13.2-.2-13.2-.6 0-.3 5.9-.5 13.2-.5 7.2 0 13.1.2 13.1.5ZM78.2 229.2c0-.3 1.6-.5 3.7-.5 2 0 3.6.2 3.6.5s-1.6.5-3.6.5-3.7-.2-3.7-.5ZM115.5 325.2c0 .4-6 .6-13.2.6-7.2 0-13.1-.2-13.1-.6 0-.2 5.9-.5 13.1-.5 7.3 0 13.2.3 13.2.5ZM70 325.4c0-.4 1.6-.6 3.6-.6s3.7.2 3.7.6c0 .2-1.7.5-3.7.5s-3.6-.3-3.6-.5ZM116.8 335.5c0 .4-5.9.6-13.1.6-7.3 0-13.2-.2-13.2-.6 0-.2 5.9-.5 13.2-.5 7.2 0 13.1.3 13.1.5ZM71.3 335.6c0-.3 1.7-.5 3.7-.5s3.7.2 3.7.5-1.7.6-3.7.6-3.7-.3-3.7-.6ZM117.2 344.4c0 .3-5.9.6-13.1.6-7.3 0-13.2-.3-13.2-.6s5.9-.5 13.2-.5c7.2 0 13 .2 13 .5ZM71.7 344.5c0-.3 1.7-.5 3.7-.5s3.7.2 3.7.5-1.7.5-3.7.5-3.7-.2-3.7-.5ZM117.6 353.3c0 .3-5.8.6-13.1.6s-13.2-.3-13.2-.6 6-.5 13.2-.5c7.3 0 13.1.2 13.1.5ZM72.1 353.4c0-.3 1.7-.5 3.7-.5s3.7.2 3.7.5-1.7.5-3.7.5-3.7-.2-3.7-.5ZM118 362.2c0 .3-5.8.5-13.1.5a86 86 0 0 1-13.1-.5c0-.3 5.8-.5 13-.5 7.4 0 13.2.2 13.2.5ZM72.6 362.3c0-.3 1.6-.6 3.6-.6s3.7.3 3.7.6-1.6.5-3.7.5c-2 0-3.6-.2-3.6-.5ZM118.2 370.8c0 .4-5.9.6-13.1.6-7.3 0-13.2-.2-13.2-.6 0-.3 5.9-.5 13.2-.5 7.2 0 13.1.2 13.1.5ZM72.7 371c0-.4 1.7-.6 3.7-.6s3.7.2 3.7.5-1.7.5-3.7.5-3.7-.2-3.7-.5ZM116.8 379.4c0 .3-5.9.6-13.1.6-7.3 0-13.2-.3-13.2-.6s5.9-.5 13.2-.5c7.2 0 13.1.2 13.1.5ZM71.3 379.5c0-.3 1.7-.5 3.7-.5s3.7.2 3.7.5-1.7.6-3.7.6-3.7-.3-3.7-.6ZM113.4 388.6c0 .2-5.9.5-13.1.5-7.3 0-13.2-.3-13.2-.5 0-.3 5.9-.6 13.2-.6 7.2 0 13.1.3 13.1.6ZM68 388.7c0-.4 1.6-.6 3.6-.6s3.7.2 3.7.6c0 .2-1.7.5-3.7.5s-3.7-.3-3.7-.5ZM110.9 396.9c0 .3-5.9.5-13.2.5-7.2 0-13.1-.2-13.1-.5s5.9-.6 13.1-.6c7.3 0 13.2.3 13.2.6ZM237.4 424h-1.1l-3-.2-11.4-.5c-9.5-.3-22.7-.6-37.3-.5-14.6 0-27.8.3-37.4.4l-11.3.1h-4.2 1.1l3-.2 11.4-.3c9.6-.2 22.8-.5 37.4-.6a763.6 763.6 0 0 1 52.8 1.8ZM234 436c0 .1-21.5.3-48 .4-26.6 0-48.1 0-48.1-.2s21.5-.3 48-.4l48.2.1ZM224.9 400.8l.8.2a38.6 38.6 0 0 1 3.9 1.1c.6.3 1.4.4 1.8 1.2.2.4 0 1-.3 1.2-.3.3-.7.4-1.1.6a109.8 109.8 0 0 1-15.4 2.5c-5 .4-10.3.6-16 .8l-28.8.3-8.8.1h-3.2l.8-.2h2.4l8.8-.2 28.9-.6c5.5-.1 11-.3 15.8-.7a125.2 125.2 0 0 0 15.4-2.4c.3 0 .7-.3 1-.5.2-.2.4-.5.2-.8-.3-.6-1-.7-1.6-1l-1.6-.5a100.6 100.6 0 0 0-3-1.1Z" />
</svg>