<svg xmlns="http://www.w3.org/2000/svg" width="124" height="111" viewBox="0 0 124 111" fill="none">
  <g clip-path="url(#clip0_82_91)">
    <path fill-rule="evenodd" clip-rule="evenodd"
      d="M85.9375 27.9853V28.1357C84.7988 28.0498 83.6602 27.9853 82.5 27.9853H55C51.4551 27.9853 48.0176 28.4365 44.7305 29.2744C44.709 28.8447 44.6875 28.415 44.6875 27.9853C44.6875 16.5986 53.9258 7.36035 65.3125 7.36035C76.6992 7.36035 85.9375 16.5986 85.9375 27.9853Z"
      fill="#7D1641" />
    <path fill-rule="evenodd" clip-rule="evenodd"
      d="M82.5 27.5557C83.252 27.5557 84.0039 27.5771 84.7344 27.6201C85.6367 27.6846 86.5391 27.7705 87.4414 27.8994C91.2227 23.4951 96.8516 20.6807 103.125 20.6807H105.596C107.83 20.6807 109.463 22.7861 108.926 24.9561L105.961 36.8154C109.355 39.9951 112.127 43.8623 114.018 48.1807H116.875C120.678 48.1807 123.75 51.2529 123.75 55.0557V75.6807C123.75 79.4834 120.678 82.5557 116.875 82.5557H110C108.045 85.1553 105.725 87.4756 103.125 89.4307V103.181C103.125 106.983 100.053 110.056 96.25 110.056H89.375C85.5723 110.056 82.5 106.983 82.5 103.181V96.3057H55V103.181C55 106.983 51.9277 110.056 48.125 110.056H41.25C37.4473 110.056 34.375 106.983 34.375 103.181V89.4307C26.877 83.8018 21.7637 75.1865 20.7969 65.3682H14.6094C6.53125 65.3682 0 58.8369 0 50.7588C0 42.6807 6.53125 36.1494 14.6094 36.1494H15.4688C18.3262 36.1494 20.625 38.4482 20.625 41.3057C20.625 44.1631 18.3262 46.4619 15.4688 46.4619H14.6094C12.2461 46.4619 10.3125 48.3955 10.3125 50.7588C10.3125 53.1221 12.2461 55.0557 14.6094 55.0557H21.3125C23.9121 42.208 33.709 31.96 46.2988 28.6729C49.0703 27.9424 51.9922 27.5557 55 27.5557H82.5ZM96.25 56.7744C96.25 55.3994 95.7129 54.0889 94.7461 53.1221C93.7793 52.1553 92.4688 51.6182 91.0938 51.6182C89.7188 51.6182 88.4082 52.1553 87.4414 53.1221C86.4746 54.0889 85.9375 55.3994 85.9375 56.7744C85.9375 58.1494 86.4746 59.46 87.4414 60.4268C88.4082 61.3936 89.7188 61.9307 91.0938 61.9307C92.4688 61.9307 93.7793 61.3936 94.7461 60.4268C95.7129 59.46 96.25 58.1494 96.25 56.7744Z"
      fill="#03318B" />
  </g>
  <defs>
    <clipPath id="clip0_82_91">
      <rect width="123.75" height="110" fill="white" transform="translate(0 0.0556641)" />
    </clipPath>
  </defs>
</svg>