<svg xmlns="http://www.w3.org/2000/svg" width="739" height="416" viewBox="0 1 739 412" fill="none">
  <path d="M761.547 415L30.0631 414.78C30.0631 414.78 -33.602 299.199 24.3635 210.429C82.3491 121.668 171.432 167.228 178.492 103.098C178.742 100.918 178.562 98.7679 178.562 96.6879C178.562 96.1879 178.562 95.6879 178.592 95.1879C180.752 58.3777 207.9 34.5775 243.707 20.8774L247.187 19.5674C304.302 -0.932711 361.318 -10.0828 418.493 16.0174C477.959 43.1776 431.892 79.2178 551.923 66.6577C617.348 59.8077 622.688 112.038 624.628 146.018C629.467 230.709 824.342 156.518 761.547 415Z" fill="#E7E2F5"/>
  <path d="M500.25 272.46C500.241 287.407 497.008 302.177 490.77 315.76C472.51 355.71 429.77 383.93 380.27 383.93H345.97C302.19 383.93 263.69 361.85 242.72 329.05C231.836 312.176 226.032 292.529 226 272.45C226 257.13 229.38 242.5 235.47 229.16C253.74 189.17 296.48 160.96 345.97 160.96H380.27C425.27 160.96 464.69 184.31 485.22 218.61C495.032 234.86 500.229 253.477 500.25 272.46Z" fill="#7D1641"/>
  <path d="M400.58 336.62L389.38 404.14C387.9 409.38 392.14 414.49 397.98 414.49H427.38C433.68 414.49 439.46 411.21 442.35 406.01L488.05 321.3L400.58 336.62ZM333.6 337.77L342.58 404.14C344.08 409.38 339.82 414.49 334.02 414.49H304.6C298.3 414.49 292.52 411.21 289.63 406.01L242.71 329.05L333.6 337.77ZM244.3 257.48V287.44C244.3 293.17 239.24 297.87 233.06 297.87H209.96C203.78 297.87 198.72 293.17 198.72 287.44V257.48C198.72 251.74 203.78 247.04 209.96 247.04H233.06C239.24 247.04 244.29 251.74 244.29 257.48H244.3Z" fill="#7D1641"/>
  <path d="M244.3 257.48V274.18C244.3 279.9 239.24 284.61 233.06 284.61H209.96C203.78 284.61 198.72 279.91 198.72 274.17V257.47C198.72 251.74 203.78 247.04 209.96 247.04H233.06C239.24 247.04 244.29 251.74 244.29 257.48H244.3Z" fill="#8C244F"/>
  <path d="M485.22 218.6C488.07 231.47 485.82 249.85 482.17 259.56C457.97 324.29 401.05 335.96 342.9 340.89C301.53 344.37 242.72 329.05 242.72 329.05C231.836 312.176 226.032 292.529 226 272.45C226 257.13 229.38 242.5 235.47 229.16C253.74 189.17 296.48 160.96 345.97 160.96H380.27C425.27 160.96 464.69 184.31 485.22 218.61V218.6Z" fill="#982E5B"/>
  <path d="M318.39 190.3L272.13 199C267.48 199.88 263.13 197.95 262.4 194.7L249.63 136.03C249.41 135.03 249.53 134.06 249.94 133.16C251.54 129.67 257.22 127.31 262.14 128.8C281.74 134.75 314.87 149.42 325.44 182.43C326.51 185.77 323.28 189.38 318.39 190.28V190.3Z" fill="#8C244F"/>
  <path d="M274.01 198.64L272.13 199.02C267.48 199.89 263.13 197.96 262.4 194.72L249.63 136.04C249.41 135.04 249.53 134.07 249.94 133.17C250.19 133.3 250.42 133.43 250.64 133.57C262.94 142.07 281.89 159.77 284.02 189.14C284.34 193.41 280.01 197.52 274.02 198.64H274.01Z" fill="#7D1641"/>
  <path d="M261.68 228.91C261.68 225.31 264.85 222.37 268.71 222.37C272.6 222.37 275.74 225.3 275.74 228.91C275.74 232.53 272.6 235.46 268.71 235.46C264.85 235.46 261.68 232.53 261.68 228.92V228.91Z" fill="#03318B"/>
  <path fill-rule="evenodd" clip-rule="evenodd" d="M528.8 302.76C528.14 302.76 527.47 302.68 526.8 302.51C521.6 301.24 518.6 295.44 519.02 287.41C519.42 279.53 522.97 271.21 528.75 264.58C531.336 261.646 534.303 259.07 537.57 256.92C535.873 254.291 533.662 252.033 531.07 250.28C526.27 246.92 521.31 245.95 515.91 247.32C501.35 251 489.05 270.31 488.04 272.46C487.6 273.64 486.22 274.23 484.97 273.86C483.65 273.46 482.96 272.18 483.4 270.96C483.84 269.75 487.45 263.99 492.47 258.29C501.22 248.35 508.85 244.59 513.68 243.15C520.9 241.06 527.74 242.21 534.02 246.61C537.076 248.716 539.697 251.391 541.74 254.49C546.988 251.812 552.64 250.011 558.47 249.16C559.82 248.97 561.07 249.81 561.29 251.06C561.51 252.31 560.6 253.46 559.25 253.68C553.917 254.437 548.751 256.09 543.97 258.57C545.398 261.831 546.286 265.303 546.6 268.85C547.3 276.51 545.66 284.85 542.05 291.77C538.38 298.81 533.58 302.77 528.81 302.77L528.8 302.76ZM539.76 261.09C537.099 262.895 534.685 265.04 532.58 267.47C527.43 273.37 524.29 280.71 523.91 287.63C523.63 293.13 525.33 297.43 528.06 298.09C530.79 298.75 534.74 295.35 537.63 289.78C540.8 283.67 542.33 275.98 541.71 269.25C541.443 266.452 540.787 263.706 539.76 261.09Z" fill="#8C244F"/>
  <path d="M478.63 414.49C477.4 414.49 476.12 413.61 475.77 412.52L402.47 190.02C402.12 188.92 402.81 188.05 404.03 188.02C405.25 188.02 406.51 188.89 406.89 189.98L480.16 412.49C480.54 413.59 479.86 414.49 478.63 414.49ZM537.69 414.14C537.074 414.128 536.475 413.935 535.967 413.587C535.459 413.239 535.064 412.75 534.83 412.18L461.55 189.68C461.18 188.58 461.87 187.71 463.09 187.68C464.32 187.68 465.6 188.55 465.95 189.64L539.25 412.14C539.61 413.24 538.91 414.14 537.69 414.14Z" fill="#AEC3FF"/>
  <path d="M474.08 220.7L414.76 221.04C414.177 221.022 413.613 220.836 413.134 220.504C412.654 220.172 412.282 219.709 412.06 219.17C411.76 218.14 412.41 217.3 413.54 217.3L472.85 216.96C473.429 216.972 473.991 217.151 474.47 217.476C474.949 217.801 475.324 218.257 475.55 218.79C475.9 219.82 475.24 220.66 474.08 220.69V220.7ZM486.88 259.53L427.57 259.87C426.993 259.853 426.432 259.672 425.954 259.348C425.476 259.024 425.1 258.57 424.87 258.04C424.52 257.01 425.18 256.17 426.34 256.14L485.66 255.79C486.79 255.79 488.01 256.63 488.36 257.66C488.7 258.69 488.04 259.53 486.88 259.53ZM499.22 296.94L439.9 297.28C439.319 297.272 438.753 297.093 438.273 296.766C437.793 296.439 437.42 295.978 437.2 295.44C436.86 294.42 437.52 293.57 438.68 293.57L497.99 293.23C499.12 293.23 500.35 294.04 500.69 295.07C501 296.1 500.34 296.94 499.21 296.94H499.22ZM513.09 339.08L453.77 339.42C453.187 339.406 452.62 339.221 452.14 338.889C451.66 338.557 451.288 338.091 451.07 337.55C450.73 336.53 451.39 335.68 452.55 335.68L511.86 335.34C512.99 335.34 514.22 336.18 514.56 337.21C514.88 338.21 514.22 339.05 513.09 339.08ZM527.62 383.15L468.3 383.49C467.14 383.49 465.95 382.69 465.6 381.66C465.26 380.63 465.92 379.79 467.08 379.79L526.39 379.44C527.52 379.41 528.75 380.25 529.06 381.28C529.41 382.31 528.75 383.15 527.62 383.15Z" fill="#AEC3FF"/>
  <path d="M196.03 414.45C172.8 414.45 154.03 395.83 154.03 372.75C154.03 349.7 172.8 331.07 196.03 331.07C219.25 331.07 238.05 349.7 238.05 372.75C238.05 395.83 219.25 414.45 196.02 414.45H196.03Z" fill="#E2810E"/>
  <path d="M192.35 414.45C169.13 414.45 150.36 395.83 150.36 372.75C150.36 349.7 169.13 331.07 192.36 331.07C215.61 331.07 234.37 349.7 234.37 372.75C234.37 395.83 215.61 414.45 192.35 414.45Z" fill="#FFC76C"/>
  <path fill-rule="evenodd" clip-rule="evenodd" d="M192.35 411.25C187.329 411.266 182.354 410.288 177.712 408.375C173.07 406.461 168.852 403.649 165.3 400.1C161.742 396.594 158.919 392.413 156.996 387.803C155.072 383.193 154.088 378.245 154.1 373.25C154.088 368.255 155.072 363.307 156.996 358.697C158.919 354.087 161.742 349.906 165.3 346.4C168.857 342.861 173.077 340.057 177.719 338.149C182.36 336.241 187.332 335.266 192.35 335.28C202.497 335.25 212.241 339.249 219.44 346.4C222.998 349.906 225.821 354.087 227.744 358.697C229.667 363.307 230.652 368.255 230.64 373.25C230.652 378.245 229.667 383.193 227.744 387.803C225.821 392.413 222.998 396.594 219.44 400.1C215.881 403.65 211.656 406.463 207.007 408.377C202.358 410.29 197.377 411.266 192.35 411.25ZM228.35 373.25C228.35 353.5 212.25 337.55 192.35 337.55C172.45 337.55 156.39 353.5 156.39 373.25C156.39 392.99 172.46 408.97 192.35 408.97C212.25 408.97 228.35 392.99 228.35 373.25Z" fill="#FFA412"/>
  <path d="M197.63 384.27C197.735 383.537 197.701 382.791 197.53 382.07C197.371 381.398 197.048 380.777 196.59 380.26C196.063 379.614 195.439 379.054 194.74 378.6C193.94 378.06 192.97 377.52 191.82 376.98C189.978 376.086 188.176 375.112 186.42 374.06C184.83 373.06 183.49 371.97 182.41 370.79C181.354 369.65 180.55 368.301 180.05 366.83C179.55 365.38 179.41 363.7 179.65 361.79C179.83 360.12 180.3 358.65 181.05 357.36C181.81 356.06 182.8 354.96 184.04 354.09C185.25 353.19 186.66 352.52 188.27 352.07C189.995 351.597 191.783 351.395 193.57 351.47L194.33 345.21L199.41 345.81L198.63 352.16C200.43 352.6 202.03 353.26 203.43 354.16C204.78 355.016 205.947 356.131 206.864 357.441C207.78 358.75 208.428 360.229 208.77 361.79C209.14 363.43 209.22 365.22 208.99 367.17L199.82 366.08C200.09 363.74 199.78 361.92 198.88 360.63C198.407 359.996 197.803 359.472 197.11 359.092C196.416 358.713 195.649 358.487 194.86 358.43C194.029 358.298 193.181 358.325 192.36 358.51C191.709 358.645 191.099 358.934 190.581 359.351C190.063 359.768 189.651 360.303 189.38 360.91C189.08 361.53 188.888 362.196 188.81 362.88C188.72 363.6 188.74 364.27 188.87 364.87C189.02 365.49 189.32 366.08 189.78 366.64C190.325 367.28 190.958 367.839 191.66 368.3C192.48 368.83 193.49 369.4 194.71 370C196.52 370.932 198.289 371.943 200.01 373.03C201.61 374.03 202.94 375.12 204.03 376.3C205.088 377.438 205.898 378.783 206.41 380.25C206.89 381.73 207.03 383.41 206.82 385.3C206.62 387.02 206.12 388.53 205.35 389.82C204.599 391.103 203.579 392.208 202.36 393.06C201.074 393.965 199.629 394.62 198.1 394.99C196.49 395.4 194.72 395.59 192.8 395.55L192.07 401.37L187.05 400.78L187.74 394.98C186 394.59 184.35 394.01 182.78 393.24C181.247 392.478 179.864 391.445 178.7 390.19C177.537 388.885 176.67 387.342 176.16 385.67C175.6 383.91 175.46 381.85 175.76 379.51L184.92 380.6C184.74 381.772 184.791 382.968 185.07 384.12C185.37 385.09 185.81 385.89 186.39 386.52C186.967 387.157 187.686 387.647 188.49 387.95C190.131 388.613 191.922 388.817 193.67 388.54C194.39 388.397 195.073 388.112 195.68 387.7C196.24 387.3 196.68 386.82 197 386.24C197.33 385.65 197.54 385 197.63 384.27Z" fill="#FFA412"/>
  <path d="M162 225.4C162.13 224.9 150.8 230.5 150.2 231.13C144.9 236.98 146.4 244.64 149.45 244.71C151.4 244.77 151.02 247.98 151.02 247.98L172.8 238.85C172.8 238.85 170.16 223.68 162 225.4Z" fill="#2C3A64"/>
  <path d="M164.7 226.58C164.7 226.58 165.46 218.17 155.98 218.17C155.98 218.17 158.87 218.95 160.34 220.47C160.34 220.47 154.32 216.96 147.73 222.37C141.17 227.79 145.25 241.34 143.23 243.93C141.23 246.51 133.45 247.01 134.42 255.36C135.36 263.67 159.12 274.11 157.58 281.02C157.58 281.02 166.9 267.42 160.25 261.22C160.25 261.22 163.48 264.27 163.83 267.88C163.83 267.88 164.71 260.81 160.19 258.57C156.2 256.57 152.94 249.29 153.29 247.97C153.63 246.67 164.71 226.57 164.71 226.57L164.7 226.58Z" fill="#2C3A64"/>
  <path d="M156.07 266.17C154.63 259.19 145.5 257.04 141.2 262.74C140.382 263.811 139.864 265.082 139.7 266.42C138.69 274.32 151.46 306.59 153.31 309.52C156.64 314.85 176.22 333.1 176.22 333.1L179.83 330.92C179.83 330.92 165.93 307.56 163.79 305.38C161.29 302.86 158.87 279.43 156.07 266.17Z" fill="#ED985F"/>
  <path d="M174.87 330.92C174.87 330.92 180.15 327.49 182.12 327.72C184.13 327.92 189.9 329.58 189.97 330.42C190.03 331.26 183.53 331.79 183.09 332.26C182.66 332.73 178.23 335.66 176.63 334.72C175.03 333.82 174.87 330.92 174.87 330.92Z" fill="#ED985F"/>
  <path d="M138.1 408.57L133.35 407.88C133.35 407.88 117.54 395.39 115.18 372.06C114.92 369.669 114.88 367.259 115.06 364.86C115.09 364.59 115.06 364.31 114.9 364.06C114.4 363.28 113.11 361.35 111.42 358.61C108.733 354.143 106.149 349.615 103.67 345.03C97.95 334.69 91.3299 322.33 89.0399 318.4C81.7599 305.85 85.28 297.38 85.28 297.38C85.28 297.38 105.55 295.41 111.1 290.58L113.11 293.64C113.11 293.64 117.51 312.94 117.28 313.01L117.94 315.04C121.4 325.65 125.41 338.92 127.58 349.74C128.8 355.8 129.43 361.1 129.08 364.71C128.96 365.96 129.12 367.86 129.46 370.2C131.41 384.06 138.09 408.57 138.09 408.57H138.1Z" fill="#8C9DF4"/>
  <path d="M147.95 414.49H128.3C128.3 414.49 127.83 411.49 128.86 409.25C129.84 407.07 131.26 407.01 129.06 403.62C130.28 404.89 134.29 405.42 137.16 405.05C137.5 405.61 139.38 409.35 140.54 410.19C141.83 411.09 147.57 410.78 147.94 414.49H147.95Z" fill="#03318B"/>
  <path d="M117.94 315.04C116.22 324.44 112.17 340.08 103.66 345.03C97.96 334.69 91.3299 322.33 89.0399 318.4C81.7599 305.85 85.28 297.38 85.28 297.38C85.28 297.38 105.55 295.41 111.1 290.58L113.11 293.64C113.11 293.64 117.51 312.94 117.28 313.01L117.94 315.04Z" fill="#6980E2"/>
  <path d="M153.97 261.84C153.97 261.84 156.77 264.7 158.02 268.16C158.02 268.16 153.59 280.77 143.24 282.36C143.24 282.36 151.43 261.84 153.97 261.84Z" fill="#03318B"/>
  <path d="M104.17 298.84L104.23 295.19C96.92 296.09 78.97 286.5 78.97 286.5C78.97 286.5 71.31 291.55 70.27 306C69.77 313.04 66.51 342.88 66.17 351.76C66.04 355 65.97 357.3 65.97 358.2V358.24C65.97 358.51 65.85 358.76 65.66 358.98C64.1646 360.871 62.8426 362.892 61.71 365.02C50.51 385.64 56.37 413.68 56.37 413.68L58.94 413.02C58.94 413.02 68.39 383.96 74.57 371.41C75.64 369.26 76.58 367.61 77.37 366.64C79.69 363.84 82.14 359.11 84.55 353.38C89.13 342.57 93.56 328.28 96.7 317.25C96.92 317.28 104.17 298.84 104.17 298.84Z" fill="#8C9DF4"/>
  <path d="M147 274.48C135.05 271.78 142.7 255.08 143.4 255.36C145.06 255.02 148.7 252.15 151.93 246.48L152.4 246.88L159.75 253.28C159.75 253.28 158.05 255.76 156.61 258.19C155.48 260.09 154.54 261.99 154.69 262.62C155.29 263.08 150.21 275.23 147 274.48Z" fill="#FFB27D"/>
  <path d="M159.75 253.27C159.75 253.27 158.05 255.77 156.61 258.19C152.03 255.39 152.03 249.79 152.37 246.89L159.75 253.27Z" fill="#ED985F"/>
  <path d="M159.94 256.48C159.94 256.48 148.86 250.34 152.81 243.55C156.76 236.73 157.99 231.38 165.24 234.99C172.49 238.63 172.34 241.99 171.58 244.59C170.82 247.17 162.95 257.89 159.93 256.48H159.94Z" fill="#FFB27D"/>
  <path d="M173.46 240.63C172.96 237.61 171.39 237.33 170.32 237.51C166.22 230.78 159.52 233.4 159.52 233.4C155.95 237.85 150.77 238.63 150.77 238.63C150.77 238.63 152.06 241 157.37 242.5C158.99 242.93 160.84 242.65 162.6 242.06C158.93 244.11 155.07 244.89 155.07 244.89C162.07 245.52 168.72 239.16 169.41 238.51C169.73 239.47 170.29 241.53 169.98 243.06C169.51 245.08 167.68 248.79 168.78 249.29C168.78 249.29 174.21 245.14 173.46 240.63Z" fill="#2C3A64"/>
  <path d="M72 414.49H52.32C52.32 414.49 51.85 411.49 52.89 409.25C53.89 407.07 55.43 406.11 55.05 403.49C56.31 404.77 58.32 406.17 61.17 405.79C61.52 406.36 63.43 409.35 64.59 410.19C65.88 411.09 71.59 410.78 72 414.49ZM148.42 287.72C145.91 288.59 142.36 289.09 138.72 289.46C133.54 290.02 128.21 290.43 125.42 291.52C124.41 291.92 123.72 292.42 123.5 293.08C122.3 296.68 116.94 302.27 116.94 302.27C82.74 300.71 78.97 286.51 78.97 286.51C102 259.94 140.97 252.24 140.97 252.24C140.97 252.24 143.77 251.06 150.77 256.6C155.45 260.31 154.85 261.71 154.85 261.71C154.85 261.71 155.85 285.17 148.42 287.71V287.72Z" fill="#03318B"/>
  <path d="M138.72 289.46C133.54 290.02 128.21 290.43 125.42 291.52C124.28 274.58 132.32 261.84 132.32 261.84C132.32 261.84 137.59 283.08 138.72 289.46Z" fill="#012468"/>
  <path d="M144.02 258.57C144.02 258.57 131.09 259.84 130.06 268.19C129.02 276.54 142.46 310.55 144.4 313.63C147.88 319.23 168.56 338.46 168.56 338.46L172.36 336.18C172.36 336.18 157.71 311.58 155.45 309.28C151.87 305.63 148.42 261.46 144.02 258.57Z" fill="#FFB27D"/>
  <path d="M130.44 273.2C130.47 273.4 142.36 277.07 150.04 273.2C150.04 273.2 151.68 255.64 142.52 256.6C133.35 257.57 127.96 260.43 127.7 264.76C127.49 269.13 130.44 273.2 130.44 273.2Z" fill="#06389A"/>
  <path d="M167.37 336.03C167.37 336.03 172.02 331.79 174.03 331.7C176.03 331.6 182 332.29 182.22 333.13C182.41 333.94 176.07 335.5 175.72 336.03C175.38 336.56 171.48 340.13 169.76 339.49C168.03 338.83 167.37 336.03 167.37 336.03Z" fill="#FFB27D"/>
  <path d="M401.83 171.54C401.78 171.829 401.672 172.106 401.513 172.353C401.354 172.6 401.148 172.812 400.905 172.978C400.663 173.144 400.39 173.26 400.102 173.319C399.814 173.377 399.518 173.378 399.23 173.32C391.77 172.021 384.235 171.199 376.67 170.86L375.16 170.8C366.727 170.435 358.279 170.559 349.86 171.17H349.8C338.4 171.97 331.06 173.35 330.9 173.38C330.317 173.492 329.713 173.368 329.22 173.037C328.728 172.705 328.386 172.192 328.27 171.61C328.215 171.32 328.218 171.021 328.279 170.732C328.34 170.443 328.457 170.169 328.625 169.925C328.792 169.682 329.006 169.474 329.254 169.313C329.502 169.153 329.779 169.043 330.07 168.99C330.31 168.93 334.83 168.09 342.3 167.34C344.881 167.085 347.464 166.855 350.05 166.65L351.53 166.56C352.45 166.52 353.41 166.46 354.41 166.4C360.22 166.12 367.25 166 374.94 166.31L376.35 166.37L377.29 166.43C378.07 166.46 378.84 166.5 379.61 166.56C380.083 166.596 380.556 166.629 381.03 166.66C383.575 166.827 386.116 167.053 388.65 167.34C392.39 167.74 396.19 168.27 400.01 168.93C400.596 169.037 401.116 169.372 401.457 169.86C401.798 170.349 401.932 170.953 401.83 171.54Z" fill="#03318B"/>
  <path d="M330.63 131C330.63 110.43 347.42 93.77 368.16 93.77C388.87 93.77 405.66 110.43 405.66 130.99C405.66 151.55 388.87 168.24 368.16 168.24C347.42 168.24 330.63 151.54 330.63 130.99V131Z" fill="#E2810E"/>
  <path d="M327.36 131C327.36 110.43 344.16 93.77 364.86 93.77C385.58 93.77 402.4 110.43 402.4 130.99C402.4 151.55 385.58 168.24 364.87 168.24C344.15 168.24 327.37 151.54 327.37 130.99L327.36 131Z" fill="#FFC76C"/>
  <path fill-rule="evenodd" clip-rule="evenodd" d="M364.86 165.34C355.73 165.34 347.16 161.83 340.7 155.41C337.518 152.281 334.993 148.548 333.274 144.43C331.555 140.312 330.677 135.892 330.69 131.43C330.69 122.36 334.24 113.86 340.7 107.44C343.875 104.276 347.644 101.77 351.79 100.066C355.936 98.3621 360.377 97.4934 364.86 97.51C369.344 97.4894 373.789 98.3561 377.937 100.06C382.085 101.765 385.855 104.273 389.03 107.44C392.211 110.571 394.735 114.306 396.454 118.426C398.172 122.545 399.052 126.966 399.04 131.43C399.04 140.49 395.49 149.03 389.03 155.41C385.856 158.579 382.086 161.089 377.938 162.795C373.79 164.501 369.345 165.369 364.86 165.35V165.34ZM364.86 99.54C347.16 99.54 332.73 113.86 332.73 131.43C332.73 149.03 347.16 163.33 364.86 163.33C382.6 163.33 397 149.03 397 131.43C397 113.86 382.6 99.53 364.86 99.53V99.54Z" fill="#FFA412"/>
  <path d="M369.57 141.27C369.66 140.54 369.63 139.89 369.51 139.31C369.354 138.712 369.063 138.158 368.66 137.69C368.172 137.108 367.599 136.602 366.96 136.19C366.28 135.74 365.42 135.26 364.39 134.76C362.75 133.961 361.149 133.087 359.59 132.14C358.266 131.339 357.055 130.363 355.99 129.24C355.051 128.219 354.336 127.013 353.89 125.7C353.411 124.244 353.277 122.697 353.5 121.18C353.64 119.823 354.062 118.51 354.739 117.325C355.415 116.14 356.332 115.11 357.43 114.3C358.578 113.481 359.866 112.878 361.23 112.52C362.67 112.11 364.25 111.92 365.96 111.96L366.62 106.38L371.17 106.91L370.48 112.58C372.08 112.98 373.49 113.58 374.75 114.39C375.99 115.18 377.01 116.14 377.83 117.29C378.638 118.466 379.212 119.787 379.52 121.18C379.86 122.65 379.92 124.26 379.71 126.01L371.51 125.04C371.77 122.94 371.49 121.32 370.67 120.18C369.86 119.04 368.67 118.38 367.12 118.19C366.37 118.085 365.607 118.118 364.87 118.29C364.287 118.401 363.739 118.652 363.274 119.021C362.809 119.39 362.44 119.867 362.2 120.41C361.925 120.964 361.756 121.564 361.7 122.18C361.61 122.82 361.63 123.41 361.76 123.95C361.88 124.51 362.16 125.05 362.57 125.54C362.97 126.04 363.54 126.53 364.27 127C364.98 127.48 365.87 128 366.97 128.56C368.72 129.46 370.3 130.35 371.71 131.24C373.031 132.033 374.233 133.009 375.28 134.14C376.226 135.167 376.954 136.374 377.42 137.69C377.86 138.99 377.97 140.5 377.76 142.2C377.628 143.617 377.191 144.988 376.48 146.22C375.807 147.366 374.896 148.355 373.81 149.12C372.658 149.916 371.37 150.496 370.01 150.83C368.45 151.215 366.845 151.383 365.24 151.33L364.61 156.53L360.13 156L360.73 150.83C359.193 150.502 357.704 149.978 356.3 149.27C354.9 148.59 353.7 147.68 352.69 146.57C351.635 145.402 350.85 144.016 350.39 142.51C349.875 140.731 349.748 138.862 350.02 137.03L358.22 137.97C358.06 139.21 358.12 140.27 358.37 141.15C358.582 141.945 358.979 142.678 359.53 143.29C360.05 143.85 360.68 144.28 361.41 144.57C362.12 144.87 362.87 145.05 363.64 145.13C364.54 145.23 365.34 145.21 366.03 145.07C366.682 144.948 367.302 144.693 367.85 144.32C368.35 143.99 368.75 143.56 369.04 143.04C369.31 142.51 369.49 141.91 369.57 141.27Z" fill="#FFA412"/>
  <path d="M401.74 145.38C400.61 144.45 398.1 142.33 397.91 142.73C397.79 143.01 397.88 143.54 398.13 144.07C396.56 143.32 394.93 142.77 390.91 143.14C390.13 143.2 389.34 143.57 388.84 144.2C388.4 144.79 388.15 145.57 389.12 146.28C391.01 147.72 390.5 146.91 393.11 148.99C395.75 151.08 399.11 151.86 401.27 150.8L404.07 150.58L404.85 146.16C404.85 146.16 403.31 145.82 401.74 145.38ZM467.49 111.74C467.49 111.74 461.55 118.69 454.05 115.79C454.05 115.79 452.42 111.89 452.42 109.03C452.42 108.68 452.42 108.35 452.39 108.03C452.36 104.8 452.27 102.99 452.27 102.99C452.61 102.87 463.75 98.32 463.75 98.69C463.56 107.41 467.49 111.74 467.49 111.74Z" fill="#FFB27D"/>
  <path d="M462.62 100.78C461.56 102.74 457.85 106.6 452.39 108.04C452.36 104.8 452.27 102.99 452.27 102.99C452.58 102.93 462.94 100.19 462.62 100.78Z" fill="#ED975D"/>
  <path d="M449.91 102.68C449.91 102.68 462.46 105.58 464.16 97.82C465.89 90.03 468.65 85.18 460.74 82.99C452.8 80.79 450.57 83.39 449.38 85.86C448.15 88.32 446.71 101.71 449.91 102.68Z" fill="#FFB27D"/>
  <path d="M463.75 99.94C463.91 100.04 466.61 100.87 471.72 90.75C472.284 89.4658 472.53 88.0647 472.438 86.6652C472.346 85.2657 471.918 83.909 471.19 82.71C469.34 79.69 462.69 77.3 457.19 76.27C451.67 75.24 450.35 78.29 449.06 81.41C447.71 84.64 443.76 87.32 443.76 87.32C448.53 89.94 454.24 86.17 456.22 86.79C458.2 87.42 458.92 90.53 459.04 91.49C459.2 92.49 459.42 93.33 461.94 92.43C464.41 91.56 463.06 95.95 462.65 96.79C462.65 96.79 462.31 99.03 463.75 99.94Z" fill="#233862"/>
  <path d="M477.28 293.36H484.84C486.44 293.36 488.2 291.76 488.67 288.87C489.11 285.97 492.37 284.39 493.07 282.02C493.79 279.65 490.14 276.32 490.14 276.32L489.54 275.54L488.92 274.74L482.9 276.14C482.9 276.14 482.77 277.57 482.68 279.37C482.61 280.68 482.58 282.17 482.65 283.51C482.83 286.66 481.77 290.09 478.91 290.68C476.09 291.3 477.28 293.36 477.28 293.36ZM443.3 293.54C443.3 293.54 464.25 293.45 464.35 293.42C465.7 292.76 464.66 287.97 464.5 286.38C464.484 286.223 464.464 286.066 464.44 285.91C464.44 285.91 457.38 280.31 456.41 284.61L456.28 285.01C455.06 289.03 449.57 290.87 446.4 291.36C443.98 291.76 443.45 292.83 443.3 293.54Z" fill="#00256E"/>
  <path d="M447.25 178.7L449.57 207.99C451.29 229.72 453.37 256.42 453.55 261.46C453.93 270.25 455.35 284.29 455.35 284.29C455.35 284.29 458.7 287.63 465.42 286.22C465.42 286.22 471.41 266.17 473.14 244.95L473.2 243.93C474.8 222.31 477.28 176.83 477.28 176.83L447.25 178.71V178.7Z" fill="#03318B"/>
  <path d="M447.25 178.7L449.57 207.99L473.14 244.95L473.2 243.93C474.8 222.31 477.28 176.83 477.28 176.83L447.25 178.71V178.7Z" fill="#00256E"/>
  <path d="M453.93 175.84C453.93 175.84 464.82 220.38 473.13 244.95C481.43 269.56 481.77 281.45 481.77 281.45C481.77 281.45 491.18 279.62 492.22 277.82C492.22 277.82 495.42 235.7 489.05 223.65C485.41 216.86 486.03 201.1 486.03 193.91C486.03 180.61 481.83 167.41 481.83 167.41L453.93 175.84Z" fill="#03318B"/>
  <path d="M496.33 171.51L496.52 174.63C496.52 174.63 494.48 180.14 500.25 182.94C500.25 182.94 502.7 183.94 502.82 182.04C502.92 180.11 502.6 180.82 502.79 178.14C502.99 175.47 501.95 172.91 500.13 172.07L498.68 170.39L496.33 171.51Z" fill="#FFB27D"/>
  <path d="M498.59 173.79C496.42 174.47 496.08 174.32 496.08 174.32C496.08 174.32 485.66 155.44 484.59 153.72C483.55 152.02 462.43 132.58 462.43 132.58L467.86 112.52C467.86 112.52 491.87 143.36 494.45 147.78C498.75 155.1 501.25 172.08 501.25 172.08C501.25 172.08 500.25 173.22 498.59 173.78V173.79Z" fill="#6980E2"/>
  <path d="M443.17 140.46C443.23 144.57 443.47 149.21 443.79 153.91L443.85 154.76C444.07 157.68 444.29 160.58 444.55 163.45C444.65 164.59 444.77 165.71 444.89 166.81V166.97C444.89 167.37 444.95 167.84 445.02 168.24C446.05 178.93 447.18 187.34 447.37 187.49C447.62 187.65 447.9 187.71 448.19 187.68C451.01 187.34 459.42 187.96 466.33 186.49C472.13 185.28 477.13 182.94 482.43 179.86C483.15 179.42 484.75 178.33 484.63 177.52C484.5 176.62 484.25 175.32 483.96 173.69C482.205 164.827 481.043 155.857 480.48 146.84C480.122 139.633 479.006 132.483 477.15 125.51C474.8 117.07 471.32 110.59 466.99 108.07C466.42 107.76 463.34 109.69 460.52 111.47C458.152 112.981 455.345 113.65 452.55 113.37L450.19 115.92C447.37 119.19 444.36 123.55 443.54 129.72C443.48 130.17 443.43 130.66 443.38 131.18C443.139 134.267 443.069 137.365 443.17 140.46Z" fill="#8C9DF4"/>
  <path d="M443.17 140.46C443.23 144.57 443.47 149.21 443.79 153.91L443.85 154.76C459.95 144.76 462.43 126.44 462.43 126.44C454.53 126.79 448.22 128.59 443.38 131.18C443.139 134.267 443.069 137.365 443.17 140.46Z" fill="#6980E2"/>
  <path d="M402.46 148.34C402.3 145.97 403.53 145.57 403.53 145.57C403.53 145.57 427.82 141.21 429.89 140.55C431.96 139.93 449.59 121.71 449.59 121.71C449.59 121.71 456.38 114.11 461.9 115.79C466.7 117.26 468.59 120.96 469.24 124.51C470 128.75 468.05 133.01 464.34 135.26C456.06 140.3 439.46 150.24 435.57 151.39C426.87 153.92 403.5 151.58 403.5 151.58C403.5 151.58 402.59 150.21 402.46 148.34Z" fill="#8C9DF4"/>
  <path d="M399.48 142.3C399.48 142.3 399.45 142.98 399.23 143.57C399.1 144.01 398.63 144.23 398.13 144.07C396.97 143.77 396.81 142.11 396.81 142.11L398.35 141.46L399.48 142.3Z" fill="#E06236"/>
  <path d="M604.2 410.6V414.05C604.2 414.33 604.07 414.58 603.9 414.8C603.64 415.11 603.272 415.31 602.87 415.36L602.59 415.39H536.43C535.65 415.39 534.96 414.89 534.87 414.24C534.846 414.201 534.833 414.156 534.83 414.11V410.53C534.83 410.47 534.84 410.42 534.87 410.37C534.96 409.75 535.65 409.25 536.43 409.25H602.59L602.87 409.28C602.96 409.28 603.05 409.3 603.15 409.35C603.47 409.44 603.72 409.63 603.91 409.85C604.07 410.06 604.19 410.31 604.19 410.59L604.2 410.6Z" fill="#FFB93E"/>
  <path d="M571.7 415.39H536.28C535.62 415.39 535.05 414.95 534.9 414.39C534.879 414.343 534.869 414.292 534.87 414.24C534.846 414.201 534.833 414.156 534.83 414.11V410.53C534.83 410.47 534.84 410.42 534.87 410.37C534.87 410.33 534.87 410.29 534.9 410.25C535.05 409.65 535.62 409.25 536.28 409.25H567.35C567.85 411.05 569.01 413.55 571.71 415.39H571.7ZM596.12 415.39H595.37V409.25H596.12V415.39ZM593.58 415.39H592.83V409.25H593.58V415.39ZM590.54 415.39H589.79V409.25H590.54V415.39ZM585.86 415.39H585.11V409.25H585.86V415.39ZM580.9 415.39H580.15V409.25H580.9V415.39ZM573.34 415.39H572.59V409.25H573.34V415.39Z" fill="#FFA412"/>
  <path d="M566.22 415.39H565.46V409.25H566.22V415.39ZM559.88 415.39H559.13V409.25H559.88V415.39ZM598.54 415.39H597.79V409.25H598.54V415.39ZM600.14 415.39H599.39V409.25H600.14V415.39ZM601.71 415.39H600.96V409.25H601.71V415.39ZM602.87 409.28V415.36L602.59 415.39H602.12V409.25H602.59L602.87 409.28ZM603.9 409.84V414.8C603.72 415.01 603.47 415.2 603.15 415.3V409.35C603.47 409.44 603.72 409.63 603.91 409.85L603.9 409.84Z" fill="#FFA412"/>
  <path d="M597.1 404.46V407.91C597.1 408.19 597 408.44 596.85 408.66L596.69 408.82C596.53 408.97 596.31 409.1 596.09 409.16C595.99 409.2 595.89 409.22 595.78 409.22C595.7 409.24 595.6 409.25 595.5 409.25H529.37C528.56 409.25 527.9 408.75 527.77 408.1V404.27C527.9 403.62 528.56 403.12 529.37 403.12H595.69C595.71 403.12 595.73 403.12 595.75 403.15H595.78L596.09 403.21L596.25 403.27L596.35 403.33C596.37 403.33 596.39 403.35 596.41 403.37C596.43 403.37 596.45 403.37 596.47 403.4L596.66 403.52L596.72 403.58L596.75 403.62L596.78 403.65L596.85 403.71C597 403.93 597.1 404.18 597.1 404.46Z" fill="#FFB93E"/>
  <path d="M564.62 409.25H529.19C528.887 409.252 528.592 409.155 528.348 408.975C528.105 408.795 527.927 408.54 527.84 408.25L527.77 408.1V404.27L527.84 404.11C527.99 403.55 528.53 403.11 529.19 403.11H560.29C560.963 405.601 562.497 407.773 564.62 409.24V409.25ZM589.06 409.25H588.31V403.12H589.06V409.25ZM586.52 409.25H585.77V403.12H586.52V409.25ZM583.48 409.25H582.73V403.12H583.48V409.25ZM578.8 409.25H578.05V403.12H578.8V409.25ZM573.84 409.25H573.09V403.12H573.84V409.25ZM566.25 409.25H565.5V403.12H566.25V409.25Z" fill="#FFA412"/>
  <path d="M559.15 409.25H558.4V403.12H559.15V409.25ZM552.82 409.25H552.06V403.12H552.82V409.25ZM591.48 409.25H590.73V403.12H591.48V409.25ZM593.08 409.25H592.33V403.12H593.08V409.25ZM594.62 409.25H593.87V403.12H594.62V409.25ZM595.78 403.15V409.22C595.7 409.24 595.6 409.25 595.5 409.25H595.03V403.12H595.5C595.6 403.12 595.7 403.12 595.78 403.15ZM596.85 403.7V408.66C596.65 408.88 596.38 409.06 596.09 409.16V403.21C596.38 403.31 596.66 403.49 596.85 403.71V403.7Z" fill="#FFA412"/>
  <path d="M600.52 398.48V401.93C600.52 402.21 600.42 402.46 600.24 402.68C600.114 402.839 599.956 402.97 599.777 403.067C599.599 403.163 599.402 403.222 599.2 403.24C599.12 403.26 599.02 403.27 598.92 403.27H532.79C532.51 403.27 532.26 403.21 532.04 403.12C531.83 403.04 531.643 402.909 531.495 402.74C531.346 402.571 531.242 402.369 531.19 402.15V398.3C531.32 397.64 531.98 397.15 532.79 397.15H598.92C599.12 397.181 599.32 397.215 599.52 397.25C599.8 397.33 600.08 397.52 600.24 397.74C600.42 397.96 600.52 398.2 600.52 398.49V398.48Z" fill="#FFB93E"/>
  <path d="M568.04 403.27H532.6C532.37 403.27 532.15 403.22 531.94 403.12C531.748 403.027 531.579 402.891 531.447 402.723C531.316 402.555 531.224 402.359 531.18 402.15V398.3C531.199 398.249 531.209 398.195 531.21 398.14C531.41 397.58 531.94 397.14 532.6 397.14H563.7C564.342 399.648 565.883 401.833 568.03 403.28L568.04 403.27ZM592.48 403.27H591.73V397.14H592.48V403.27ZM589.94 403.27H589.19V397.14H589.94V403.27ZM586.87 403.27H586.11V397.14H586.87V403.27ZM582.19 403.27H581.44V397.14H582.19V403.27ZM577.26 403.27H576.51V397.14H577.26V403.27ZM569.67 403.27H568.92V397.14H569.67V403.27Z" fill="#FFA412"/>
  <path d="M562.58 403.27H561.82V397.14H562.57V403.27H562.58ZM556.24 403.27H555.48V397.14H556.24V403.27ZM594.9 403.27H594.15V397.14H594.9V403.27ZM596.5 403.27H595.75V397.14H596.5V403.27ZM598.04 403.27H597.29V397.14H598.04V403.27ZM599.2 397.17V403.24C599.12 403.26 599.02 403.27 598.92 403.27H598.45V397.14H598.92C599.02 397.14 599.12 397.14 599.2 397.17ZM600.24 397.73V402.68C600.08 402.9 599.8 403.08 599.51 403.18V397.23C599.8 397.33 600.08 397.51 600.24 397.73Z" fill="#FFA412"/>
  <path d="M602.12 392.34V395.8C602.12 396.08 601.99 396.33 601.84 396.55C601.821 396.584 601.798 396.614 601.77 396.64C601.65 396.76 601.49 396.88 601.3 396.98L601.08 397.04C601 397.08 600.91 397.12 600.8 397.14H534.36C533.58 397.14 532.89 396.64 532.79 396.01C532.771 395.973 532.761 395.932 532.76 395.89V392.28C532.79 391.62 533.42 391.09 534.17 391.03C534.234 391.009 534.302 390.999 534.37 391H600.52L600.64 391.03H600.8L601.08 391.09C601.4 391.22 601.65 391.37 601.84 391.59C601.99 391.81 602.12 392.06 602.12 392.34Z" fill="#FFB93E"/>
  <path d="M569.64 397.14H534.2C533.54 397.14 532.97 396.74 532.82 396.17C532.798 396.119 532.784 396.065 532.78 396.01C532.761 395.973 532.751 395.932 532.75 395.89V392.28C532.78 391.62 533.35 391.09 534.01 391.03C534.071 391.01 534.135 391 534.2 391H565.27V391.03C565.77 392.83 566.93 395.33 569.63 397.13L569.64 397.14ZM594.05 397.14H593.3V391H594.05V397.14ZM591.51 397.14H590.76V391H591.51V397.14ZM588.47 397.14H587.71V391H588.47V397.14ZM583.79 397.14H583.04V391H583.79V397.14ZM578.83 397.14H578.08V391H578.83V397.14ZM571.27 397.14H570.52V391H571.27V397.14Z" fill="#FFA412"/>
  <path d="M564.14 397.14H563.42V391H564.15V397.14H564.14ZM557.8 397.14H557.05V391H557.8V397.14ZM596.47 397.14H595.72V391H596.47V397.14ZM598.07 397.14H597.32V391H598.07V397.14ZM599.64 397.14H598.89V391H599.64V397.14ZM600.8 391.03V397.13H600.05V391H600.52L600.8 391.03ZM601.84 391.6V396.54C601.64 396.79 601.4 396.94 601.08 397.04V391.09C601.4 391.22 601.65 391.37 601.84 391.59V391.6Z" fill="#FFA412"/>
  <path d="M597.25 386.24V389.69C597.25 389.97 597.16 390.22 596.97 390.44C596.71 390.75 596.342 390.95 595.94 391H595.81C595.81 391.02 595.81 391.03 595.78 391.03H529.5C528.65 391.03 527.96 390.47 527.9 389.76V386.11C527.96 385.55 528.46 385.08 529.12 384.93H529.15C529.25 384.91 529.37 384.9 529.5 384.9H595.84L595.94 384.93C596.04 384.93 596.14 384.95 596.22 384.99C596.53 385.09 596.78 385.27 596.97 385.49C597.16 385.71 597.25 385.95 597.25 386.24Z" fill="#FFB93E"/>
  <path d="M564.77 391.03H529.34C528.56 391.03 527.93 390.47 527.9 389.76V386.11C527.941 385.82 528.072 385.55 528.275 385.338C528.478 385.126 528.742 384.984 529.03 384.93H529.09C529.17 384.91 529.26 384.9 529.34 384.9H560.41C561.066 387.391 562.605 389.559 564.74 391L564.77 391.03ZM589.19 391.03H588.44V384.9H589.19V391.03ZM586.65 391.03H585.9V384.9H586.65V391.03ZM583.6 391.03H582.85V384.9H583.6V391.03ZM578.93 391.03H578.17V384.9H578.93V391.03ZM573.97 391.03H573.22V384.9H573.97V391.03ZM566.4 391.03H565.65V384.9H566.4V391.03Z" fill="#FFA412"/>
  <path d="M559.31 391.03H558.56V384.9H559.31V391.03ZM552.94 391.03H552.22V384.9H552.94V391.03ZM591.6 391.03H590.88V384.9H591.61V391.03H591.6ZM593.2 391.03H592.48V384.9H593.21V391.03H593.2ZM594.77 391.03H594.02V384.9H594.77V391.03ZM595.94 384.93V391L595.65 391.03H595.18V384.9H595.65C595.74 384.9 595.83 384.9 595.94 384.93ZM596.97 385.49V390.44C596.78 390.66 596.53 390.84 596.22 390.94V384.99C596.53 385.09 596.78 385.27 596.97 385.49Z" fill="#FFA412"/>
  <path d="M597.1 380.16V383.62C597.1 383.87 597 384.15 596.85 384.37C596.787 384.409 596.733 384.46 596.69 384.52C596.53 384.65 596.31 384.77 596.09 384.87C596.01 384.89 595.93 384.9 595.84 384.9L595.78 384.93H529.09C528.4 384.8 527.87 384.37 527.77 383.81V379.94C527.9 379.32 528.56 378.82 529.37 378.82H595.78C595.88 378.84 595.98 378.87 596.09 378.92C596.14 378.92 596.19 378.94 596.25 378.98C596.46 379.06 596.64 379.18 596.78 379.32C596.8 379.34 596.83 379.37 596.85 379.42C597 379.6 597.1 379.88 597.1 380.16Z" fill="#FFB93E"/>
  <path d="M564.62 384.93H529.02C528.717 384.908 528.43 384.787 528.203 384.584C527.977 384.381 527.825 384.109 527.77 383.81V379.94L527.84 379.79C527.99 379.23 528.53 378.82 529.19 378.82H560.29C560.29 378.86 560.29 378.92 560.32 378.98C561.015 381.404 562.536 383.509 564.62 384.93ZM589.06 384.93H588.31V378.83H589.06V384.93ZM586.52 384.93H585.77V378.83H586.52V384.93ZM583.48 384.93H582.73V378.83H583.48V384.93ZM578.8 384.93H578.05V378.83H578.8V384.93ZM573.84 384.93H573.09V378.83H573.84V384.93ZM566.25 384.93H565.5V378.83H566.25V384.93Z" fill="#FFA412"/>
  <path d="M559.15 384.93H558.4V378.83H559.15V384.93ZM552.82 384.93H552.06V378.83H552.82V384.93ZM591.48 384.93H590.73V378.83H591.48V384.93ZM593.08 384.93H592.33V378.83H593.08V384.93ZM594.62 384.93H593.87V378.83H594.62V384.93ZM595.78 378.82V384.92H595.03V378.82H595.78ZM596.85 379.41V384.37C596.65 384.58 596.38 384.74 596.09 384.87V378.92C596.38 379.01 596.66 379.17 596.85 379.42V379.41Z" fill="#FFA412"/>
  <path d="M600.52 374.18V377.64C600.52 377.92 600.42 378.17 600.24 378.39C600.08 378.6 599.8 378.76 599.51 378.89L599.21 378.95C599.11 378.97 599.02 378.98 598.91 378.98H532.8C532.542 378.978 532.286 378.924 532.05 378.82C531.844 378.736 531.66 378.606 531.512 378.44C531.365 378.273 531.258 378.075 531.2 377.86V373.96C531.33 373.34 531.99 372.84 532.8 372.84H599.21C599.31 372.86 599.42 372.89 599.52 372.94C599.81 373.03 600.09 373.19 600.25 373.44C600.43 373.65 600.53 373.9 600.53 374.18H600.52Z" fill="#FFB93E"/>
  <path d="M568.04 378.98H532.6C532.274 378.978 531.957 378.866 531.702 378.663C531.446 378.46 531.266 378.177 531.19 377.86V373.96C531.206 373.922 531.213 373.881 531.21 373.84C531.41 373.24 531.94 372.84 532.6 372.84H563.7C564.359 375.34 565.896 377.52 568.03 378.98H568.04ZM592.48 378.98H591.73V372.84H592.48V378.98ZM589.94 378.98H589.19V372.84H589.94V378.98ZM586.87 378.98H586.11V372.84H586.87V378.98ZM582.19 378.98H581.44V372.84H582.19V378.98ZM577.26 378.98H576.51V372.84H577.26V378.98ZM569.67 378.98H568.92V372.84H569.67V378.98Z" fill="#FFA412"/>
  <path d="M562.58 378.98H561.82V372.84H562.57V378.98H562.58ZM556.24 378.98H555.48V372.84H556.24V378.98ZM594.9 378.98H594.15V372.84H594.9V378.98ZM596.5 378.98H595.75V372.84H596.5V378.98ZM598.04 378.98H597.29V372.84H598.04V378.98ZM599.2 372.84V378.94C599.12 378.97 599.02 378.98 598.92 378.98H598.45V372.84H599.2ZM600.24 373.43V378.39C600.08 378.6 599.8 378.76 599.51 378.89V372.94C599.8 373.03 600.08 373.22 600.24 373.44V373.43Z" fill="#FFA412"/>
  <path d="M605.92 368.05V371.5C605.92 371.78 605.82 372.03 605.67 372.25C605.64 372.275 605.607 372.296 605.57 372.31C605.487 372.435 605.369 372.532 605.23 372.59L605.01 372.72C604.975 372.723 604.941 372.733 604.91 372.75L604.6 372.81C604.51 372.83 604.42 372.84 604.32 372.84H538.19C537.38 372.84 536.72 372.34 536.59 371.69V367.98C536.62 367.33 537.22 366.8 538 366.71H604.32C604.42 366.71 604.52 366.71 604.6 366.74C604.969 366.777 605.312 366.944 605.57 367.21L605.67 367.3C605.82 367.52 605.92 367.76 605.92 368.05Z" fill="#FFB93E"/>
  <path d="M573.47 372.84H538C537.35 372.84 536.81 372.41 536.65 371.84L536.59 371.69V367.98C536.62 367.33 537.16 366.8 537.85 366.71H569.1C569.6 368.51 570.77 371.01 573.47 372.84ZM597.88 372.84H597.13V366.71H597.88V372.84ZM595.34 372.84H594.59V366.71H595.34V372.84ZM592.3 372.84H591.54V366.71H592.29V372.84H592.3ZM587.62 372.84H586.87V366.71H587.62V372.84ZM582.66 372.84H581.91V366.71H582.66V372.84ZM575.07 372.84H574.31V366.71H575.07V372.84Z" fill="#FFA412"/>
  <path d="M567.97 372.84H567.22V366.71H567.97V372.84ZM561.63 372.84H560.88V366.71H561.63V372.84ZM600.3 372.84H599.55V366.71H600.3V372.84ZM601.9 372.84H601.15V366.71H601.9V372.84ZM603.44 372.84H602.68V366.71H603.44V372.84ZM604.6 366.74V372.81C604.51 372.83 604.42 372.84 604.32 372.84H603.88V366.71H604.32C604.42 366.71 604.52 366.71 604.6 366.74ZM605.66 367.3V372.25C605.48 372.47 605.23 372.65 604.91 372.75V366.8C605.23 366.9 605.48 367.08 605.66 367.3Z" fill="#FFA412"/>
  <path d="M597.25 361.91V365.37C597.25 365.65 597.16 365.93 596.97 366.12C596.78 366.36 596.53 366.52 596.22 366.62C596.13 366.65 596.04 366.69 595.94 366.71H529.5C528.93 366.71 528.43 366.46 528.15 366.08C528.01 365.901 527.923 365.686 527.9 365.46V361.85C527.93 361.29 528.4 360.82 529.03 360.63C529.17 360.61 529.33 360.6 529.5 360.6H595.94L596.22 360.66L596.34 360.73C596.54 360.81 596.69 360.9 596.82 361.01V361.04H596.85L596.97 361.16C597.16 361.38 597.25 361.66 597.25 361.91Z" fill="#FFB93E"/>
  <path d="M564.77 366.7H529.34C528.84 366.7 528.4 366.49 528.15 366.12C528.002 365.93 527.915 365.7 527.9 365.46V361.85C527.93 361.25 528.43 360.73 529.06 360.6H560.41C561.081 363.084 562.617 365.247 564.74 366.7H564.77ZM589.19 366.7H588.44V360.6H589.19V366.7ZM586.65 366.7H585.9V360.6H586.65V366.7ZM583.6 366.7H582.85V360.6H583.6V366.7ZM578.93 366.7H578.17V360.6H578.93V366.7ZM573.97 366.7H573.22V360.6H573.97V366.7ZM566.4 366.7H565.65V360.6H566.4V366.7Z" fill="#FFA412"/>
  <path d="M559.31 366.7H558.56V360.6H559.31V366.7ZM552.94 366.7H552.22V360.6H552.94V366.7ZM591.6 366.7H590.88V360.6H591.61V366.7H591.6ZM593.2 366.7H592.48V360.6H593.21V366.7H593.2ZM594.77 366.7H594.02V360.6H594.77V366.7ZM595.94 360.6V366.7H595.18V360.6H595.94ZM596.97 361.16V366.11C596.78 366.36 596.53 366.51 596.22 366.61V360.66C596.53 360.79 596.78 360.94 596.97 361.16Z" fill="#FFA412"/>
  <path d="M602.12 355.93V359.39C602.12 359.67 601.99 359.92 601.84 360.14C601.64 360.35 601.4 360.54 601.08 360.64C600.992 360.681 600.897 360.701 600.8 360.7L600.52 360.73H534.36C534.11 360.73 533.87 360.68 533.64 360.6C533.414 360.506 533.215 360.357 533.062 360.167C532.908 359.976 532.804 359.751 532.76 359.51V355.87C532.79 355.21 533.42 354.68 534.17 354.62C534.234 354.599 534.302 354.589 534.37 354.59H600.52L600.8 354.62L601.08 354.68C601.4 354.78 601.65 354.96 601.84 355.18C601.99 355.4 602.12 355.65 602.12 355.93Z" fill="#FFB93E"/>
  <path d="M569.64 360.73H534.2C533.97 360.73 533.75 360.68 533.54 360.6C533.332 360.492 533.153 360.338 533.016 360.149C532.879 359.959 532.788 359.741 532.75 359.51V355.87C532.78 355.21 533.35 354.68 534.01 354.62C534.071 354.6 534.135 354.59 534.2 354.59H565.27V354.62C565.932 357.025 567.392 359.134 569.41 360.6L569.63 360.73H569.64ZM594.05 360.73H593.3V354.59H594.05V360.73ZM591.51 360.73H590.76V354.59H591.51V360.73ZM588.47 360.73H587.71V354.59H588.47V360.73ZM583.79 360.73H583.04V354.59H583.79V360.73ZM578.83 360.73H578.08V354.59H578.83V360.73ZM571.27 360.73H570.52V354.59H571.27V360.73Z" fill="#FFA412"/>
  <path d="M564.14 360.73H563.42V354.59H564.15V360.73H564.14ZM557.8 360.73H557.05V354.59H557.8V360.73ZM596.47 360.73H595.72V354.59H596.47V360.73ZM598.07 360.73H597.32V354.59H598.07V360.73ZM599.64 360.73H598.89V354.59H599.64V360.73ZM600.8 354.62V360.69C600.7 360.72 600.6 360.73 600.52 360.73H600.05V354.59H600.52L600.8 354.62ZM601.84 355.18V360.13C601.64 360.35 601.4 360.53 601.08 360.63V354.68C601.4 354.78 601.65 354.96 601.84 355.18Z" fill="#FFA412"/>
  <path d="M604.2 349.82V353.28C604.2 353.56 604.07 353.81 603.9 354.03C603.64 354.34 603.272 354.54 602.87 354.59H602.77L602.72 354.62H536.43C535.59 354.62 534.9 354.06 534.83 353.35V349.76C534.9 349.05 535.59 348.49 536.43 348.49H602.59C602.67 348.49 602.77 348.49 602.87 348.52C602.97 348.52 603.07 348.54 603.15 348.58C603.47 348.68 603.72 348.86 603.91 349.08C604.07 349.3 604.19 349.55 604.19 349.83L604.2 349.82Z" fill="#FFB93E"/>
  <path d="M571.7 354.62H536.28C535.49 354.62 534.87 354.06 534.83 353.35V349.76C534.87 349.05 535.49 348.49 536.28 348.49H567.35C568.018 350.992 569.566 353.168 571.71 354.62H571.7ZM596.12 354.62H595.37V348.49H596.12V354.62ZM593.58 354.62H592.83V348.49H593.58V354.62ZM590.54 354.62H589.79V348.49H590.54V354.62ZM585.86 354.62H585.11V348.49H585.86V354.62ZM580.9 354.62H580.15V348.49H580.9V354.62ZM573.34 354.62H572.59V348.49H573.34V354.62Z" fill="#FFA412"/>
  <path d="M566.22 354.62H565.46V348.49H566.22V354.62ZM559.88 348.49V354.62H559.13V348.49H559.88ZM598.54 354.62H597.79V348.49H598.54V354.62ZM600.14 354.62H599.39V348.49H600.14V354.62ZM601.71 354.62H600.96V348.49H601.71V354.62ZM602.87 348.52V354.59L602.59 354.62H602.12V348.49H602.59C602.67 348.49 602.77 348.49 602.87 348.52ZM603.9 349.08V354.03C603.72 354.25 603.47 354.43 603.15 354.53V348.58C603.47 348.68 603.72 348.86 603.91 349.08H603.9Z" fill="#FFA412"/>
  <path d="M583.23 313.57C583.23 313.57 579.74 318.43 576.54 318.49C573.37 318.55 568.54 316.22 568.54 316.22C568.54 316.22 565.59 309.77 567.6 307.25C567.6 307.25 569.58 306.38 571.65 307.9C572.02 308.15 572.37 308.5 572.75 308.93C573.25 309.53 573.81 309.86 574.41 310.05C576.67 310.74 579.37 309.12 580.37 310.67C580.97 311.57 581.63 312.27 582.13 312.73C582.472 313.041 582.84 313.322 583.23 313.57ZM537.91 348.58C537.91 348.58 550.21 319.05 572.31 318.49C572.31 318.49 592.71 320.73 593.83 348.58H537.91Z" fill="#AEC3FF"/>
  <path d="M566.25 319.4C566.25 319.4 575.1 321.33 577.83 320.2C577.83 320.2 578.27 316.5 574.53 317.03C571.96 317.37 570.3 316.16 569.33 315.66C567.94 314.97 565.87 317.84 566.25 319.39V319.4Z" fill="#03318B"/>
  <path d="M573.97 313.85C573.4 314.25 571.65 307.9 571.65 307.9C572.02 308.15 572.37 308.5 572.75 308.93C573.25 309.53 573.81 309.86 574.41 310.05C574.41 310.24 574.51 313.45 573.97 313.85ZM582.13 312.73C582 312.83 577.93 315.25 577.36 315.25C576.79 315.25 580.37 310.67 580.37 310.67C580.97 311.57 581.63 312.27 582.13 312.73ZM549.93 340.33C549.68 340.13 558.63 327.31 561.07 327.21C563.52 327.11 569.04 330.01 573.03 330.39C577.01 330.76 580.9 329.64 581.66 331.98C582.41 334.31 584.48 342.63 583.23 343.97C581.94 345.27 554.83 344.47 549.93 340.33Z" fill="#91B0F2"/>
  <path opacity="0.5" d="M558.3 384.9V384.93C558.189 386.981 557.867 389.015 557.34 391L557.3 391.03C557.24 391.33 557.16 391.6 557.05 391.87C556.515 393.697 555.791 395.463 554.89 397.14C552.226 402.161 548.229 406.351 543.34 409.25C542.75 409.61 542.14 409.95 541.52 410.28L540.26 410.88C539.86 411.12 539.45 411.31 539.04 411.56C537.88 412.27 536.44 412.83 534.84 413.27V410.53C534.84 410.47 534.84 410.42 534.87 410.37C534.87 410.33 534.87 410.29 534.9 410.25C535.05 409.65 535.62 409.25 536.28 409.25H529.18C528.879 409.25 528.586 409.152 528.344 408.972C528.103 408.792 527.926 408.539 527.84 408.25L527.77 408.1V404.27L527.84 404.11C527.99 403.55 528.53 403.11 529.19 403.11H531.95C531.759 403.018 531.591 402.884 531.459 402.717C531.328 402.551 531.236 402.357 531.19 402.15V398.3C531.212 398.249 531.226 398.195 531.23 398.14C531.41 397.58 531.95 397.14 532.61 397.14H534.21C533.55 397.14 532.98 396.74 532.83 396.18C532.808 396.129 532.794 396.075 532.79 396.02C532.771 395.983 532.761 395.942 532.76 395.9V392.29C532.79 391.63 533.36 391.1 534.02 391.04H529.34C528.56 391.04 527.93 390.48 527.9 389.77V386.12C527.941 385.83 528.072 385.56 528.275 385.348C528.478 385.136 528.742 384.994 529.03 384.94C528.725 384.92 528.436 384.8 528.207 384.597C527.979 384.394 527.825 384.12 527.77 383.82V379.95L527.84 379.8C527.99 379.24 528.53 378.83 529.19 378.83H531.95C531.762 378.734 531.596 378.599 531.465 378.433C531.334 378.267 531.24 378.075 531.19 377.87V373.96C531.212 373.924 531.226 373.883 531.23 373.84C531.41 373.24 531.95 372.84 532.61 372.84H538.01C537.705 372.844 537.408 372.748 537.162 372.568C536.917 372.388 536.737 372.132 536.65 371.84L536.59 371.69V367.98C536.62 367.33 537.16 366.8 537.85 366.71H529.35C528.84 366.71 528.4 366.49 528.15 366.11V366.08L529.03 360.63L529.06 360.6L530.32 352.88C531.8 353.06 533.26 353.36 534.71 353.75L534.96 353.81C535.807 354.047 536.644 354.318 537.47 354.62C541.299 355.974 544.835 358.044 547.89 360.72C553.326 365.414 556.919 371.885 558.03 378.98C558.34 380.94 558.43 382.93 558.31 384.9H558.3Z" fill="#E2810E"/>
  <path d="M489.99 397.32C487.931 393.605 486.629 389.519 486.158 385.298C485.687 381.076 486.058 376.804 487.248 372.726C488.438 368.649 490.424 364.848 493.092 361.543C495.76 358.238 499.056 355.494 502.79 353.47C510.339 349.327 519.219 348.335 527.496 350.71C535.773 353.085 542.776 358.635 546.98 366.15C549.037 369.864 550.339 373.948 550.811 378.168C551.282 382.387 550.914 386.658 549.726 390.734C548.539 394.811 546.557 398.612 543.894 401.918C541.231 405.225 537.94 407.972 534.21 410C526.656 414.142 517.772 415.133 509.491 412.758C501.21 410.384 494.201 404.835 489.99 397.32Z" fill="#E2810E"/>
  <path d="M532.92 410.65C532.085 411.186 531.217 411.667 530.32 412.09C514.84 419.62 495.92 413.83 487.51 398.69C483.676 391.776 482.523 383.691 484.272 375.981C486.02 368.27 490.548 361.474 496.99 356.89C498.051 356.136 499.152 355.442 500.29 354.81C500.7 354.58 501.13 354.36 501.57 354.15C505.022 352.472 508.736 351.397 512.55 350.97C518.7 350.32 524.85 351.45 530.32 354.09C536.314 357.003 541.266 361.693 544.5 367.52C548.539 374.807 549.588 383.379 547.428 391.426C545.267 399.472 540.066 406.365 532.92 410.65Z" fill="#FFB93E"/>
  <path fill-rule="evenodd" clip-rule="evenodd" d="M516.22 412.37C513.49 412.37 510.76 411.99 508.1 411.21C502.574 409.658 497.636 406.494 493.918 402.121C490.2 397.749 487.87 392.367 487.226 386.664C486.582 380.96 487.653 375.194 490.302 370.103C492.952 365.011 497.059 360.825 502.1 358.08C516.2 350.38 533.96 355.49 541.7 369.45C543.545 372.778 544.713 376.439 545.136 380.222C545.559 384.004 545.229 387.832 544.164 391.486C543.1 395.14 541.322 398.547 538.934 401.51C536.546 404.473 533.594 406.934 530.25 408.75C525.954 411.123 521.127 412.368 516.22 412.37ZM516.13 355.27C511.52 355.27 506.81 356.4 502.48 358.77C499.224 360.544 496.352 362.946 494.03 365.836C491.708 368.727 489.981 372.049 488.95 375.61C487.899 379.156 487.568 382.876 487.979 386.552C488.389 390.228 489.532 393.784 491.34 397.01C493.14 400.264 495.568 403.13 498.483 405.44C501.397 407.75 504.741 409.46 508.32 410.47C511.895 411.509 515.639 411.832 519.339 411.42C523.039 411.008 526.621 409.87 529.88 408.07C533.135 406.306 536.007 403.914 538.331 401.032C540.656 398.151 542.386 394.838 543.422 391.284C544.458 387.729 544.779 384.005 544.367 380.326C543.954 376.647 542.817 373.087 541.02 369.85C538.551 365.419 534.94 361.731 530.563 359.169C526.186 356.607 521.202 355.264 516.13 355.28V355.27Z" fill="#FFA412"/>
  <path d="M530.53 386.24C530.473 386.078 530.403 385.921 530.32 385.77C529.855 384.713 529.182 383.76 528.34 382.97C527.438 382.166 526.384 381.55 525.24 381.16C524.06 380.76 522.75 380.51 521.31 380.41C519.731 380.326 518.15 380.316 516.57 380.38C515.5 380.4 514.59 380.38 513.84 380.32C513.197 380.283 512.563 380.148 511.96 379.92C511.475 379.717 511.036 379.417 510.67 379.04C509.981 378.235 509.574 377.227 509.51 376.17C509.47 375.66 509.54 375.17 509.73 374.71C509.92 374.25 510.22 373.83 510.63 373.43C511.06 373.04 511.61 372.71 512.3 372.43C512.858 372.174 513.466 372.044 514.079 372.051C514.693 372.058 515.298 372.201 515.85 372.47C516.94 373.01 517.84 374.12 518.55 375.8L525.17 373.12C524.58 371.72 523.87 370.52 523 369.57C522.17 368.633 521.169 367.862 520.05 367.3C518.937 366.773 517.738 366.454 516.51 366.36C515.21 366.28 513.87 366.42 512.49 366.76L510.61 362.19L506.93 363.69L508.79 368.2C507.561 368.822 506.429 369.621 505.43 370.57C504.553 371.425 503.832 372.427 503.3 373.53C502.809 374.603 502.55 375.768 502.54 376.949C502.53 378.129 502.768 379.298 503.24 380.38C503.713 381.614 504.45 382.73 505.4 383.65C506.299 384.456 507.354 385.069 508.5 385.45C509.7 385.85 511.01 386.09 512.46 386.17C513.92 386.23 515.51 386.23 517.23 386.17C518.21 386.11 519.07 386.11 519.8 386.17C520.53 386.23 521.16 386.38 521.68 386.61C522.23 386.81 522.68 387.11 523.03 387.48C523.37 387.88 523.66 388.36 523.91 388.94C524.12 389.46 524.23 389.98 524.23 390.5C524.23 391.02 524.11 391.533 523.88 392C523.65 392.48 523.3 392.91 522.82 393.3C522.35 393.7 521.77 394.04 521.06 394.33C520.43 394.58 519.78 394.75 519.11 394.83C518.44 394.92 517.78 394.85 517.13 394.64C516.51 394.44 515.91 394.05 515.35 393.49C514.704 392.827 514.209 392.032 513.9 391.16L507.28 393.83C507.98 395.52 508.84 396.86 509.88 397.85C510.93 398.85 512.08 399.55 513.31 399.97C514.56 400.41 515.86 400.59 517.2 400.53C518.56 400.49 519.9 400.27 521.21 399.88L522.94 404.08L526.58 402.58L524.85 398.38C526.1 397.779 527.253 396.993 528.27 396.05C529.169 395.228 529.905 394.244 530.44 393.15C530.94 392.11 531.2 391.01 531.22 389.85C531.249 388.608 531.014 387.374 530.53 386.23V386.24Z" fill="#FFA412"/>
  <path d="M86.03 415.01H104.33C105.3 414.21 103.63 412.31 101.91 412.18C101.16 412.15 100.21 412.31 99.11 412.52C98.86 409.19 97.42 394.27 92.02 394.86C85.9 395.55 92.02 401.43 93.72 404.96C94.9431 407.579 96.0312 410.259 96.98 412.99L95.44 413.3C94.63 410.84 91.61 402.56 87.82 403.05C83.32 403.61 85.12 406.92 88.29 408.91C90.64 410.34 93.49 412.4 94.85 413.39C93.72 413.59 92.49 413.71 91.27 413.68C88.13 413.61 86.62 414.52 86.03 415.01Z" fill="#40B028"/>
</svg>