<svg width="590" height="646" viewBox="0 0 590 646" fill="none" xmlns="http://www.w3.org/2000/svg">
<g clip-path="url(#clip0_4_6)">
<rect width="590" height="646" rx="15" fill="#F4F1FC"/>
<g clip-path="url(#clip1_4_6)">
<line x1="108" y1="293" x2="412" y2="293" stroke="#AF97ED" stroke-width="4"/>
<path d="M260 -1281C370.457 -1281 460 -1191.46 460 -1081V-945H456V-1081C456 -1189.25 368.248 -1277 260 -1277H-2276C-2383.4 -1277 -2470.63 -1190.61 -2471.98 -1083.54L-2472 -1081V95C-2472 203.248 -2384.25 291 -2276 291H-1736V295H-2276L-2278.59 294.984C-2387.85 293.6 -2476 204.594 -2476 95V-1081C-2476 -1190.59 -2387.85 -1279.6 -2278.59 -1280.98L-2276 -1281H260ZM459.645 107C453.516 210.553 368.6 292.908 264 294.96V290.956C366.391 288.906 449.517 208.343 455.638 107H459.645Z" fill="#866FBF"/>
<circle cx="458" cy="101" r="10" fill="#866FBF"/>
<circle cx="258" cy="293" r="10" fill="#866FBF"/>
<circle cx="406" cy="293" r="6" fill="#AF97ED"/>
<circle cx="110" cy="293" r="6" fill="#AF97ED"/>
</g>
<rect x="-2541" y="-1343" width="2936" height="1576" rx="200" fill="#DED6F2"/>
<rect x="50" y="366" width="409" height="136" rx="36" fill="#DED6F2"/>
<rect x="90" y="405" width="409" height="136" rx="36" fill="#B2A1DC"/>
<path d="M214.219 492V453.6H228.281C231.006 453.6 233.263 454.05 235.05 454.95C236.838 455.837 238.175 457.044 239.063 458.569C239.95 460.081 240.394 461.787 240.394 463.687C240.394 465.287 240.1 466.637 239.513 467.737C238.925 468.825 238.138 469.7 237.15 470.362C236.175 471.012 235.1 471.487 233.925 471.787V472.162C235.2 472.225 236.444 472.637 237.656 473.4C238.881 474.15 239.894 475.219 240.694 476.606C241.494 477.994 241.894 479.681 241.894 481.669C241.894 483.631 241.431 485.394 240.506 486.956C239.594 488.506 238.181 489.737 236.269 490.65C234.356 491.55 231.913 492 228.938 492H214.219ZM220.013 487.031H228.375C231.15 487.031 233.138 486.494 234.338 485.419C235.538 484.344 236.138 483 236.138 481.387C236.138 480.175 235.831 479.062 235.219 478.05C234.606 477.037 233.731 476.231 232.594 475.631C231.469 475.031 230.131 474.731 228.581 474.731H220.013V487.031ZM220.013 470.212H227.775C229.075 470.212 230.244 469.962 231.281 469.462C232.331 468.962 233.163 468.262 233.775 467.362C234.4 466.45 234.713 465.375 234.713 464.137C234.713 462.55 234.156 461.219 233.044 460.144C231.931 459.069 230.225 458.531 227.925 458.531H220.013V470.212ZM266.559 480.056V463.2H272.184V492H266.672V487.012H266.372C265.709 488.55 264.647 489.831 263.184 490.856C261.734 491.869 259.928 492.375 257.766 492.375C255.916 492.375 254.278 491.969 252.853 491.156C251.441 490.331 250.328 489.112 249.516 487.5C248.716 485.887 248.316 483.894 248.316 481.519V463.2H253.922V480.844C253.922 482.806 254.466 484.369 255.553 485.531C256.641 486.694 258.053 487.275 259.791 487.275C260.841 487.275 261.884 487.012 262.922 486.487C263.972 485.962 264.841 485.169 265.528 484.106C266.228 483.044 266.572 481.694 266.559 480.056ZM293.161 463.2V467.7H277.43V463.2H293.161ZM281.648 456.3H287.255V483.544C287.255 484.631 287.417 485.45 287.742 486C288.067 486.537 288.486 486.906 288.998 487.106C289.523 487.294 290.092 487.387 290.705 487.387C291.155 487.387 291.548 487.356 291.886 487.294C292.223 487.231 292.486 487.181 292.673 487.144L293.686 491.775C293.361 491.9 292.898 492.025 292.298 492.15C291.698 492.288 290.948 492.363 290.048 492.375C288.573 492.4 287.198 492.138 285.923 491.587C284.648 491.037 283.617 490.187 282.83 489.037C282.042 487.887 281.648 486.444 281.648 484.706V456.3ZM312.806 463.2V467.7H297.075V463.2H312.806ZM301.294 456.3H306.9V483.544C306.9 484.631 307.063 485.45 307.388 486C307.713 486.537 308.131 486.906 308.644 487.106C309.169 487.294 309.738 487.387 310.35 487.387C310.8 487.387 311.194 487.356 311.531 487.294C311.869 487.231 312.131 487.181 312.319 487.144L313.331 491.775C313.006 491.9 312.544 492.025 311.944 492.15C311.344 492.288 310.594 492.363 309.694 492.375C308.219 492.4 306.844 492.138 305.569 491.587C304.294 491.037 303.263 490.187 302.475 489.037C301.688 487.887 301.294 486.444 301.294 484.706V456.3ZM330.83 492.581C328.13 492.581 325.773 491.963 323.761 490.725C321.748 489.487 320.186 487.756 319.073 485.531C317.961 483.306 317.405 480.706 317.405 477.731C317.405 474.744 317.961 472.131 319.073 469.894C320.186 467.656 321.748 465.919 323.761 464.681C325.773 463.444 328.13 462.825 330.83 462.825C333.53 462.825 335.886 463.444 337.898 464.681C339.911 465.919 341.473 467.656 342.586 469.894C343.698 472.131 344.255 474.744 344.255 477.731C344.255 480.706 343.698 483.306 342.586 485.531C341.473 487.756 339.911 489.487 337.898 490.725C335.886 491.963 333.53 492.581 330.83 492.581ZM330.848 487.875C332.598 487.875 334.048 487.412 335.198 486.487C336.348 485.562 337.198 484.331 337.748 482.794C338.311 481.256 338.592 479.562 338.592 477.712C338.592 475.875 338.311 474.187 337.748 472.65C337.198 471.1 336.348 469.856 335.198 468.919C334.048 467.981 332.598 467.512 330.848 467.512C329.086 467.512 327.623 467.981 326.461 468.919C325.311 469.856 324.455 471.1 323.892 472.65C323.342 474.187 323.067 475.875 323.067 477.712C323.067 479.562 323.342 481.256 323.892 482.794C324.455 484.331 325.311 485.562 326.461 486.487C327.623 487.412 329.086 487.875 330.848 487.875ZM356.119 474.9V492H350.513V463.2H355.894V467.887H356.25C356.913 466.362 357.95 465.137 359.363 464.212C360.788 463.287 362.581 462.825 364.744 462.825C366.706 462.825 368.425 463.237 369.9 464.062C371.375 464.875 372.519 466.087 373.331 467.7C374.144 469.312 374.55 471.306 374.55 473.681V492H368.944V474.356C368.944 472.269 368.4 470.637 367.313 469.462C366.225 468.275 364.731 467.681 362.831 467.681C361.531 467.681 360.375 467.962 359.363 468.525C358.363 469.087 357.569 469.912 356.981 471C356.406 472.075 356.119 473.375 356.119 474.9Z" fill="#0F0722"/>
<rect x="130" y="446" width="409" height="136" rx="36" fill="#866FBF"/>
</g>
<defs>
<clipPath id="clip0_4_6">
<rect width="590" height="646" rx="15" fill="white"/>
</clipPath>
<clipPath id="clip1_4_6">
<rect width="364" height="212" fill="white" transform="translate(104 91)"/>
</clipPath>
</defs>
</svg>
